<svg xmlns="http://www.w3.org/2000/svg" id="f36e9ef0-1dee-44ef-9a6b-6908712d4f99" data-name="Layer 1" width="148" height="148" viewBox="0 0 148 148"><g style="opacity:0"><rect width="148" height="148" style="fill:#fff"></rect></g><path d="M120.2357,44.8574a24.87,24.87,0,0,0-44.51,5.02A24.85,24.85,0,0,0,50.0845,65.0387,24.8766,24.8766,0,1,0,71.7688,99.4418,24.85,24.85,0,0,0,96.5082,82.8481a24.87,24.87,0,0,0,23.7275-37.9907ZM61.0079,109.2307A22.8767,22.8767,0,1,1,49.3586,67.0084a24.8664,24.8664,0,0,0,20.32,32.2387A22.7656,22.7656,0,0,1,61.0079,109.2307Zm9.4272-11.9048A22.8652,22.8652,0,0,1,51.4183,67.1545,22.8652,22.8652,0,0,1,70.4351,97.3259Zm14.8071-3.37a22.7658,22.7658,0,0,1-12.7474,3.5163,24.8667,24.8667,0,0,0-20.32-32.2387A22.8648,22.8648,0,0,1,75.13,51.8254a24.8573,24.8573,0,0,0,19.3632,30.72A22.7706,22.7706,0,0,1,85.2422,93.9558ZM95.11,80.63A22.87,22.87,0,0,1,77.1241,52.095,22.87,22.87,0,0,1,95.11,80.63Zm16.2786-3.1548A22.7711,22.7711,0,0,1,97.1041,80.9,24.8576,24.8576,0,0,0,77.7409,50.18a22.875,22.875,0,1,1,33.6478,27.2956Z" style="fill-rule:evenodd"></path></svg>