<svg xmlns="http://www.w3.org/2000/svg" xmlns:xlink="http://www.w3.org/1999/xlink" fill="none" height="26" viewBox="0 0 26 26" width="26"><clipPath id="a"><path d="m0 0h26v26h-26z"></path></clipPath><g clip-path="url(#a)" clip-rule="evenodd" fill="#181818" fill-rule="evenodd"><path d="m2.91451 5.6875h20.16839l2.143 19.5h-24.454416zm1.56393 1.625-1.78586 16.25h20.61222l-1.7858-16.25z"></path><path d="m7.80078 4.875c0-2.24366 1.9401-4.0625 4.33332-4.0625h1.7333c2.3933 0 4.3334 1.81884 4.3334 4.0625v4.875c0 .4487-.388.8125-.8667.8125-.4786 0-.8667-.3638-.8667-.8125v-4.875c0-1.34619-1.164-2.4375-2.6-2.4375h-1.7333c-1.4359 0-2.59999 1.09131-2.59999 2.4375v4.875c0 .4487-.38802.8125-.86666.8125-.47865 0-.86667-.3638-.86667-.8125z"></path></g></svg>