<svg xmlns="http://www.w3.org/2000/svg" fill="none" height="32" viewBox="0 0 70 32" width="70"><path clip-rule="evenodd" d="m32.1921 2.40131c-.0039-.27612.2168-.50311.4929-.507 3.0852-.04353 9.7493.37218 16.5629 1.25542 6.7926.88052 13.8354 2.23741 17.6214 4.11124l.7865.38927-.7359.47812c-8.1676 5.30654-17.0357 12.58634-22.2851 20.58684-.1515.2309-.4615.2953-.6924.1438-.2308-.1515-.2952-.4615-.1437-.6924 5.0151-7.6434 13.2175-14.5872 20.9813-19.82105-11.274.82577-20.5278 1.71575-31.2246 4.70055-9.3301 2.6035-20.4347 7.3464-28.40108 12.9334-1.13822.7983-2.29758 1.6492-3.0509 2.7123-.15966.2253-.47174.2785-.69705.1189-.22531-.1597-.27853-.4718-.11887-.6971.86771-1.2245 2.17011-2.1655 3.29262-2.9528 8.08118-5.6676 19.29638-10.452 28.70648-13.0779 10.7414-2.99727 20.0397-3.899 31.2453-4.72186-3.8432-1.39694-9.6543-2.47317-15.4126-3.21961-6.7873-.87984-13.4001-1.28983-16.4202-1.24722-.2761.00389-.5031-.21679-.507-.4929z" fill="#fff" fill-rule="evenodd"></path></svg>