<svg xmlns="http://www.w3.org/2000/svg" xmlns:xlink="http://www.w3.org/1999/xlink" id="Layer_1" x="0px" y="0px" viewBox="0 0 10 12" xml:space="preserve"><path fill="#111111" d="M8.268,1.901C7.395,1.038,6.234,0.562,5,0.562c-1.234,0-2.395,0.476-3.268,1.339 C0.857,2.767,0.375,3.917,0.375,5.142c0,2.606,3.793,5.833,4.226,6.193C4.716,11.432,4.858,11.479,5,11.479 c0.141,0,0.282-0.048,0.397-0.143C5.83,10.98,9.625,7.775,9.625,5.142C9.625,3.918,9.143,2.767,8.268,1.901z M5.001,10.028 C3.787,8.936,1.625,6.673,1.625,5.142c0-0.888,0.35-1.723,0.986-2.352C3.249,2.16,4.097,1.812,5,1.812 c0.89,0,1.761,0.356,2.389,0.978c0.636,0.629,0.986,1.464,0.986,2.352C8.375,6.688,6.215,8.941,5.001,10.028z"></path><path fill="#111111" d="M5,5.752L5,5.752c-0.57,0-1.032-0.462-1.032-1.032v0C3.968,4.15,4.43,3.688,5,3.688h0 c0.57,0,1.032,0.462,1.032,1.032v0C6.032,5.29,5.57,5.752,5,5.752z"></path></svg>