<svg xmlns="http://www.w3.org/2000/svg" xmlns:xlink="http://www.w3.org/1999/xlink" fill="none" height="18" viewBox="0 0 19 18" width="19"><clipPath id="a"><path d="m.5 0h18v18h-18z"></path></clipPath><g clip-path="url(#a)"><path clip-rule="evenodd" d="m14 0h-9c-2.48528 0-4.5 2.01472-4.5 4.5v9c0 2.4853 2.01472 4.5 4.5 4.5h9c2.4853 0 4.5-2.0147 4.5-4.5v-9c0-2.48528-2.0147-4.5-4.5-4.5zm-.9 8.43289c.1111.74902-.0168 1.51399-.3656 2.18611-.3487.6721-.9005 1.2172-1.5769 1.5576s-1.44286.4589-2.19045.3386c-.7476-.1203-1.43823-.4732-1.97366-1.0087-.53543-.5354-.88839-1.226-1.00869-1.97362-.1203-.7476-.0018-1.51409.33863-2.19046.34044-.67637.88548-1.22817 1.55759-1.57692.67212-.34875 1.4371-.47668 2.18608-.36561.7641.11329 1.4714.46931 2.0176 1.01547.5461.54616.9021 1.2535 1.0154 2.01753zm1.8-3.48295c.7456 0 1.35-.60441 1.35-1.35 0-.74558-.6044-1.35-1.35-1.35s-1.35.60442-1.35 1.35c0 .74559.6044 1.35 1.35 1.35z" fill="#fff" fill-rule="evenodd"></path></g></svg>