<svg xmlns="http://www.w3.org/2000/svg" fill="none" height="77" viewBox="0 0 155 77" width="155"><path d="m49.6323 7.39222.3585-.02534c.5974-.04224.9173.23537.9595.83284s-.1194 1.2844-.4848 2.06078l-.5545 1.075c-.1026.2474-.1496.4309-.1412.5504.0085.1195.0724.175.1919.1666.0598-.0043.1633-.0266.3105-.067.1772-.0426.2807-.0649.3105-.067.0598-.0042.223-.0308.4898-.0797.2667-.0488.4748-.0786.6241-.0891 6.2397-.9215 12.1526-1.5797 17.7389-1.97459 6.154-.43504 11.4946-.48235 16.0221-.14191 2.108.09116 3.1948.5998 3.2603 1.5258.0422.5975-.3487 1.2256-1.1728 1.8843-.7963.6267-1.6544 1.0176-2.5741 1.1727l-.3585.0254c-.5377.038-.9772-.021-1.3185-.177-.3135-.188-.4787-.4015-.4956-.6405-.0254-.3585.2544-.6485.8392-.8699 1.146-.3513 1.7138-.6015 1.7032-.7509-.0084-.1195-.4789-.1913-1.4113-.2155-3.5205-.1114-7.3271-.0224-11.4197.2669-5.6162.397-13.1756 1.3367-22.678 2.8191-1.1886.1741-2.085.4476-2.6891.8206s-1.2287 1.0926-1.8739 2.159c-6.441 10.8132-11.7936 21.3092-16.0578 31.4881.0021.0299-.0096.0757-.0353.1376-.0256.0618-.0374.1077-.0353.1376-.3078.7423-.4458 1.3375-.4142 1.7856.0064.0896.1031.6082.2901 1.5557.0978.5335.1836 1.323.2576 2.3686.3695 5.2278-.8561 10.8236-3.6769 16.7874-1.1561 2.3334-2.1225 3.5276-2.8992 3.5825-.6572.0464-1.0439-.7519-1.16-2.3949-.057-.8066-.0726-1.451-.0466-1.9332.281-4.9435 1.8199-11.4171 4.6166-19.4207.3956-1.1989.5744-2.0672.5364-2.6049-.0401-.5676-.2328-1.1694-.578-1.8055-1.1249-2.3223-2.7481-4.4743-4.8697-6.4559-2.0938-2.0136-4.2221-3.6645-6.3847-4.9527-2.1328-1.2903-4.1963-2.4504-6.19052-3.4803-2.02624-1.0577-3.68556-2.0212-4.97795-2.8906-1.32226-.8672-2.00873-1.6593-2.05941-2.3763-.04646-.6572.14817-1.3014.58391-1.9327.43363-.6611 1.1254-1.2805 2.07532-1.858.91793-.6053 1.92865-1.1721 3.03216-1.7005 1.1014-.5582 2.44495-1.0885 4.03069-1.5909 1.6156-.5045 3.1287-.9718 4.5394-1.4017 1.4405-.4321 3.1361-.8672 5.0866-1.3053 1.9505-.4382 3.6354-.8125 5.0545-1.1229 1.449-.3126 3.152-.6432 5.1088-.9917 1.9846-.3805 3.5254-.6695 4.6222-.8671 1.0969-.1977 2.4616-.4293 4.0941-.6948 1.9589-.3186 3.2853-.6676 3.979-1.0468.7236-.3814 1.6791-1.3046 2.8665-2.76962 1.2771-1.47132 2.2688-2.30701 2.9752-2.50706zm-22.5858 47.44128c-2.2364 6.1626-3.5021 11.1908-3.7973 15.0846-.1246 1.2097-.1764 1.964-.1553 2.2627.0169.239.0552.3564.115.3521.239-.0169.7058-.8455 1.4004-2.4858 2.5025-5.3708 3.6391-10.3148 3.4099-14.832-.0908-1.2846-.2109-1.9216-.3603-1.911-.0896.0063-.2937.5161-.6124 1.5294zm1.1299-8.8615c3.7026-9.6288 7.9008-18.6172 12.5947-26.9651.6943-1.2199 1.0277-2.0241 1.0003-2.4124-.0211-.2988-.3304-.427-.9279-.3848-.1494.0106-.9069.1242-2.2726.3408-3.647.6481-7.1276 1.3145-10.4417 1.9991s-7.0519 1.5343-11.2134 2.5491c-4.1636.9848-7.48329 2.0151-9.95917 3.0908-2.50786 1.048-3.74611 2.0062-3.71474 2.8746-.00031.4203.57965.9798 1.73987 1.6784 1.15811.6687 2.67349 1.5072 4.54615 2.5157 1.84069.9807 3.78149 2.1045 5.82249 3.3713 2.0411 1.2667 4.0925 2.893 6.1543 4.8789 2.0896 1.9539 3.7545 4.0578 4.9947 6.3119.4879.9563.8364 1.427 1.0455 1.4122.1195-.0084.33-.4286.6315-1.2605zm14.9113-1.8648c-.0634-.8962.3408-2.1857 1.2126-3.8685.5791-1.1518 1.2122-1.752 1.8993-1.8006.5974-.0422.9226.3101.9754 1.0569.0211.2988-.0453.6337-.1992 1.0049-.408.5992-.8193 1.3639-1.2339 2.2939-.1539.3711-.2213.6911-.2023.96.038.5377.4902.7759 1.3565.7147.5676-.0401 1.2612-.2093 2.0807-.5074 3.765-1.5271 6.655-2.9023 8.6701-4.1256l.3522-.1149c.2987-.0211.4565.0878.4734.3268.0148.2091-.124.369-.4164.4798-2.8923 1.5555-4.7899 2.5302-5.6927 2.9243-2.16.8732-3.4747 1.3865-3.9442 1.5398-1.7608.5748-2.7905.8728-3.0892.8939-1.4041.0992-2.1515-.4934-2.2423-1.778zm4.9496-10.8878c.2776-.3199.5658-.4904.8645-.5115.5676-.0401.8704.2087.9084.7464-.0579.4545-.2427.8128-.5544 1.075-.1304.2794-.3119.4724-.5446.5789-.1152.0682-.2326.1065-.3521.115-.1792.0126-.3488-.0504-.5088-.1892-.162-.1687-.2504-.3576-.2652-.5667.0516-.5441.2024-.9601.4522-1.2479zm9.9758 7.3108c-.4677.6035-.9933 1.4513-1.5766 2.5433-.5854 1.0621-.8793 1.7885-.8817 2.1789l.019.2689c.1494-.0106.2625-.1086.3395-.2942 1.4397-2.1433 2.3006-3.5552 2.5827-4.2357 1.6555-2.4888 2.7715-4.1138 3.3482-4.8752.7625-1.1047 1.4873-1.6813 2.1744-1.7299.6273-.0443.9737.3966 1.0392 1.3226.0401.5676-.0489 1.2194-.2671 1.9554-.4279 1.5914-.6123 2.8053-.5531 3.6418.0253.3585.1575.5293.3965.5124.2091-.0148.5698-.2205 1.0822-.6169.0257-.0619.4453-.4969 1.2588-1.305.7773-.8955 1.3303-1.3549 1.6589-1.3782.4779-.0338.8072.5884.9876 1.8667.0869.8044.2454 1.3486.4757 1.6326.2601.2818.6291.4059 1.1071.3721.5078-.0359 1.1139-.1688 1.8182-.3988.4418-.1213.9113-.2745 1.4086-.4598s1.065-.4356 1.7032-.7509c.6681-.3174 1.206-.5656 1.6136-.7446.4056-.2088 1.0278-.538 1.8667-.9876.8687-.4517 1.4482-.7478 1.7385-.8884.1153-.0682.2626-.1087.4418-.1213.2987-.0212.4544.0579.4671.2371.019.2689-.1743.5077-.5798.7165-.2604.1385-.8549.4358-1.7834.8917s-1.682.8394-2.2604 1.1505c-.5806.2813-1.2935.6019-2.1387.9618-.8452.36-1.5751.6518-2.1898.8754-.9391.3066-1.6476.4767-2.1255.5105-1.3443.0951-2.3072-.5724-2.8887-2.0024-.0021-.0299-.0202-.0737-.0543-.1313s-.0522-.1014-.0543-.1313c-.1107-.2924-.181-.4375-.2109-.4354l-.3332.3838-1.0537 1.0202c-.8539.6609-1.5647 1.0113-2.1323 1.0515-.9858.0697-1.6201-.6211-1.9028-2.0722l-.0507-.7169c-.0613-.8664-.0747-1.4809-.0403-1.8436l.1191-.8641-.2435.3775c-2.0997 3.0006-3.7124 5.4564-4.8383 7.3674-1.0703 1.847-2.0386 2.8011-2.905 2.8623-.3286.0233-.608-.1071-.8382-.391-.2302-.284-.3633-.6799-.3992-1.1877-.0592-.8365.1175-1.7347.53-2.6945.4789-1.2948 1.0346-2.565 1.6671-3.8107.5577-1.0301 1.195-1.5706 1.9119-1.6212.2689-.019.4993.0547.6912.2213.1898.1367.2931.3245.31.5635.0233.3286-.1285.7297-.4553 1.2031zm38.279-2.571c-5.6189 4.1801-10.1902 6.83-13.7137 7.9498-1.5878.4725-2.5909.7235-3.0091.7531-1.7625.1246-2.6998-.6047-2.8117-2.188-.0464-.6573.0554-1.34.3056-2.0482-.064-.0555-.1023-.1729-.115-.3521-.0084-.1195.0151-.2112.0706-.2752l.2752.0706c.1968-.6144.6316-1.4707 1.3045-2.5691 1.5124-2.3886 2.9707-3.6326 4.3747-3.7318.3585-.0254.5996-.0124.7233.0389.6998.1307 1.076.5694 1.1288 1.3163.0169.2389-.0901.6368-.3209 1.1935-.765 1.4952-2.2019 2.8277-4.3109 3.9976-.4867.3346-.7814.6256-.884.8731-.0277.032-.0544.0789-.0801.1407l-.3078.7423c-.0941.367-.137.6102-.1285.7297.0443.6273.5893.904 1.6349.8301.5078-.0359 1.2035-.1751 2.087-.4177 3.3166-1.0751 7.7736-3.6419 13.3712-7.7004.2305-.1364.3906-.2077.4802-.2141.1792-.0126.2752.0706.2879.2499.0211.2987-.0996.5024-.3622.611zm14.5169-22.7326c-.248.7381-.561 1.4057-.939 2.0028-1.423 2.8027-3.105 5.5635-5.044 8.2826-2.379 3.2905-4.124 5.5755-5.2346 6.8549-.7496.8636-1.4128 1.8863-1.9898 3.0679-.3226.5332-.6805 1.204-1.0736 2.0124l-2.1256 4.9689c-.389.8681-1.428 3.5836-3.1169 8.1463-1.0843 3.3491-1.7783 5.6349-2.0822 6.8573-.5863 2.3231-.8619 4.159-.8266 5.5075.1077 1.5236.5947 2.2547 1.4611 2.1935 1.6131-.1141 4.0854-2.0902 7.4168-5.9284 4.1604-4.8576 9.3714-12.4615 15.6354-22.8117.278-.3199.476-.484.596-.4925.179-.0127.275.0706.287.2499.017.2389-.054.4992-.215.7807-1.879 3.1352-3.493 5.7862-4.841 7.9531-1.35 2.137-3.035 4.6428-5.053 7.5176-1.989 2.8726-3.8693 5.3623-5.6418 7.4691-1.0549 1.2155-1.9176 2.1771-2.5881 2.885s-1.548 1.4605-2.6325 2.2577c-1.1123.8292-2.0717 1.2723-2.8783 1.3293-1.8522.131-2.8711-1.118-3.057-3.7469l-.038-.5377c-.035-1.7688.1808-3.6005.6473-5.4948.1286-.7297.6838-2.8555 1.6658-6.3775 1.3365-4.0275 2.3681-6.8475 3.0947-8.46l2.289-5.2056.7532-1.4493c-.1599-.1389-.2431-.2531-.2494-.3427-.0021-.0299.0662-.1248.205-.2847.583-.6717 1.0198-1.288 1.3104-1.8489 3.4401-6.548 7.4997-12.6143 12.1787-18.1991.638-.7356 1.256-1.1246 1.854-1.1668.388-.0275.595.138.62.4965.015.2091-.114.7136-.388 1.5136zm16.943 20.5086c-5.619 4.1801-10.19 6.83-13.713 7.9497-1.588.4725-2.591.7236-3.009.7532-1.763.1246-2.7-.6048-2.812-2.1881-.047-.6572.055-1.3399.305-2.0481-.064-.0555-.102-.1729-.115-.3521-.008-.1195.016-.2113.071-.2752l.275.0706c.197-.6144.632-1.4708 1.305-2.5691 1.512-2.3887 2.97-3.6326 4.374-3.7319.359-.0253.6-.0123.724.039.699.1306 1.076.5694 1.129 1.3162.016.239-.091.6369-.321 1.1936-.765 1.4952-2.202 2.8277-4.311 3.9975-.487.3347-.782.6257-.884.8731-.028.032-.055.0789-.08.1408l-.308.7423c-.094.3669-.137.6101-.129.7296.045.6274.59.9041 1.635.8302.508-.0359 1.204-.1752 2.087-.4178 3.317-1.0751 7.774-3.6418 13.371-7.7003.231-.1364.391-.2078.481-.2141.179-.0127.275.0706.287.2498.022.2988-.099.5025-.362.6111zm-2.169 1.7746c-.279-.5507-.442-1.1547-.488-1.8119-.06-.8364.246-1.6086.917-2.3165.668-.7378 1.405-1.1352 2.212-1.1922.687-.0486 1.048.1661 1.081.6441.032.4481-.33 1.0591-1.086 1.8331l-.935.7867c.036.5078.37 1.4149 1.003 2.7212.209.4055.477.5967.806.5735.179-.0127.326-.0531.442-.1213 2.745-1.0948 6.017-2.587 9.816-4.4768.23-.1364.405-.2088.525-.2173.269-.019.41.0611.422.2404.019.2688-.159.5066-.535.7133-3.626 1.7875-6.929 3.267-9.909 4.4383-.725.3515-1.07.7812-1.034 1.2891.065.9261-.489 1.7909-1.663 2.5944-1.177.7737-2.332 1.2006-3.468 1.2809-.388.0275-.726-.0837-1.014-.3336-.29-.2797-.447-.5988-.473-.9573-.036-.5079.318-1.0282 1.061-1.5611s1.552-.9804 2.427-1.3425c.467-.1831.688-.4539.663-.8124-.015-.2091-.076-.43-.182-.6627-.077-.2347-.184-.4823-.323-.7427-.14-.2903-.229-.4792-.265-.5667zm-.304 3.9844c-.115.0682-.456.3475-1.021.8378l-.417.4798c.06-.0042.263-.1086.608-.3132l.98-.7898.414-.5246zm12.539-4.8494c-.279-.5507-.442-1.1546-.489-1.8118-.059-.8365.247-1.6087.918-2.3166.668-.7377 1.405-1.1351 2.212-1.1921.687-.0486 1.048.1661 1.081.6441.032.4481-.33 1.0591-1.086 1.8331l-.935.7866c.036.5079.37 1.4149 1.003 2.7212.209.4056.477.5968.806.5735.179-.0126.326-.0531.442-.1213 2.744-1.0947 6.017-2.587 9.816-4.4768.23-.1364.405-.2088.525-.2172.269-.019.41.0611.422.2403.019.2689-.159.5067-.535.7134-3.626 1.7875-6.929 3.2669-9.909 4.4383-.725.3515-1.07.7812-1.034 1.289.065.9261-.489 1.7909-1.663 2.5945-1.177.7737-2.332 1.2006-3.468 1.2809-.388.0274-.726-.0838-1.014-.3336-.29-.2798-.448-.5989-.473-.9573-.036-.5079.318-1.0283 1.061-1.5611.743-.5329 1.552-.9804 2.427-1.3425.467-.1832.688-.454.663-.8125-.015-.2091-.076-.4299-.182-.6626-.077-.2348-.184-.4824-.323-.7428-.141-.2902-.229-.4791-.265-.5667zm-.304 3.9845c-.115.0682-.456.3475-1.022.8378l-.416.4798c.06-.0042.263-.1086.608-.3132l.98-.7898.414-.5246z" fill="#181818"></path></svg>