<svg xmlns="http://www.w3.org/2000/svg" xmlns:xlink="http://www.w3.org/1999/xlink" id="Layer_1" x="0px" y="0px" viewBox="0 0 115 112" style="enable-background:new 0 0 115 112;" xml:space="preserve">
<style type="text/css">
	.st0{fill-rule:evenodd;clip-rule:evenodd;fill:#181818;}
</style>
<path class="st0" d="M44.1,2.5c2.9-0.9,7.1-1.8,12.4-1.8c5.4,0,9.4,0.9,12.2,1.9C70,3,71,3.4,71.7,3.8c0.3,0.2,0.6,0.3,0.8,0.4  c0.1,0.1,0.2,0.1,0.2,0.1c0,0,0,0,0.1,0l0,0l0,0l0,0l0,0c0,0,0,0-0.6,0.8l0.6-0.8c0.3,0.2,0.4,0.5,0.4,0.8c0,0.2,0,0.5,0,0.9  c0,0.5,0,1.1,0,1.7c0,1.2,0,2.2,0,2.5l0,0c0.7,7.6,5.6,13.2,12.6,17.5c7,4.3,15.9,7.2,24.1,9.3c0.5,0.1,0.8,0.6,0.7,1.1  C109,57.9,98.4,75.9,86.9,88.9c-5.8,6.5-11.8,11.9-17,15.6c-2.6,1.9-5.1,3.3-7.3,4.3c-2.2,1-4.1,1.6-5.7,1.6h0  c-1.6,0-3.6-0.6-5.7-1.5c-2.2-1-4.6-2.5-7.2-4.3c-5.2-3.7-11.1-9.1-16.7-15.7C16,75.7,5.7,57.6,4,37.8c0-0.5,0.3-0.9,0.7-1  c7.9-2.3,16.3-5.3,22.8-9.6C34,22.9,38.6,17.4,39.1,10l0,0c0-0.2,0-1.2,0-2.3c0-0.6,0-1.2,0-1.6c0-0.4,0-0.7,0-0.8  c0-0.3,0.2-0.7,0.5-0.9l0.5,0.9c-0.5-0.9-0.5-0.9-0.5-0.9l0,0l0,0l0,0c0,0,0,0,0.1,0c0.1,0,0.1-0.1,0.2-0.1c0.2-0.1,0.5-0.3,0.9-0.4  C41.5,3.4,42.6,2.9,44.1,2.5z M41.1,5.8c0,0.1,0,0.1,0,0.2c0,0.5,0,1,0,1.7c0,1,0,2.2,0,2.5c-0.6,8.3-5.7,14.3-12.5,18.7  c-6.6,4.3-14.8,7.3-22.6,9.6c1.9,18.9,11.8,36.3,22.7,49.1c5.5,6.5,11.3,11.7,16.3,15.3c2.5,1.8,4.8,3.2,6.9,4.1  c2,0.9,3.7,1.4,4.8,1.4c1.2,0,2.8-0.5,4.9-1.4c2-0.9,4.4-2.3,7-4.1c5.1-3.6,11-8.8,16.7-15.3c11.2-12.7,21.4-29.9,23.3-48.7  c-8.1-2.1-16.8-5-23.8-9.3C77.6,25.1,72,19,71.3,10.5c0-0.4,0-1.6,0-2.7c0-0.6,0-1.2,0-1.7c0-0.1,0-0.2,0-0.3  c-0.1-0.1-0.3-0.1-0.4-0.2c-0.6-0.3-1.6-0.7-2.8-1.2c-2.5-0.9-6.4-1.7-11.5-1.7c-5.2,0-9.1,0.9-11.8,1.7c-1.3,0.4-2.4,0.9-3,1.2  C41.4,5.7,41.3,5.7,41.1,5.8z"></path>
<path class="st0" d="M22.8,30.4c0.5-0.3,1.1-0.1,1.4,0.4c4.8,8.4,13,14.8,20.1,19c3.5,2.1,6.8,3.7,9.1,4.8c1.2,0.5,2.1,0.9,2.8,1.2  c0.3,0.1,0.5,0.2,0.7,0.3c0.2-0.1,0.4-0.2,0.6-0.3c0.6-0.3,1.6-0.7,2.7-1.2c2.3-1.1,5.5-2.7,9-4.8c7-4.2,15.2-10.5,20.1-18.6  c0.3-0.5,0.9-0.6,1.4-0.3c0.5,0.3,0.6,0.9,0.3,1.4c-5.1,8.6-13.6,15-20.7,19.3c-3.6,2.2-6.8,3.8-9.2,4.9c-1.2,0.5-2.1,1-2.8,1.2  c-0.3,0.1-0.6,0.2-0.8,0.3c-0.1,0-0.2,0.1-0.2,0.1l-0.1,0l0,0l0,0l0,0c0,0,0,0-0.3-0.9c-0.3,0.9-0.3,0.9-0.3,0.9l0,0l0,0l0,0l-0.1,0  c0,0-0.1,0-0.2-0.1c-0.2-0.1-0.4-0.2-0.8-0.3c-0.7-0.3-1.7-0.7-2.9-1.2c-2.4-1.1-5.7-2.7-9.3-4.9C36,47.2,27.4,40.7,22.4,31.8  C22.1,31.3,22.3,30.7,22.8,30.4z M56.8,57.1l-0.3,0.9c0.2,0.1,0.5,0.1,0.7,0L56.8,57.1z"></path>
<path class="st0" d="M56.7,62.9c0.4,0,0.7,0.2,0.9,0.6l9.2,18.4c0.2,0.4,0.1,0.9-0.2,1.2l-9.2,8.8c-0.4,0.4-1,0.4-1.4,0l-9.3-8.8  c-0.3-0.3-0.4-0.8-0.2-1.2l9.3-18.4C56,63.1,56.3,62.9,56.7,62.9z M48.7,82.1l8,7.7l8-7.7l-8-16L48.7,82.1z"></path>
<path class="st0" d="M42.7,57c0.6,0,1,0.4,1,1v5.9c0,0.6-0.4,1-1,1s-1-0.4-1-1V58C41.7,57.4,42.1,57,42.7,57z"></path>
<path class="st0" d="M70.7,57c0.6,0,1,0.4,1,1v5.9c0,0.6-0.4,1-1,1s-1-0.4-1-1V58C69.7,57.4,70.2,57,70.7,57z"></path>
<path class="st0" d="M30.9,48.4c0.6,0,1,0.4,1,1v5.9c0,0.6-0.4,1-1,1c-0.6,0-1-0.4-1-1v-5.9C29.9,48.8,30.4,48.4,30.9,48.4z"></path>
<path class="st0" d="M82.5,48.4c0.6,0,1,0.4,1,1v5.9c0,0.6-0.4,1-1,1s-1-0.4-1-1v-5.9C81.5,48.8,82,48.4,82.5,48.4z"></path>
</svg>