<svg xmlns="http://www.w3.org/2000/svg" xmlns:xlink="http://www.w3.org/1999/xlink" id="Layer_1" x="0px" y="0px" viewBox="0 0 103 112" style="enable-background:new 0 0 103 112;" xml:space="preserve">
<style type="text/css">
	.st0{fill-rule:evenodd;clip-rule:evenodd;fill:#181818;}
</style>
<path class="st0" d="M25,9.8c0.4,0.4,0.4,1,0,1.4L6.9,29.3c-2,2-3,4.8-3.1,8.4c-0.1,3.6,0.8,7.8,2.6,12.4c3.6,9.3,10.7,20,20.6,29.8  c9.9,9.9,20.6,17,29.8,20.6c4.6,1.8,8.9,2.7,12.4,2.6c3.6-0.1,6.4-1.1,8.4-3.1l18.1-18.1c0.4-0.4,1-0.4,1.4,0c0.4,0.4,0.4,1,0,1.4  l-18.1,18.1c-2.4,2.4-5.8,3.6-9.7,3.7c-3.9,0.1-8.4-0.9-13.2-2.7c-9.6-3.7-20.5-11-30.5-21l0,0c-10-10-17.3-21-21-30.5  C2.7,46,1.7,41.5,1.8,37.6c0.1-3.9,1.2-7.3,3.7-9.7L23.6,9.8C24,9.4,24.6,9.4,25,9.8z"></path>
<path class="st0" d="M39.7,8.8C33.2,7.3,28,8.2,25,11.2c-2,2-3,4.8-3.1,8.4c-0.1,3.6,0.8,7.8,2.6,12.4C28,41.3,35.2,52,45,61.9  c9.9,9.9,20.6,17,29.8,20.6c4.6,1.8,8.9,2.7,12.4,2.6c3.6-0.1,6.4-1.1,8.4-3.1c2.7-2.7,3.6-7,2.8-12.5c-0.8-5.5-3.4-12.1-7.6-18.9  l0,0c-1.7-2.8-5.3-3.3-7.9-1l0,0l-8.4,7.2l0,0c-2.6,2.2-3.1,6.3-1.2,9.2l0,0c2.7,4.3,4.9,8.5,6.5,12.5c0.2,0.5-0.1,1.1-0.6,1.3  c-0.5,0.2-1.1-0.1-1.3-0.6c-1.5-3.9-3.6-7.9-6.3-12.1c-2.4-3.7-1.9-8.9,1.5-11.8c0,0,0,0,0,0l8.4-7.2c0,0,0,0,0,0  c3.4-3,8.5-2.4,10.9,1.5c4.2,7,7,13.8,7.9,19.6c0.9,5.8,0,10.9-3.4,14.3c-2.4,2.4-5.8,3.6-9.7,3.7c-3.9,0.1-8.4-0.9-13.2-2.7  c-9.6-3.7-20.5-11-30.5-21l0,0c-10-10-17.3-21-21-30.5c-1.8-4.8-2.8-9.3-2.7-13.2c0.1-3.9,1.2-7.3,3.7-9.7c3.8-3.8,9.8-4.5,16.6-2.9  C47.1,8.4,55,12.3,63,18l0,0c3.7,2.7,4.1,7.8,1.2,11.2l0,0l-7.3,8.5c0,0,0,0,0,0c-3,3.4-8.1,3.7-11.6,1.1  c-5.7-4.2-11.4-7.5-16.7-9.6c-0.5-0.2-0.8-0.8-0.6-1.3c0.2-0.5,0.8-0.8,1.3-0.6c5.5,2.2,11.3,5.6,17.1,9.9l0,0  c2.8,2.1,6.7,1.8,8.9-0.8l0,0l7.3-8.5c2.2-2.6,1.9-6.3-0.8-8.3C54,14,46.3,10.3,39.7,8.8z"></path>
</svg>