<svg xmlns="http://www.w3.org/2000/svg" xmlns:xlink="http://www.w3.org/1999/xlink" id="Layer_1" x="0px" y="0px" viewBox="0 0 129 112" style="enable-background:new 0 0 129 112;" xml:space="preserve">
<style type="text/css">
	.st0{fill-rule:evenodd;clip-rule:evenodd;fill:#181818;}
</style>
<path class="st0" d="M7.8,74.7c-3,2.1-4.4,4.3-4.4,6.3c0,1.6,0.9,3.3,2.8,5.1c1.9,1.7,4.8,3.4,8.6,4.9c7.5,3,18,5.3,30.4,6.5  c0.5,0.1,1,0.5,0.9,1.1c-0.1,0.5-0.5,1-1.1,0.9c-12.4-1.2-23.2-3.5-30.9-6.6c-3.8-1.5-7-3.3-9.2-5.2c-2.2-1.9-3.5-4.1-3.5-6.6  c0-3,2.1-5.7,5.3-7.9c3.2-2.3,7.9-4.3,13.5-5.9c11.3-3.3,26.8-5.4,44-5.4s32.7,2.1,44,5.4c5.6,1.7,10.3,3.7,13.5,5.9  c3.2,2.3,5.3,4.9,5.3,7.9c0,2.4-1.3,4.6-3.5,6.6c-2.2,1.9-5.3,3.7-9.2,5.2c-7.7,3.1-18.5,5.4-30.9,6.6c-0.5,0.1-1-0.4-1.1-0.9  c-0.1-0.5,0.4-1,0.9-1.1c12.3-1.2,22.9-3.5,30.4-6.5c3.7-1.5,6.6-3.1,8.6-4.9c2-1.7,2.8-3.4,2.8-5.1c0-2-1.4-4.2-4.4-6.3  c-3-2.1-7.4-4-12.9-5.7c-11.1-3.3-26.4-5.3-43.4-5.3s-32.3,2-43.4,5.3C15.2,70.7,10.8,72.6,7.8,74.7z"></path>
<path class="st0" d="M64.7,12.1l-0.6,0.8l-0.6-0.8C63.8,11.8,64.3,11.8,64.7,12.1z M80.6,38.7c-1.4-8.2-5.2-14.6-8.6-19.1  c-1.9-2.4-3.7-4.3-5-5.6c-0.7-0.6-1.2-1.1-1.6-1.4c-0.2-0.2-0.3-0.3-0.5-0.4c-0.1,0-0.1-0.1-0.1-0.1l0,0l0,0l0,0l0,0  c0,0,0,0-0.6,0.8c-0.6-0.8-0.6-0.8-0.6-0.8l0,0l0,0l0,0l0,0c0,0-0.1,0.1-0.1,0.1c-0.1,0.1-0.3,0.2-0.5,0.4c-0.4,0.3-0.9,0.8-1.6,1.4  c-1.3,1.3-3.2,3.1-5,5.6c-3.5,4.5-7.2,11-8.6,19.2c-2.5-2.2-5.7-3.6-9.2-3.6c-8.2,0-14.6,7.3-14.6,16c0,0.5,0,1,0.1,1.5  c-0.5-0.1-1.1-0.1-1.6-0.1c-7.1,0-12.7,6.3-12.7,13.9c0,1.4,0.2,2.8,0.5,4c0.1,0.5,0.7,0.8,1.2,0.7c0.5-0.1,0.8-0.7,0.7-1.2  c-0.3-1.1-0.5-2.3-0.5-3.5c0-6.7,4.9-11.9,10.7-11.9c0.9,0,1.7,0.1,2.5,0.3c0.3,0.1,0.7,0,0.9-0.2c0.3-0.2,0.4-0.6,0.3-0.9  c-0.1-0.8-0.2-1.7-0.2-2.6c0-7.8,5.7-14,12.6-14c3.6,0,6.8,1.7,9.1,4.4c0.3,0.3,0.7,0.4,1,0.3c0.4-0.1,0.7-0.4,0.7-0.8  c1.1-8.7,4.9-15.5,8.5-20.2c1.8-2.3,3.5-4.1,4.8-5.3c0.6-0.6,1.1-1,1.5-1.3c0.4,0.3,0.9,0.7,1.5,1.3c1.3,1.2,3,3,4.8,5.4  c3.6,4.7,7.5,11.5,8.5,20.2c0,0.4,0.3,0.7,0.7,0.8c0.4,0.1,0.8,0,1-0.3c2.3-2.7,5.6-4.4,9.1-4.4c6.9,0,12.6,6.2,12.6,14  c0,0.9-0.1,1.7-0.2,2.6c-0.1,0.3,0.1,0.7,0.3,0.9c0.3,0.2,0.6,0.3,0.9,0.2c0.8-0.2,1.7-0.3,2.5-0.3c5.9,0,10.7,5.2,10.7,11.9  c0,1.1-0.1,2.2-0.4,3.2c-0.1,0.5,0.2,1.1,0.7,1.2c0.5,0.1,1.1-0.2,1.2-0.7c0.3-1.2,0.4-2.4,0.4-3.6c0-7.6-5.6-13.9-12.7-13.9  c-0.5,0-1.1,0-1.6,0.1c0-0.5,0.1-1,0.1-1.5c0-8.8-6.4-16-14.6-16C86.3,35.1,83.1,36.5,80.6,38.7z"></path>
<path class="st0" d="M64.1,25c0.4,0,0.7,0.2,0.9,0.5L72.3,39c0.2,0.3,0.2,0.7,0,1L65,53.5c-0.2,0.3-0.5,0.5-0.9,0.5  c-0.4,0-0.7-0.2-0.9-0.5L55.9,40c-0.2-0.3-0.2-0.7,0-1l7.3-13.5C63.4,25.2,63.8,25,64.1,25z M57.9,39.5l6.2,11.4l6.2-11.4l-6.2-11.4  L57.9,39.5z"></path>
<path class="st0" d="M38.9,46.2c-2.1,0-4,1.9-4,4.5c0,2.6,1.9,4.5,4,4.5c2.1,0,4-1.9,4-4.5C42.9,48.2,41,46.3,38.9,46.2z M32.9,50.7  c0-3.5,2.6-6.5,6-6.5h0v0c3.4,0,6,3,6,6.5c0,3.5-2.6,6.5-6,6.5C35.5,57.2,32.9,54.2,32.9,50.7z"></path>
<path class="st0" d="M89.3,46.2c-2.1,0-4,1.9-4,4.5c0,2.6,1.9,4.5,4,4.5c2.1,0,4-1.9,4-4.5C93.3,48.2,91.5,46.3,89.3,46.2z   M83.4,50.7c0-3.5,2.6-6.5,6-6.5h0v0c3.4,0,6,3,6,6.5c0,3.5-2.6,6.5-6,6.5C85.9,57.2,83.4,54.2,83.4,50.7z"></path>
<path class="st0" d="M64.1,71.2c-22.3,0-41.8,3.7-53,9.3c-0.5,0.2-1.1,0-1.3-0.5c-0.2-0.5,0-1.1,0.5-1.3c11.6-5.8,31.5-9.5,53.9-9.5  c23.6,0,44.4,4.2,55.8,10.5c0.5,0.3,0.7,0.9,0.4,1.4c-0.3,0.5-0.9,0.7-1.4,0.4C108,75.4,87.6,71.2,64.1,71.2z"></path>
</svg>