<svg xmlns="http://www.w3.org/2000/svg" xmlns:xlink="http://www.w3.org/1999/xlink" id="Layer_1" x="0px" y="0px" viewBox="0 0 99 112" style="enable-background:new 0 0 99 112;" xml:space="preserve">
<style type="text/css">
	.st0{fill-rule:evenodd;clip-rule:evenodd;fill:#181818;}
</style>
<path class="st0" d="M25.3,75c0.6,0,1,0.4,1,1v3.3h3.5c0.6,0,1,0.4,1,1s-0.4,1-1,1h-4.5l0-1h-1V76C24.3,75.5,24.8,75,25.3,75z   M25.3,80.3h-1c0,0.6,0.4,1,1,1L25.3,80.3z"></path>
<path class="st0" d="M25.3,58.2v1h-1C24.3,58.7,24.8,58.2,25.3,58.2z M26.3,60.2v3.5c0,0.6-0.4,1-1,1s-1-0.4-1-1v-4.5h1v-1h4.5  c0.6,0,1,0.4,1,1s-0.4,1-1,1H26.3z"></path>
<path class="st0" d="M40.4,59.2c0-0.6,0.4-1,1-1h4.9l0,1h1v4.5c0,0.6-0.4,1-1,1c-0.6,0-1-0.4-1-1v-3.5h-3.9  C40.9,60.2,40.4,59.8,40.4,59.2z M46.3,59.2h1c0-0.6-0.4-1-1-1L46.3,59.2z"></path>
<path class="st0" d="M46.3,75c0.6,0,1,0.4,1,1v4.2l-1,0l0,1h-4.9c-0.6,0-1-0.4-1-1s0.4-1,1-1h3.9V76C45.3,75.5,45.8,75,46.3,75z   M46.3,80.3l0,1c0.6,0,1-0.4,1-1L46.3,80.3z"></path>
<path class="st0" d="M24.3,69.8c0-0.6,0.4-1,1-1h3.6c0.6,0,1,0.4,1,1c0,0.6-0.4,1-1,1h-3.6C24.8,70.8,24.3,70.3,24.3,69.8z"></path>
<path class="st0" d="M41.8,69.8c0-0.6,0.4-1,1-1h3.6c0.6,0,1,0.4,1,1c0,0.6-0.4,1-1,1h-3.6C42.2,70.8,41.8,70.3,41.8,69.8z"></path>
<path class="st0" d="M35.8,58.2c0.6,0,1,0.4,1,1v3.6c0,0.6-0.4,1-1,1c-0.6,0-1-0.4-1-1v-3.6C34.8,58.7,35.3,58.2,35.8,58.2z"></path>
<path class="st0" d="M35.8,75.7c0.6,0,1,0.4,1,1v3.6c0,0.6-0.4,1-1,1c-0.6,0-1-0.4-1-1v-3.6C34.8,76.2,35.3,75.7,35.8,75.7z"></path>
<path class="st0" d="M38.7,12.7c9.5,4.4,20.6,12.5,31.1,23c10.5,10.5,18.6,21.6,23,31.1c2.2,4.7,3.6,9.1,3.9,12.8  c0.3,3.7-0.5,6.9-2.6,9.1c-1.8,1.8-4.3,2.6-7.2,2.7c-2.9,0.1-6.3-0.6-10-2c-7.4-2.7-16.1-7.9-25-15.2c-0.4-0.3-0.5-1-0.1-1.4  c0.3-0.4,1-0.5,1.4-0.1c8.7,7.1,17.3,12.3,24.4,14.8c3.5,1.3,6.7,1.9,9.3,1.9c2.6-0.1,4.5-0.8,5.9-2.1c1.6-1.6,2.3-4.1,2.1-7.5  c-0.3-3.4-1.5-7.5-3.7-12.1c-4.3-9.2-12.2-20.1-22.6-30.5l0,0C58,26.7,47.1,18.9,37.9,14.5c-4.6-2.2-8.7-3.4-12.1-3.7  c-3.4-0.3-5.9,0.5-7.5,2.1l0,0c-1.3,1.3-2.1,3.3-2.1,5.9c0,2.6,0.6,5.7,1.9,9.3c2.6,7.1,7.8,15.7,14.9,24.5c0.3,0.4,0.3,1.1-0.1,1.4  c-0.4,0.3-1.1,0.3-1.4-0.1C24.1,45,18.8,36.2,16.1,28.8c-1.3-3.7-2.1-7.1-2-10c0.1-2.9,0.9-5.5,2.7-7.3c2.2-2.2,5.4-2.9,9.1-2.6  C29.6,9.1,34,10.5,38.7,12.7z"></path>
<path class="st0" d="M18.3,11.5c0.4,0.4,0.4,1,0,1.4L6.1,25.1c-1.3,1.3-2,3.2-2.1,5.7c-0.1,2.5,0.5,5.6,1.7,9  c2.4,6.9,7.4,15.3,14.2,23.9c0.3,0.4,0.3,1.1-0.2,1.4c-0.4,0.3-1.1,0.3-1.4-0.2c-7-8.7-12-17.2-14.6-24.4c-1.3-3.6-1.9-6.9-1.8-9.8  c0.1-2.9,0.9-5.3,2.7-7.1c0,0,0,0,0,0l12.2-12.2C17.2,11.1,17.9,11.1,18.3,11.5z"></path>
<path class="st0" d="M40.6,85.9c0.3-0.4,1-0.5,1.4-0.2c8.6,6.9,16.9,11.7,23.8,14.2c3.5,1.2,6.5,1.8,9,1.7c2.5-0.1,4.4-0.8,5.7-2.1  l12.2-12.2c0.4-0.4,1-0.4,1.4,0c0.4,0.4,0.4,1,0,1.4l-12.2,12.2c-1.8,1.8-4.2,2.6-7.1,2.7c-2.8,0.1-6.1-0.6-9.7-1.8  c-7.2-2.5-15.7-7.6-24.4-14.5C40.3,87,40.2,86.3,40.6,85.9z"></path>
<path class="st0" d="M21.2,23.9c0.2-0.5,0.8-0.8,1.3-0.6C32.8,27.1,45.7,36,57.9,48.1l0,0c11.9,11.9,20.6,24.6,24.6,34.8  c0.2,0.5-0.1,1.1-0.6,1.3c-0.5,0.2-1.1-0.1-1.3-0.6c-3.8-9.9-12.4-22.3-24.1-34.1C44.4,37.5,31.7,28.9,21.8,25.2  C21.3,25,21,24.4,21.2,23.9z"></path>
</svg>