<svg xmlns="http://www.w3.org/2000/svg" xmlns:xlink="http://www.w3.org/1999/xlink" id="Layer_1" x="0px" y="0px" viewBox="0 0 79 112" style="enable-background:new 0 0 79 112;" xml:space="preserve">
<style type="text/css">
	.st0{fill-rule:evenodd;clip-rule:evenodd;fill:#181818;}
</style>
<path class="st0" d="M20.7,51.3c0.4-0.3,1.1-0.3,1.4,0.2c2.3,2.9,5.4,7.1,7.9,11.9c2.5,4.7,4.5,10,4.5,14.8  c0,9.1-7.3,16.4-16.4,16.4C9,94.5,1.7,87.2,1.7,78.1c0-3.9,1.3-8,3.1-12c1.8-3.9,4.2-7.7,6.4-10.8c0.3-0.5,0.9-0.6,1.4-0.2  c0.5,0.3,0.6,0.9,0.2,1.4c-2.1,3-4.4,6.7-6.2,10.5c-1.8,3.8-3,7.7-3,11.1c0,8,6.4,14.4,14.4,14.4s14.4-6.4,14.4-14.4  c0-4.4-1.8-9.3-4.3-13.9c-2.4-4.6-5.5-8.7-7.7-11.6C20.2,52.2,20.2,51.6,20.7,51.3z"></path>
<path class="st0" d="M18.1,39.5c-3.3,0-6,2.7-6,6c0,3.3,2.7,6,6,6c3.3,0,6-2.7,6-6C24.1,42.2,21.4,39.5,18.1,39.5z M10.1,45.6  c0-4.4,3.6-8,8-8c4.4,0,8,3.6,8,8c0,4.4-3.6,8-8,8C13.7,53.6,10.1,50,10.1,45.6z"></path>
<path class="st0" d="M25.7,76.1c0.6,0,1,0.5,0.9,1.1c-0.2,3.8-2.5,7-5.7,8.6c-0.5,0.2-1.1,0-1.3-0.4s0-1.1,0.4-1.3  c2.6-1.3,4.4-3.9,4.6-7C24.7,76.5,25.2,76.1,25.7,76.1z"></path>
<path class="st0" d="M16.4,3.7c-1,0.7-1.8,1.9-2.2,3.9l0,0C14,8.2,14,9,13.9,10c0,0,0,0.1,0,0.1c-0.1,1-0.1,2.1-0.3,3.2  c-0.2,1.1-0.5,2.1-1.2,3c-0.7,0.9-1.7,1.5-3.1,1.5c-0.6,0-1-0.4-1-1c0-0.6,0.4-1,1-1c0.8,0,1.2-0.3,1.6-0.8c0.4-0.5,0.6-1.2,0.8-2.1  c0.2-0.9,0.2-1.9,0.3-2.9c0-0.1,0-0.1,0-0.2C12,8.8,12,7.9,12.2,7.2c0.5-2.4,1.6-4.1,3-5.1c1.5-1,3.2-1.4,4.8-1l0,0  c3.1,0.6,4.9,3.1,5.2,6c0.2,2.8-1,6-3.9,8.4l0,0c-1.6,1.3-2.5,2.9-2.5,4.8l0,0v3.1c0,0.6-0.4,1-1,1c-0.6,0-1-0.4-1-1v-3.1  c-0.1-2.7,1.3-4.8,3.2-6.3c2.4-2,3.3-4.6,3.2-6.7c-0.2-2.1-1.4-3.7-3.6-4.2C18.5,2.8,17.4,3,16.4,3.7z"></path>
<path class="st0" d="M18.1,25c-2.1,0-3.8,1.7-3.8,3.8s1.7,3.8,3.8,3.8s3.8-1.7,3.8-3.8S20.2,25,18.1,25z M12.3,28.8  c0-3.2,2.6-5.8,5.8-5.8c3.2,0,5.8,2.6,5.8,5.8c0,3.2-2.6,5.8-5.8,5.8S12.3,32,12.3,28.8z"></path>
<path class="st0" d="M63.2,67.1c0.4-0.3,1.1-0.3,1.4,0.2c2.3,2.9,5.4,7.1,7.9,11.9c2.5,4.7,4.5,10,4.5,14.8  c0,9.1-7.3,16.4-16.4,16.4S44.2,103,44.2,93.9c0-3.9,1.3-8,3.1-12c1.8-3.9,4.2-7.7,6.4-10.8c0.3-0.5,0.9-0.6,1.4-0.2  c0.5,0.3,0.6,0.9,0.2,1.4c-2.1,3-4.4,6.7-6.2,10.5c-1.8,3.8-3,7.7-3,11.1c0,8,6.4,14.4,14.4,14.4S75,101.9,75,93.9  c0-4.4-1.8-9.3-4.3-13.9c-2.4-4.6-5.5-8.7-7.7-11.6C62.7,68,62.8,67.4,63.2,67.1z"></path>
<path class="st0" d="M60.6,55.3c-3.3,0-6,2.7-6,6c0,3.3,2.7,6,6,6c3.3,0,6-2.7,6-6C66.6,58,63.9,55.3,60.6,55.3z M52.6,61.3  c0-4.4,3.6-8,8-8c4.4,0,8,3.6,8,8c0,4.4-3.6,8-8,8C56.2,69.4,52.6,65.8,52.6,61.3z"></path>
<path class="st0" d="M68.3,92c0.6,0,1,0.5,0.9,1.1c-0.2,3.8-2.5,7-5.7,8.6c-0.5,0.2-1.1,0-1.3-0.4c-0.2-0.5,0-1.1,0.4-1.3  c2.6-1.3,4.4-3.9,4.6-7C67.3,92.3,67.7,91.9,68.3,92z"></path>
<path class="st0" d="M58.9,19.5c-1,0.7-1.8,1.9-2.2,3.9l0,0c-0.1,0.6-0.2,1.4-0.2,2.4c0,0,0,0.1,0,0.1c-0.1,1-0.1,2.1-0.3,3.2  c-0.2,1.1-0.5,2.1-1.2,3c-0.7,0.9-1.7,1.5-3.1,1.5c-0.6,0-1-0.4-1-1s0.4-1,1-1c0.8,0,1.2-0.3,1.6-0.8c0.4-0.5,0.6-1.2,0.8-2.1  c0.2-0.9,0.2-1.9,0.3-2.9c0-0.1,0-0.1,0-0.2c0.1-0.9,0.1-1.9,0.3-2.6c0.5-2.4,1.6-4.1,3-5.1c1.5-1,3.2-1.4,4.8-1l0,0  c3.1,0.6,4.9,3.1,5.2,6c0.2,2.8-1,6-3.9,8.4l0,0c-1.6,1.3-2.5,2.9-2.5,4.8l0,0v3.1c0,0.6-0.4,1-1,1c-0.6,0-1-0.4-1-1V36  c-0.1-2.7,1.3-4.8,3.2-6.3c2.4-2,3.3-4.6,3.2-6.7c-0.2-2.1-1.4-3.7-3.6-4.2C61.1,18.6,59.9,18.8,58.9,19.5z"></path>
<path class="st0" d="M64.4,44.6c0-2.1-1.7-3.8-3.8-3.8l0,0v0c-2.1,0-3.8,1.7-3.8,3.8s1.7,3.8,3.8,3.8S64.4,46.7,64.4,44.6z   M60.6,38.8c3.2,0,5.8,2.6,5.8,5.8c0,3.2-2.6,5.8-5.8,5.8c-3.2,0-5.8-2.6-5.8-5.8C54.8,41.4,57.4,38.8,60.6,38.8z"></path>
</svg>