<svg xmlns="http://www.w3.org/2000/svg" xmlns:xlink="http://www.w3.org/1999/xlink" id="Layer_1" x="0px" y="0px" viewBox="0 0 113 112" style="enable-background:new 0 0 113 112;" xml:space="preserve">
<style type="text/css">
	.st0{fill-rule:evenodd;clip-rule:evenodd;fill:#181818;}
</style>
<path class="st0" d="M55.6,59.7c0.3-0.2,0.7-0.2,1,0l20.9,12.1c0.3,0.2,0.5,0.5,0.5,0.9v24.1c0,0.4-0.2,0.7-0.5,0.9l-20.9,12.1  c-0.3,0.2-0.7,0.2-1,0L34.7,97.6c-0.3-0.2-0.5-0.5-0.5-0.9V72.6c0-0.4,0.2-0.7,0.5-0.9L55.6,59.7z M36.2,73.2v23l19.9,11.5L76,96.2  v-23L56.1,61.7L36.2,73.2z"></path>
<path class="st0" d="M55.6,72.9c0.3-0.2,0.7-0.2,1,0l9.5,5.5c0.3,0.2,0.5,0.5,0.5,0.9v10.9c0,0.4-0.2,0.7-0.5,0.9l-9.5,5.5  c-0.3,0.2-0.7,0.2-1,0L46.1,91c-0.3-0.2-0.5-0.5-0.5-0.9V79.2c0-0.4,0.2-0.7,0.5-0.9L55.6,72.9z M47.6,79.8v9.8l8.5,4.9l8.5-4.9  v-9.8l-8.5-4.9L47.6,79.8z"></path>
<path class="st0" d="M56.1,67.1c0.6,0,1,0.4,1,1v5.6c0,0.6-0.4,1-1,1s-1-0.4-1-1v-5.6C55.1,67.6,55.6,67.1,56.1,67.1z"></path>
<path class="st0" d="M56.1,94.6c0.6,0,1,0.4,1,1v5.6c0,0.6-0.4,1-1,1s-1-0.4-1-1v-5.6C55.1,95.1,55.6,94.6,56.1,94.6z"></path>
<path class="st0" d="M40.9,75.9c0.3-0.5,0.9-0.6,1.4-0.4l4.8,2.8c0.5,0.3,0.6,0.9,0.4,1.4c-0.3,0.5-0.9,0.6-1.4,0.4l-4.8-2.8  C40.8,77,40.7,76.4,40.9,75.9z"></path>
<path class="st0" d="M64.7,89.7c0.3-0.5,0.9-0.6,1.4-0.4l4.8,2.8c0.5,0.3,0.6,0.9,0.4,1.4c-0.3,0.5-0.9,0.6-1.4,0.4L65.1,91  C64.6,90.7,64.5,90.1,64.7,89.7z"></path>
<path class="st0" d="M47.5,89.7c0.3,0.5,0.1,1.1-0.4,1.4l-4.8,2.8c-0.5,0.3-1.1,0.1-1.4-0.4c-0.3-0.5-0.1-1.1,0.4-1.4l4.8-2.8  C46.6,89,47.2,89.2,47.5,89.7z"></path>
<path class="st0" d="M71.3,75.9c0.3,0.5,0.1,1.1-0.4,1.4l-4.8,2.8c-0.5,0.3-1.1,0.1-1.4-0.4c-0.3-0.5-0.1-1.1,0.4-1.4l4.8-2.8  C70.4,75.3,71,75.4,71.3,75.9z"></path>
<path class="st0" d="M56.2,46.4c-3.6,0-6.5,2.9-6.5,6.5c0,3.6,2.9,6.5,6.5,6.5c2.3,0,4.3-1.2,5.5-3c0.3-0.5,0.9-0.6,1.4-0.3  c0.5,0.3,0.6,0.9,0.3,1.4c-1.5,2.4-4.1,3.9-7.2,3.9c-4.7,0-8.5-3.8-8.5-8.5s3.8-8.5,8.5-8.5c0.9,0,1.7,0.1,2.5,0.4  c0.5,0.2,0.8,0.7,0.7,1.3c-0.2,0.5-0.7,0.8-1.3,0.7C57.6,46.5,56.9,46.4,56.2,46.4z"></path>
<path class="st0" d="M5.8,1.5c0.6,0,1,0.4,1,1c0,11.8,5.6,21.3,13.1,28.6c7.5,7.4,16.9,12.6,24.3,16c0.5,0.2,0.7,0.8,0.5,1.3  c-0.2,0.5-0.8,0.7-1.3,0.5c-7.5-3.4-17.1-8.8-24.8-16.4C10.8,24.9,4.8,15,4.8,2.5C4.8,1.9,5.3,1.5,5.8,1.5z"></path>
<path class="st0" d="M106.4,1.5c0.6,0,1,0.4,1,1c0,17.2-11.2,29.5-22.9,37.7c-11.8,8.2-24.3,12.4-27.3,13.3  c-0.5,0.2-1.1-0.1-1.3-0.7c-0.2-0.5,0.1-1.1,0.7-1.3c3-0.9,15.3-5,26.8-13c11.5-8,22.1-19.8,22.1-36.1  C105.4,1.9,105.8,1.5,106.4,1.5z"></path>
</svg>