<svg xmlns="http://www.w3.org/2000/svg" fill="none" height="130" viewBox="0 0 130 130" width="130"><g stroke="#c6ad8a"><path d="m122 70.126-11.779 3.4055c-11.853 3.1094-23.408 2.5912-28.5519 1.2586-5.1438-1.3326-8.7967-2.8133-16.4752-2.2951-7.6785.5183-9.5423 5.8486-12.4497 8.2177-2.9073 2.3691-5.2184.7403-3.951-1.6287 1.2673-2.3691 2.5346-1.4807 1.7891 0-.7454 1.4806-3.0824 3.916-5.3675 9.416-1.9123 4.6029-3.9251 9.4635 0 7 3.9252-2.4635 19.9791-14.7873 19.9791-14.7873s19.7393 17.7873 21.0227 16.2873c1.0964-1.2815-5.2847-19.7711-7.1673-25.1315-.3018-.8593.0092-1.8008.7599-2.3166 4.4628-3.0665 19.1287-13.2425 18.7825-14.3066-.4083-1.2547-25.272 0-25.272 0s-6.8198-25.2453-8.1258-25.2453c-1.3061 0-9.5423 25.2453-9.5423 25.2453s-25.6517-1.2453-25.0483 0c.523 1.0794 15.1502 11.6904 19.0378 14.4981.586.4233.8965 1.1241.7565 1.8333-.259 1.3115-.7678 3.1467-1.6044 4.546-1.4165 2.369-3.9804 1.0264-7.0076 0-4.7856-1.6227-9.467-4.0288-18.7856-7.1227-4.7717-1.5843-11.0718-2.0325-15.2041-1.0939"></path><rect height="129" rx="64.5" width="129" x=".5" y=".5"></rect></g></svg>