<svg xmlns="http://www.w3.org/2000/svg" fill="none" height="130" viewBox="0 0 130 130" width="130"><g stroke="#c6ad8a"><path d="m8.95774 72.9298c8.54226-1.4298 10.04226-1.1435 28.04226-13.4298 17.059-11.6439 25.2808-14.2676 36.4291-11.7318 11.1484 2.5357 16.8015 14.4128 11.5481 22.0291-5.2533 7.6163-20.0999 10.8687-25.5506-.8348-5.4506-11.7035 5.293-16.7185 6.7791-17.0248 1.4861-.3064 12.9662-1.9261 15.0882 9.4293 1.8924 10.1266-13.868 11.6947-16.4826 2.2832-.177-.637-.2252-1.304-.1532-1.9611.5466-4.9911 4.811-13.1305 18.7197-12.2387 3.5514.3527 12.6263 4.0498 20.5142 16.0166 3.442 5.2218 6.395 8.0107 8.77 9.3379 3.552 1.9843 5.441-3.17 1.712-4.7969-.969-.4225-2.092-.6511-3.373-.5504-5.628.4424-17.1024 8.1687-23.6937 10.772-6.5912 2.6033-29.6579 9.3452-49.5305-3.3097-15.8981-10.124-16.5202-10.8333-16.5202-10.8333 4.1276-7.5278 15.202-20.3408 31.7913-25.4361 16.3174-5.0119 36.3224-2.6108 54.6261 11.7758.608.4783 1.158 1.0329 1.644 1.6354l3.871 4.798"></path><rect height="129" rx="64.5" width="129" x=".5" y=".5"></rect></g></svg>