<svg xmlns="http://www.w3.org/2000/svg" fill="none" height="46" viewBox="0 0 46 46" width="46"><path clip-rule="evenodd" d="m23.7884 1.32141c-3.158 0-6.0656.53827-8.7284 1.60901l-.006.00241c-2.666 1.03236-4.9895 2.51919-6.97512 4.46094l-.00368.0036c-1.98307 1.89966-3.53223 4.17673-4.64675 6.83723-1.07113 2.6134-1.61058 5.5127-1.61058 8.7045 0 3.1923.53965 6.1135 1.61227 8.7694 1.07464 2.661 2.58429 4.959 4.52848 6.8995 1.98579 1.9414 4.30958 3.4485 6.97608 4.5212 2.6636 1.031 5.5724 1.5494 8.7316 1.5494 3.3583 0 6.3166-.598 8.8859-1.7807 2.5825-1.2295 4.7414-2.8913 6.4835-4.9852 1.7488-2.1019 3.0618-4.5024 3.9385-7.206.8308-2.6004 1.2336-5.3471 1.206-8.2425h-16.4356v5.093h10.1224l-.161.6248c-.3777 1.4657-.9446 2.8489-1.7006 4.148-.7597 1.3056-1.7096 2.4639-2.8482 3.4738-1.1517 1.0216-2.5121 1.8045-4.0742 2.3522-1.5688.55-3.3359.8202-5.2946.8202-2.8893 0-5.5011-.6695-7.8226-2.0173-2.3182-1.3459-4.1519-3.2191-5.4971-5.61l-.0018-.0033c-1.34926-2.4403-2.01638-5.2473-2.01638-8.4065 0-3.1981.66643-5.9885 2.02008-8.3522l.0014-.0025c1.3859-2.3887 3.24-4.2411 5.5595-5.54599 2.3577-1.34411 4.9467-2.01468 7.7569-2.01468 3.039 0 5.6543.62325 7.8229 1.89562 2.0293 1.16865 3.6493 2.70325 4.8516 4.60175l5.016-3.3368c-1.1782-1.76526-2.5769-3.27059-4.196-4.51903l-.0056-.00429c-1.7422-1.38292-3.7453-2.45283-6.0141-3.20745l-.0025-.00085c-2.2201-.75165-4.7091-1.13127-7.4723-1.13127zm-9.0985.68002c2.7912-1.12194 5.8259-1.680019 9.0985-1.680019 2.8539 0 5.453.392027 7.7917 1.183659 2.3702.78853 4.4772 1.91126 6.3162 3.37042 1.838 1.41777 3.4026 3.14679 4.6938 5.18331l.2619.4131-6.7114 4.4647-.2669-.4593c-1.1348-1.9523-2.7191-3.5156-4.7632-4.69234l-.0036-.00211c-1.9833-1.16411-4.4151-1.75912-7.3185-1.75912-2.6441 0-5.0617.62902-7.2629 1.88411l-.0025.00146c-2.1573 1.2133-3.8849 2.9348-5.1853 5.1756-1.2512 2.1855-1.88718 4.7972-1.88718 7.8542 0 3.0143.63518 5.6498 1.89068 7.9211 1.26 2.2389 2.9675 3.9804 5.1266 5.2339 2.1563 1.2518 4.5922 1.8821 7.3206 1.8821 1.8678 0 3.5201-.2578 4.9637-.7639 1.4502-.5084 2.6951-1.2284 3.7416-2.1566 1.0597-.9399 1.9416-2.0157 2.6474-3.2286.6012-1.0333 1.0751-2.123 1.4218-3.2699h-9.8183v-7.093h18.4139l.0127.487c.0827 3.1801-.3311 6.2015-1.2448 9.0609l-.0007.0021c-.9144 2.8204-2.288 5.3345-4.1213 7.5381-1.8395 2.2111-4.1169 3.961-6.8251 5.2498l-.0057.0027c-2.722 1.2536-5.8281 1.8738-9.3073 1.8738-3.2715 0-6.3051-.5374-9.0955-1.618l-.006-.0023c-2.7862-1.1204-5.22345-2.6994-7.3072-4.7371l-.0036-.0036c-2.04431-2.0399-3.62785-4.4533-4.7511-7.2346-1.12558-2.7871-1.685029-5.8371-1.685029-9.1439s.559419-6.3375 1.686019-9.0855l.00143-.0035c1.16471-2.781 2.7899-5.17402 4.87625-7.17311 2.08395-2.0374 4.52163-3.59604 7.30833-4.67556z" fill="#fff" fill-rule="evenodd"></path></svg>