<svg xmlns="http://www.w3.org/2000/svg" fill="none" height="130" viewBox="0 0 130 130" width="130"><g stroke="#c6ad8a"><path d="m32.699 97.4992 22.4712 4.2958c.7374.155 3.0971.371 6.6366 0 3.5395-.372 24.761-3.0187 34.9293-4.2958.7374-.1161 2.2121-.7662 2.2121-2.438 0-1.6639-.0311-19.391-.0314-29.9105 0-.1021-.0072-.2015-.0249-.3021-.2525-1.4381-.932-2.5644-3.9023-2.2951l-34.6947 2.2762c-.4533.0297-.9999-.0952-1.315.2322-.4622.4804-1.0602 1.7725-1.5975 4.6897-1.0479 5.6888-.9315 28.7924 1.0479 28.5602 1.9793-.2322 1.8629-12.7708 1.5136-16.8343-.3493-4.0634-1.5136-13.003-3.1437-15.325-1.63-2.3219-3.8422-1.9736-6.2872-2.3219-1.9227-.2739-10.7522-1.2432-15.1442-1.7173-.1515-.0163-.2966-.0628-.4489-.0692-.7319-.0308-1.5547 1.1485-1.5547 6.9559 0 6.72-.1741 23.2741-1.1121 25.8131-.136.3683-.4148.0435-.4532-.3473-.3675-3.7351-.731-12.9994-.7309-22.16.0001-8.4106-.1379-16.2299-.0238-19.6289.0126-.3753.0031-.8186.3478-.9676.6633-.2867 2.4108-.5428 6.3126-.4173 5.775.1857 16.9989.6192 21.889.8127l35.8195-2.1047c1.0867-.1548 3.5341.0424 3.5341 2.1047 0 1.8953.1165 5.0795 0 6.3953-.0813.9188.396 1.6154-3.1435 1.6154-3.5181 0-25.7315 1.6058-36.5949 2.4232-.1346.0102-.2625.042-.3976.043-.5724.0042-1.4298-.6053-1.4298-3.1628 0-2.8792.8539-10.8745 1.2808-14.5122.0388-1.0449.7452-3.0418 3.2601-2.6703 3.1436.4644 6.5201 1.3932 6.1708 2.9025-.3493 1.5092-2.6779 2.3219-5.2394 2.0897s-14.9031-3.3668-18.1632-4.9922-5.4723-3.1347-5.5887-3.7151c-.1164-.5805-.4657-2.6703 2.0958-5.5728 2.0492-2.3219 4.7348-4.2182 5.8215-4.8761.3493-.1935 1.4903-.1161 3.2601 1.7415 1.7697 1.8576 5.7051 7.8172 7.4516 10.5649.3492.6966.7683 2.2987-.3494 3.1347-1.3971 1.0448-15.0195 8.4751-17.3481 10.681-2.3287 2.2059-3.9587 5.8049-4.6573 5.8049s.1165-3.2507 1.0479-4.5278 1.5136-2.2059-.5822-2.0898c-2.0957.1161-6.2391 1.326 2.0958-3.7151 7.1023-4.2957 10.3624-3.3669 11.7595-3.0186 2.8332.8901 8.9652 2.7399 10.8281 3.0186 2.3286.3483 5.4723.1161 10.8281-2.7864s10.5952-3.1346 12.2252-3.1346c1.6301 0 3.7258-.2322 2.7944-3.0186-.9315-2.7864-2.7944-7.3142-4.0751-9.1718-.7943-1.152-1.7465-3.0185-5.5887-1.0449-2.5227 1.7415-8.1269 6.3158-10.3623 10.6811"></path><rect height="129" rx="64.5" width="129" x=".5" y=".5"></rect></g></svg>