<svg xmlns="http://www.w3.org/2000/svg" fill="none" height="130" viewBox="0 0 130 130" width="130"><g stroke="#c6ad8a"><path d="m103.7 56.8269-36.5662 43.8401c-.9204 1.104-2.6695.906-3.3196-.376l-18.0798-35.6434c-.0499-.0982-.0902-.1997-.1275-.3034-.7057-1.9625-3.808-6.213-11.1457-8.7288-9.423-3.2308-5.1895.5384-3.5507 1.6154 1.6388 1.0769 7.2379 3.2307 10.1058 3.2307 1.7725 0 2.7896-.2678 3.2656-.4931.2028-.096.3354-.2821.434-.4837 1.4586-2.9805 4.2087-8.7703 4.6309-10.3309.437-1.6153-1.0926-2.5576-1.912-2.8269-2.0029-.7628-6.6642-2.5038-9.2864-3.3654-.9732-.3197-1.663-.501-2.1433-.5934-.6583-.1267-1.2678.3511-1.7118.8534-2.1096 2.3865-5.6519 6.6159-7.2066 9.2977-1.748 3.0154-1.0015 5.4744-.4097 6.327l37.6472 43.4058c.1203.139.2774.267.4308.166 2.101-1.383 12.4724-24.2263 17.504-35.8988 2.185-5.3846 1.3656-5.3846.9559-6.0577-.4097-.673-5.7357-2.2884-22.3966-2.1538-16.661.1346-13.1103 2.5577-12.0178 2.8269 1.0926.2692 9.8327.8077 14.3394.8077 4.5066 0 12.4274-.4038 16.7976-.8077 3.4961-.3231 3.6417-2.4679 3.2774-3.5-1.1835-2.9615-3.7965-9.2346-4.7798-10.6346-.9832-1.4-2.7767-1.6603-3.5505-1.6154-5.6903 0-17.9448 0-21.4407 0-.7287 0-1.3355-.0156-1.8388-.0419-1.2475-.0652-3.3581-.8366-4.539-1.244-1.3986-.4824-3.3169-1.1756-5.64-2.0795-3.9294-1.5289-3.3567-2.5353-2.4736-2.9049.0996-.0417.2002-.0816.296-.1314l7.3671-3.8291c2.6221-1.2923 4.9163-2.1538 6.8283-2.1538h21.4407c1.8775 0 3.822.2202 4.7826.3619.1797.0265.3538.0807.5184.1572l13.9546 6.4809c.956.4038.956 2.7081-8.0573 4.8462-9.7206 2.3058-6.282-1.077 0-2.4232 6.282-1.3461 9.9692.5385 10.5155 1.077.5341.5264 3.8096 4.6562 5.8696 7.9853.093.1503.168.3098.194.4847.194 1.3335-.375 5.4452-11.5262 7.8184-12.0177 2.5577-2.4582-1.9743 2.5947-3.9038 7.2105-2.4769 11.4715-1.2115 9.9695.9423z"></path><rect height="129" rx="64.5" width="129" x=".5" y=".5"></rect></g></svg>