<svg xmlns="http://www.w3.org/2000/svg" width="131" height="130" viewBox="0 0 131 130" fill="none"><path fill-rule="evenodd" clip-rule="evenodd" d="M116.116 57.141H119.951C119.526 57.4681 119.271 57.8688 119.271 58.4171V71.5219C119.271 72.0695 119.537 72.46 119.951 72.7864H116.116C116.529 72.46 116.784 72.0594 116.784 71.5219V58.4164C116.785 57.8681 116.54 57.4675 116.116 57.141ZM27.2286 62.7705C26.602 61.4318 25.9115 60.1139 24.7535 59.1549C23.5213 58.1217 21.9589 57.4998 20.3441 57.4998C16.0523 57.4998 14.129 61.3475 14.129 65.1323C14.129 68.7911 15.9674 72.491 20.1103 72.491C21.7992 72.491 23.4466 71.764 24.4871 70.4455V67.4935C24.4871 66.6923 24.2213 66.1764 23.5947 65.7022H27.9823C27.5147 66.229 27.2286 66.7665 27.2286 67.4935V70.4455C25.2204 72.3015 22.7241 73.4393 19.9513 73.4393C15.054 73.4393 11.0483 69.8655 11.0483 64.8895C11.0483 59.9453 15.0003 56.561 19.8344 56.561C22.841 56.561 25.2734 57.6577 27.2286 59.861V62.7705ZM37.9795 57.141H42.1122C41.5488 57.5518 41.3578 58.0158 41.3578 58.701V68.2637C41.3578 70.8879 44.4596 72.1747 46.7336 72.1747C48.9648 72.1747 51.8756 70.8785 51.8756 68.3163V58.701C51.8756 58.0576 51.7159 57.6152 51.2809 57.141H53.5331C53.0764 57.6051 52.9065 58.0684 52.9065 58.701V68.3163C52.9065 71.7741 48.7956 73.1021 45.948 73.1021C43.0161 73.1021 38.7345 71.8166 38.7345 68.2637V58.701C38.7338 58.0475 38.4681 57.5626 37.9795 57.141ZM79.3687 62.8231C78.8169 61.4419 78.1685 60.2299 77.0315 59.2284C75.8103 58.1527 74.3226 57.4783 72.6766 57.4783C68.4276 57.4783 66.2494 61.1681 66.2494 64.9954C66.2494 68.843 68.5126 72.4802 72.7085 72.4802C75.832 72.4802 78.0632 70.2978 79.3694 67.6722V70.519C77.4264 72.4276 74.9186 73.3975 72.1777 73.3975C67.099 73.3975 63.2958 70.14 63.2958 64.9428C63.2958 59.8934 66.9501 56.5725 71.9331 56.5725C74.695 56.5725 77.3713 57.5214 79.3687 59.4085V62.8231ZM106.013 62.8231C105.461 61.4419 104.812 60.2299 103.676 59.2284C102.455 58.1527 100.967 57.4783 99.3209 57.4783C95.0706 57.4783 92.9033 61.1681 92.9033 64.9954C92.9033 68.843 95.1555 72.4802 99.3528 72.4802C102.476 72.4802 104.717 70.2978 106.014 67.6722V70.519C104.069 72.4276 101.572 73.3975 98.8221 73.3975C93.7433 73.3975 89.9408 70.14 89.9408 64.9428C89.9408 59.8934 93.5951 56.5725 98.5767 56.5725C101.339 56.5725 104.016 57.5214 106.014 59.4085V62.8231H106.013Z" fill="#181818"></path></svg>