<svg width="43" height="62" viewBox="0 0 43 62" fill="none" xmlns="http://www.w3.org/2000/svg">
<path d="M42 30.9962C42 8.78007 41.9801 9.99864 41.9293 9.91478C41.913 9.86304 33.3801 1.08863 33.3511 1.06543C33.304 1.02975 33.2568 1.01191 33.2043 1.00834C32.9686 0.988714 9.85346 1.01012 9.84621 1.00834C9.75738 0.997634 9.65949 1.03689 9.60873 1.0922C9.47821 1.23136 1.06859 9.88446 1.0559 9.93085C0.950755 10.136 1.02689 51.8672 1.02327 51.8957C1.01239 51.9582 1.03233 52.0188 1.06315 52.0723C1.07402 52.108 9.58154 60.8682 9.60873 60.8949C9.74832 61.0466 8.42315 60.9734 29.9303 60.9984C31.3008 61.0002 32.7547 61.0056 33.1318 60.977C33.1372 60.9788 33.1426 60.9823 33.1481 60.9823C33.2043 60.9895 33.255 60.977 33.3058 60.9502C33.3493 60.9378 33.3656 60.9199 33.3855 60.8985C33.6466 60.6202 41.913 52.1241 41.9293 52.0741C41.9819 51.9867 42 53.3498 42 30.9962ZM31.4096 57.2374C30.5177 55.7566 30.7334 56.1134 30.398 55.5586L36.3368 49.4407L38.0843 50.3578C32.0005 56.6273 33.2532 55.3373 31.4096 57.2374ZM4.16667 50.1205L1.57254 51.4818C1.54898 47.2908 1.54898 14.7016 1.57254 10.5125L4.16667 11.8738V50.1205ZM28.6867 8.81041L33.8496 14.1361V47.8564L28.6867 53.1821H14.3057L9.13921 47.8564V14.1361L14.3021 8.81041H28.6867ZM8.80384 48.3096L13.8344 53.4943L12.8899 55.0626L7.16869 49.1677C8.16029 48.6486 7.69078 48.8948 8.80384 48.3096ZM6.99103 13.3564L8.57906 14.1914V47.8011L6.99103 48.6361V13.3564ZM8.80384 13.6829L7.16869 12.8247L12.8899 6.92991L13.8344 8.4964C10.8777 11.5437 12.0343 10.3519 8.80384 13.6829ZM36.0014 48.6361L34.4134 47.8011V14.1914L36.0014 13.3564V48.6361ZM30.1007 6.92991L35.822 12.8247L34.1868 13.6829C31.4295 10.839 32.4429 11.8845 29.1581 8.4964C30.0373 7.03518 29.9303 7.21181 30.1007 6.92991ZM4.72865 12.1682L6.42725 13.062V48.9305L4.72865 49.8243V12.1682ZM29.1581 53.4979C32.4447 50.108 31.4295 51.1553 34.1868 48.3114L35.822 49.1695L30.1007 55.0644C29.9213 54.7646 30.0391 54.9591 29.1581 53.4979ZM38.262 49.8243L36.5634 48.9305V13.062L38.262 12.1682V49.8243ZM38.0843 11.6347L36.3368 12.5518L30.398 6.43393C30.679 5.96648 30.4687 6.31795 31.4096 4.75504C33.3946 6.80146 32.5063 5.88797 38.0843 11.6347ZM28.6469 8.25732H14.3438C13.6984 7.18505 13.9069 7.53295 13.4356 6.74971H29.5551C28.9623 7.73456 29.1653 7.39914 28.6469 8.25732ZM11.5811 4.75683C12.473 6.23767 12.2572 5.88083 12.5908 6.4357L6.65204 12.5535L4.90449 11.6365C11.6645 4.6694 11.5104 4.82998 11.5811 4.75683ZM4.9063 50.3578L6.65385 49.4407L12.5926 55.5586C12.3116 56.026 12.5219 55.6745 11.5829 57.2374C11.398 57.0483 12.6361 58.3222 4.9063 50.3578ZM14.3492 53.7369C14.9203 53.7601 16.0768 53.7351 28.6469 53.7351C29.1635 54.5915 28.9623 54.2597 29.5551 55.2428H13.4356C14.1498 54.0617 14.2169 53.9582 14.3492 53.7369ZM38.824 11.8738L41.4181 10.5125C41.4417 14.7016 41.4417 47.2908 41.4181 51.4818L38.824 50.1205V11.8738ZM29.8886 6.19842H13.102L12.1267 4.57841H30.8639L29.8886 6.19842ZM13.102 55.7958H29.8886L30.8639 57.4158H12.1267L13.102 55.7958ZM38.6354 11.3457C38.5792 11.3742 39.1521 11.9327 31.7087 4.26262C32.5118 2.93343 32.8363 2.39997 33.2369 1.74341L41.2368 9.98258L38.6354 11.3457ZM32.6876 1.55786C31.1431 4.11632 31.212 4.00214 31.1975 4.02533H11.795L10.2976 1.54537C14.5831 1.53823 8.967 1.55607 32.6876 1.55786ZM9.7592 1.73806L11.282 4.26262L4.38965 11.3653C4.10504 11.2154 2.00218 10.111 1.75383 9.98081L9.7592 1.73806ZM4.39146 50.629L11.2838 57.7316C10.6021 58.861 10.2287 59.4747 9.75557 60.2508L1.75745 52.0117C2.00581 51.8814 4.10866 50.7771 4.39146 50.629ZM10.3048 60.4364C12.3388 57.0679 11.2221 58.9163 11.795 57.9689H31.1975L32.6949 60.4489C28.5036 60.4614 37.6674 60.4364 10.3048 60.4364ZM33.2315 60.2544L31.7069 57.7299L38.5992 50.6272C38.6626 50.6593 41.1897 51.9867 41.235 52.0117L33.2315 60.2544Z" fill="#181818" stroke="#181818" stroke-width="0.25"/>
</svg>
