<svg width="49" height="20" viewBox="0 0 49 20" fill="none" xmlns="http://www.w3.org/2000/svg">
<path d="M4.55682 0.600469H0.944824V0.720469C1.86882 0.780468 1.97682 0.79247 1.97682 1.28447V8.31647C1.97682 8.80847 1.86882 8.82047 0.944824 8.88047V9.00047H4.02882V8.88047C3.10482 8.82047 2.99682 8.80847 2.99682 8.31647V5.37647H4.01682C6.53682 5.37647 7.35282 4.08047 7.35282 2.88047C7.35282 1.56047 6.35682 0.600469 4.55682 0.600469ZM2.99682 0.720469H4.30482C5.82882 0.720469 6.26082 2.04047 6.26082 3.00047C6.26082 4.05647 5.75682 5.25647 3.99282 5.25647H2.99682V0.720469Z" fill="#181818"/>
<path d="M13.5348 8.22047L10.7028 0.540468H10.1268L7.57079 8.19647C7.41479 8.68847 7.24679 8.76047 6.58679 8.88047V9.00047H9.08279V8.88047C7.77479 8.77247 7.51079 8.76047 7.69079 8.18447L8.39879 6.04847H11.6628L12.4068 8.14847C12.5868 8.67647 12.3828 8.77247 11.4228 8.88047V9.00047H14.4948V8.88047C13.8108 8.80847 13.6908 8.62847 13.5348 8.22047ZM8.44679 5.92847L9.97079 1.35647H9.99479L11.6148 5.92847H8.44679Z" fill="#181818"/>
<path d="M16.0979 1.28447V8.31647C16.0979 8.80847 15.9899 8.82047 15.0659 8.88047V9.00047H21.0539L21.1739 7.04447H21.0539C20.7779 8.23247 20.1419 8.88047 19.1219 8.88047H17.1179V1.28447C17.1179 0.79247 17.2259 0.780468 18.1499 0.720469V0.600469H15.0659V0.720469C15.9899 0.780468 16.0979 0.79247 16.0979 1.28447Z" fill="#181818"/>
<path d="M25.5352 9.12047C23.2672 9.12047 21.4672 7.32047 21.4672 4.80047C21.4672 2.28047 23.2672 0.480469 25.5352 0.480469C27.8032 0.480469 29.6032 2.28047 29.6032 4.80047C29.6032 7.32047 27.8032 9.12047 25.5352 9.12047ZM25.5352 0.600469C23.8672 0.600469 22.5592 2.32847 22.5592 4.80047C22.5592 7.27247 23.8672 9.00047 25.5352 9.00047C27.2032 9.00047 28.5112 7.27247 28.5112 4.80047C28.5112 2.32847 27.2032 0.600469 25.5352 0.600469Z" fill="#181818"/>
<path d="M37.81 1.10447V8.31647C37.81 8.80847 37.702 8.82047 36.778 8.88047V9.00047H39.862V8.88047C38.938 8.82047 38.83 8.80847 38.83 8.31647V1.28447C38.83 0.79247 38.938 0.780468 39.862 0.720469V0.600469H37.858L35.326 7.48847L32.446 0.600469H30.322V0.720469C31.318 0.780468 31.426 0.79247 31.426 1.28447V8.31647C31.426 8.80847 31.318 8.82047 30.322 8.88047V9.00047H33.118V8.88047C31.738 8.82047 31.546 8.80847 31.546 8.31647V1.12847L34.858 9.06047H34.93L37.81 1.10447Z" fill="#181818"/>
<path d="M47.3668 8.22047L44.5348 0.540468H43.9588L41.4028 8.19647C41.2468 8.68847 41.0788 8.76047 40.4188 8.88047V9.00047H42.9148V8.88047C41.6068 8.77247 41.3428 8.76047 41.5228 8.18447L42.2308 6.04847H45.4948L46.2388 8.14847C46.4188 8.67647 46.2148 8.77247 45.2548 8.88047V9.00047H48.3268V8.88047C47.6428 8.80847 47.5228 8.62847 47.3668 8.22047ZM42.2788 5.92847L43.8028 1.35647H43.8268L45.4468 5.92847H42.2788Z" fill="#181818"/>
<path d="M4.35175 10.6005H0.739746V10.7205C1.66375 10.7805 1.77175 10.7925 1.77175 11.2845V18.3165C1.77175 18.8085 1.66375 18.8205 0.739746 18.8805V19.0005H3.82375V18.8805C2.89975 18.8205 2.79175 18.8085 2.79175 18.3165V15.3765H3.81175C6.33175 15.3765 7.14775 14.0805 7.14775 12.8805C7.14775 11.5605 6.15175 10.6005 4.35175 10.6005ZM2.79175 10.7205H4.09975C5.62375 10.7205 6.05575 12.0405 6.05575 13.0005C6.05575 14.0565 5.55175 15.2565 3.78775 15.2565H2.79175V10.7205Z" fill="#181818"/>
<path d="M8.73268 11.2845V18.3165C8.73268 18.8085 8.62468 18.8205 7.70068 18.8805V19.0005H10.7847V18.8805C9.86068 18.8205 9.75268 18.8085 9.75268 18.3165V11.2845C9.75268 10.7925 9.86068 10.7805 10.7847 10.7205V10.6005H7.70068V10.7205C8.62468 10.7805 8.73268 10.7925 8.73268 11.2845Z" fill="#181818"/>
<path d="M15.5678 19.0005C13.9118 19.0005 12.6158 17.5125 12.6158 14.8005C12.6158 12.1125 13.9118 10.6005 15.5678 10.6005C17.0078 10.6005 17.8958 11.8125 18.1358 12.8685H18.2558L18.1358 11.2005C17.6558 10.9005 16.7678 10.4805 15.5678 10.4805C13.2998 10.4805 11.5238 12.2805 11.5238 14.8005C11.5238 17.3205 13.2998 19.1205 15.5678 19.1205C16.7678 19.1205 17.6558 18.7005 18.1358 18.4005L18.3038 16.7325H18.1838C17.9438 17.6925 17.1998 19.0005 15.5678 19.0005Z" fill="#181818"/>
<path d="M25.6696 18.2205L22.8376 10.5405H22.2616L19.7056 18.1965C19.5496 18.6885 19.3816 18.7605 18.7216 18.8805V19.0005H21.2176V18.8805C19.9096 18.7725 19.6456 18.7605 19.8256 18.1845L20.5336 16.0485H23.7976L24.5416 18.1485C24.7216 18.6765 24.5176 18.7725 23.5576 18.8805V19.0005H26.6296V18.8805C25.9456 18.8085 25.8256 18.6285 25.6696 18.2205ZM20.5816 15.9285L22.1056 11.3565H22.1296L23.7496 15.9285H20.5816Z" fill="#181818"/>
<path d="M32.1235 12.9885H32.2435L32.1235 11.0205C31.4635 10.6605 30.6475 10.4805 29.9155 10.4805C28.2715 10.4805 27.3355 11.4165 27.3355 12.6165C27.3355 15.2445 31.5595 14.7645 31.5595 17.2005C31.5595 18.3165 30.8875 19.0005 29.8195 19.0005C28.8115 19.0005 27.6475 18.3525 27.3235 16.4325H27.2035L27.3235 18.5205C27.9835 18.8805 28.9075 19.1205 29.7715 19.1205C31.3795 19.1205 32.4715 18.2085 32.4715 16.7445C32.4715 13.9965 28.2475 14.3565 28.2475 12.0045C28.2475 11.1285 28.8955 10.6005 29.8795 10.6005C30.9355 10.6005 31.7995 11.5845 32.1235 12.9885Z" fill="#181818"/>
<path d="M38.5219 12.9885H38.6419L38.5219 11.0205C37.8619 10.6605 37.0459 10.4805 36.3139 10.4805C34.6699 10.4805 33.7339 11.4165 33.7339 12.6165C33.7339 15.2445 37.9579 14.7645 37.9579 17.2005C37.9579 18.3165 37.2859 19.0005 36.2179 19.0005C35.2099 19.0005 34.0459 18.3525 33.7219 16.4325H33.6019L33.7219 18.5205C34.3819 18.8805 35.3059 19.1205 36.1699 19.1205C37.7779 19.1205 38.8699 18.2085 38.8699 16.7445C38.8699 13.9965 34.6459 14.3565 34.6459 12.0045C34.6459 11.1285 35.2939 10.6005 36.2779 10.6005C37.3339 10.6005 38.1979 11.5845 38.5219 12.9885Z" fill="#181818"/>
<path d="M44.0684 19.1205C41.8004 19.1205 40.0004 17.3205 40.0004 14.8005C40.0004 12.2805 41.8004 10.4805 44.0684 10.4805C46.3364 10.4805 48.1364 12.2805 48.1364 14.8005C48.1364 17.3205 46.3364 19.1205 44.0684 19.1205ZM44.0684 10.6005C42.4004 10.6005 41.0924 12.3285 41.0924 14.8005C41.0924 17.2725 42.4004 19.0005 44.0684 19.0005C45.7364 19.0005 47.0444 17.2725 47.0444 14.8005C47.0444 12.3285 45.7364 10.6005 44.0684 10.6005Z" fill="#181818"/>
</svg>
