<svg width="313" height="73" viewBox="0 0 313 73" fill="none" xmlns="http://www.w3.org/2000/svg">
<path d="M15.1063 45.6998H50.1063L62.9063 70.9998H73.8063L37.9063 1.69985H21.7063C22.2063 2.29985 23.8063 3.29985 26.3063 4.59985C28.8062 5.89985 30.5063 7.19985 31.3063 8.39985L0.40625 70.9998H11.0063C7.20625 67.1998 7.10625 61.6999 10.8063 54.5998L15.1063 45.6998ZM49.4062 44.1999H15.8062L32.2062 10.0998L49.4062 44.1999Z" fill="#181818"/>
<path d="M122 1.69985H65.1L60.9 25.0998H61.3C63.2 19.3998 65.8 14.2998 69.3 9.79985C72.7 5.29985 76.7 3.09985 81.2 3.09985H89.1V70.9998H97.9V3.09985H106C110.5 3.09985 114.5 5.29985 118 9.79985C121.4 14.2998 124 19.4998 125.9 25.1998L126.3 25.0998L122 1.69985Z" fill="#181818"/>
<path d="M133.569 70.9998H171.569L184.169 46.1999C181.069 50.0999 178.169 53.2999 175.569 55.7999C172.969 58.3999 169.969 60.8999 166.569 63.1999C159.769 67.9999 151.869 70.1999 142.569 69.7999V1.69985H133.569V70.9998Z" fill="#181818"/>
<path d="M197.04 45.6998H232.04L244.84 70.9998H255.74L219.84 1.69985H203.64C204.14 2.29985 205.74 3.29985 208.24 4.59985C210.74 5.89985 212.44 7.19985 213.24 8.39985L182.34 70.9998H192.94C189.14 67.1998 189.04 61.6999 192.74 54.5998L197.04 45.6998ZM231.34 44.1999H197.74L214.14 10.0998L231.34 44.1999Z" fill="#181818"/>
<path d="M288.422 72.3998C295.422 72.2998 301.122 70.5998 305.622 67.4998C310.122 64.3998 312.322 59.6998 312.222 53.3998C312.122 48.6999 310.422 44.7998 307.122 41.5998C303.722 38.3998 299.622 35.8999 294.922 34.1998C290.222 32.4998 285.422 30.7999 280.722 29.1999C276.022 27.5998 271.922 25.4998 268.522 22.9998C265.122 20.4999 263.322 17.4998 263.222 13.7998C263.122 9.69985 265.222 6.59985 269.522 4.49985C273.822 2.39985 278.922 1.69985 285.022 2.39985C291.122 3.09985 296.522 4.89985 301.222 7.99985C307.922 12.2998 311.322 16.7998 312.122 25.6999H312.622L309.822 2.39985L306.222 1.79985C303.822 1.49985 300.422 1.09984 296.122 0.799849C291.722 0.499847 287.522 0.499847 283.522 0.599846C275.222 0.899848 268.722 3.09985 265.222 5.79985C263.422 7.19985 261.922 8.79985 260.822 10.4998C258.522 13.9998 258.122 16.6998 258.122 19.1999C258.322 29.2998 267.022 34.5998 277.122 38.6998C290.522 44.1998 305.922 48.0999 305.922 58.3999C305.922 61.0999 304.922 63.5999 302.522 66.2999C300.122 69.0999 295.122 70.8998 288.422 70.9998C274.422 71.2998 259.922 64.6999 257.522 40.7999H256.922L260.122 67.5998C260.422 67.6998 261.222 67.9998 262.722 68.4998C264.222 68.9998 265.122 69.2998 265.522 69.3998C266.022 69.5998 270.222 70.8998 271.322 71.0998C272.722 71.2998 276.122 71.9998 278.622 72.0998C281.022 72.1998 284.722 72.3998 288.422 72.3998Z" fill="#181818"/>
</svg>
