<svg width="57" height="9" viewBox="0 0 57 9" fill="none" xmlns="http://www.w3.org/2000/svg">
<path d="M1.64062 0.230469L4.57617 6.41211L7.30078 0.230469H7.92188L4.39453 8.18164H4.05469L0.263672 0.230469H1.64062Z" fill="#181818"/>
<path d="M9.00586 0.230469H10.3125V8H9.00586V0.230469Z" fill="#181818"/>
<path d="M13.6582 4.14453C13.6582 4.6875 13.7402 5.17578 13.9043 5.60938C14.0684 6.03906 14.293 6.4043 14.5781 6.70508C14.8672 7.00195 15.207 7.23047 15.5977 7.39062C15.9883 7.54688 16.4121 7.625 16.8691 7.625C17.1426 7.625 17.4062 7.57227 17.6602 7.4668C17.9141 7.36133 18.1484 7.22461 18.3633 7.05664C18.582 6.88477 18.7773 6.69336 18.9492 6.48242C19.1211 6.26758 19.2617 6.05078 19.3711 5.83203L19.9219 6.18359C19.7617 6.44531 19.5723 6.69727 19.3535 6.93945C19.1348 7.17773 18.8809 7.39062 18.5918 7.57812C18.3066 7.76172 17.9824 7.9082 17.6191 8.01758C17.2598 8.12695 16.8574 8.18164 16.4121 8.18164C15.7676 8.18164 15.1816 8.07422 14.6543 7.85938C14.1309 7.64453 13.6816 7.35352 13.3066 6.98633C12.9316 6.61914 12.6406 6.19141 12.4336 5.70312C12.2305 5.21094 12.1289 4.69141 12.1289 4.14453C12.1289 3.78125 12.1758 3.42773 12.2695 3.08398C12.3633 2.73633 12.498 2.41211 12.6738 2.11133C12.8535 1.80664 13.0703 1.5293 13.3242 1.2793C13.582 1.02539 13.8711 0.808594 14.1914 0.628906C14.5156 0.445312 14.8691 0.304688 15.252 0.207031C15.6348 0.105469 16.043 0.0546875 16.4766 0.0546875C16.8906 0.0546875 17.2715 0.111328 17.6191 0.224609C17.9707 0.333984 18.2891 0.480469 18.5742 0.664062C18.8633 0.847656 19.1191 1.06055 19.3418 1.30273C19.5684 1.54102 19.7617 1.79102 19.9219 2.05273L19.3535 2.42773C19.0293 1.79883 18.666 1.33984 18.2637 1.05078C17.8613 0.757812 17.3984 0.611328 16.875 0.611328C16.4258 0.611328 16.0059 0.693359 15.6152 0.857422C15.2246 1.02148 14.8828 1.25586 14.5898 1.56055C14.3008 1.86523 14.0723 2.23633 13.9043 2.67383C13.7402 3.10742 13.6582 3.59766 13.6582 4.14453Z" fill="#181818"/>
<path d="M27.8496 0.230469V0.734375H25.0371V8H23.7305V0.734375H20.918V0.230469H27.8496Z" fill="#181818"/>
<path d="M33.0645 8.18164C32.4629 8.18164 31.9004 8.07422 31.377 7.85938C30.8574 7.64453 30.4043 7.35156 30.0176 6.98047C29.6348 6.60547 29.332 6.16992 29.1094 5.67383C28.8906 5.17383 28.7812 4.64062 28.7812 4.07422C28.7812 3.70312 28.8301 3.3457 28.9277 3.00195C29.0293 2.6582 29.1719 2.33789 29.3555 2.04102C29.5391 1.74414 29.7598 1.47461 30.0176 1.23242C30.2793 0.986328 30.5684 0.777344 30.8848 0.605469C31.2012 0.429688 31.543 0.294922 31.9102 0.201172C32.2812 0.103516 32.666 0.0546875 33.0645 0.0546875C33.4668 0.0546875 33.8516 0.103516 34.2188 0.201172C34.5859 0.294922 34.9277 0.429688 35.2441 0.605469C35.5645 0.777344 35.8535 0.986328 36.1113 1.23242C36.3691 1.47461 36.5898 1.74414 36.7734 2.04102C36.9609 2.33789 37.1035 2.6582 37.2012 3.00195C37.3027 3.3457 37.3535 3.70312 37.3535 4.07422C37.3535 4.45312 37.3027 4.81641 37.2012 5.16406C37.1035 5.51172 36.9609 5.83789 36.7734 6.14258C36.5898 6.44727 36.3691 6.72461 36.1113 6.97461C35.8535 7.22461 35.5645 7.43945 35.2441 7.61914C34.9277 7.79883 34.5859 7.9375 34.2188 8.03516C33.8516 8.13281 33.4668 8.18164 33.0645 8.18164ZM33.0645 7.79492C33.5098 7.79492 33.9023 7.70312 34.2422 7.51953C34.5859 7.33203 34.875 7.07227 35.1094 6.74023C35.3438 6.4082 35.5195 6.01562 35.6367 5.5625C35.7578 5.10938 35.8184 4.61328 35.8184 4.07422C35.8184 3.53906 35.7578 3.04883 35.6367 2.60352C35.5195 2.1582 35.3438 1.77539 35.1094 1.45508C34.875 1.13086 34.5859 0.880859 34.2422 0.705078C33.9023 0.525391 33.5098 0.435547 33.0645 0.435547C32.6113 0.435547 32.2129 0.525391 31.8691 0.705078C31.5293 0.880859 31.2422 1.13086 31.0078 1.45508C30.7773 1.77539 30.6035 2.1582 30.4863 2.60352C30.3691 3.04883 30.3105 3.53906 30.3105 4.07422C30.3105 4.61328 30.3691 5.10938 30.4863 5.5625C30.6035 6.01562 30.7773 6.4082 31.0078 6.74023C31.2422 7.07227 31.5293 7.33203 31.8691 7.51953C32.2129 7.70312 32.6113 7.79492 33.0645 7.79492Z" fill="#181818"/>
<path d="M39.1113 0.230469H41.8066C42.2715 0.230469 42.6797 0.28125 43.0312 0.382812C43.3828 0.480469 43.6758 0.619141 43.9102 0.798828C44.1445 0.978516 44.3203 1.19336 44.4375 1.44336C44.5586 1.68945 44.6191 1.95898 44.6191 2.25195C44.6191 2.49414 44.5723 2.7207 44.4785 2.93164C44.3887 3.14258 44.2598 3.33398 44.0918 3.50586C43.9277 3.67383 43.7285 3.82031 43.4941 3.94531C43.2598 4.06641 43.002 4.16211 42.7207 4.23242L45.5508 8H44.0332L41.332 4.34961H40.418V8H39.1113V0.230469ZM40.418 3.95703H41.1738C41.4668 3.95703 41.7363 3.91797 41.9824 3.83984C42.2324 3.76172 42.4473 3.65234 42.627 3.51172C42.8105 3.36719 42.9531 3.19336 43.0547 2.99023C43.1562 2.78711 43.207 2.55859 43.207 2.30469C43.207 2.07031 43.166 1.85547 43.084 1.66016C43.0059 1.46484 42.8926 1.29883 42.7441 1.16211C42.5996 1.02148 42.4258 0.912109 42.2227 0.833984C42.0234 0.755859 41.8047 0.716797 41.5664 0.716797H40.418V3.95703Z" fill="#181818"/>
<path d="M46.6113 0.230469H47.918V8H46.6113V0.230469Z" fill="#181818"/>
<path d="M53.0742 0.0546875L56.7305 8H55.4004L54.2168 5.41016H50.8828L49.6582 8H49.002L52.7461 0.0546875H53.0742ZM51.1113 4.90625H53.9766L52.5645 1.83008L51.1113 4.90625Z" fill="#181818"/>
</svg>
