<svg xmlns="http://www.w3.org/2000/svg" width="118" height="130" viewBox="0 0 118 130" fill="none"><path fill-rule="evenodd" clip-rule="evenodd" d="M7.15864 73.3464H5.64719C5.52108 73.3464 5.20581 73.3464 5.20581 73.1573C5.20581 73.0318 5.26886 72.9681 5.45803 72.9051C6.84399 72.4637 7.15864 71.7083 7.15864 70.6382V59.3626C7.15864 58.3543 6.84337 57.5983 5.45803 57.0945C5.26886 57.0945 5.20581 56.9683 5.20581 56.9053C5.20581 56.6537 5.52108 56.7161 5.64719 56.7161H18.119C20.9533 56.7161 23.2845 58.9836 23.2845 61.818C23.2845 64.653 20.9533 66.9198 18.119 66.9198H11.8197V70.7624C11.8834 71.7701 12.198 72.4625 13.521 72.9038C13.7101 72.9675 13.7726 73.0306 13.7726 73.156C13.7726 73.3452 13.4579 73.3452 13.3318 73.3452H7.15864V73.3464ZM100.133 67.2363H103.093L100.133 62.1969L99.8171 61.6925L97.1725 67.2363H100.133ZM100.133 56.6543H102.149L110.589 71.5209C110.841 71.8974 111.156 72.2764 111.535 72.4643C111.849 72.7165 112.227 72.7802 112.542 72.9057C112.668 72.9693 112.794 73.0324 112.794 73.1579C112.794 73.347 112.479 73.347 112.353 73.347H104.857C104.732 73.347 104.353 73.347 104.353 73.1579C104.353 73.0324 104.479 72.9687 104.606 72.9057C104.984 72.7802 105.235 72.591 105.36 72.2133C105.487 71.7719 105.36 71.5209 105.046 70.9528C104.618 70.0438 104.177 69.141 103.723 68.2446H96.6681L96.6057 68.3701C96.542 68.6223 96.0388 69.5038 95.6599 70.449C95.1567 71.4567 94.9675 71.7083 95.093 72.2127C95.1567 72.5904 95.4707 72.7796 95.8484 72.9051C95.9751 72.9687 96.0388 73.0318 96.0388 73.1573C96.0388 73.3464 95.7229 73.3464 95.5974 73.3464H92.1325C92.007 73.3464 91.6911 73.3464 91.6911 73.1573C91.6911 73.0318 91.7548 72.9681 91.9434 72.9051C92.2592 72.7796 92.6357 72.7159 92.951 72.4637C93.3287 72.2757 93.6446 71.8968 93.8956 71.5203L94.337 70.5745L99.1242 60.5594L98.4306 59.3626C97.8019 58.3543 97.1713 57.7244 96.4783 57.3467C96.1637 57.1575 95.8484 57.1575 95.5338 57.0314C95.3446 56.9683 95.2815 56.9053 95.3446 56.7792C95.3446 56.6531 95.4701 56.7161 95.5338 56.6531H100.133V56.6543ZM81.2983 73.2828H81.5505C93.1414 73.2828 93.0159 56.7167 81.5505 56.7167H72.0392C71.85 56.7167 71.536 56.6537 71.536 56.9059C71.536 56.969 71.6615 57.0951 71.787 57.0951C73.1729 57.5358 73.4882 58.2919 73.5506 59.2371V70.7643C73.4882 71.7719 73.1729 72.4643 71.787 72.9057C71.6615 72.9693 71.536 73.0324 71.536 73.1579C71.536 73.347 71.8506 73.347 72.0392 73.347H78.1493V73.2834H81.2983V73.2828ZM81.2983 57.9135C83.0632 57.9135 84.5122 59.3626 84.5122 61.1256V68.8108C84.5122 70.5745 83.0632 72.0235 81.2983 72.0235H78.1487V57.9135H81.2983ZM57.2993 67.2363H60.2597L57.2993 62.1969L56.9846 61.6925L54.3394 67.2363H57.2993ZM57.2993 56.6543H59.3782L67.8189 71.5209C68.008 71.8974 68.3233 72.2764 68.701 72.4643C69.0157 72.7165 69.3946 72.7802 69.7723 72.9057C69.8978 72.9693 70.0233 73.0324 70.0233 73.1579C70.0233 73.347 69.6456 73.347 69.5201 73.347H62.0253C61.8985 73.347 61.5839 73.347 61.5839 73.1579C61.5839 73.0324 61.6463 72.9687 61.8349 72.9057C62.1507 72.7802 62.4648 72.591 62.5285 72.2133C62.654 71.7719 62.5285 71.5209 62.2762 70.9528C61.8349 70.0083 61.3317 69.1261 60.8915 68.2446H53.8344L53.7719 68.3701C53.7089 68.6223 53.2675 69.5038 52.8267 70.449C52.386 71.4567 52.1344 71.7083 52.2605 72.2127C52.3866 72.5904 52.6382 72.7796 53.0165 72.9051C53.142 72.9687 53.2681 73.0318 53.2681 73.1573C53.2681 73.3464 52.9535 73.3464 52.7649 73.3464H49.3625C49.2364 73.3464 48.858 73.3464 48.858 73.1573C48.858 73.0318 48.9841 72.9681 49.1102 72.9051C49.4886 72.7796 49.8032 72.7159 50.1815 72.4637C50.4962 72.2757 50.8745 71.8968 51.0631 71.5203L51.5038 70.5745L56.3547 60.5594L55.6617 59.3626C55.0318 58.3543 54.3388 57.7244 53.7089 57.3467C53.3306 57.1575 53.079 57.1575 52.7006 57.0314C52.5745 56.9683 52.4484 56.9053 52.5121 56.7792C52.5745 56.6531 52.7006 56.7161 52.7643 56.6531H57.2993V56.6543ZM36.5123 67.6777C37.9613 68.1809 39.725 68.3064 41.1104 67.8669L46.5911 72.591L47.0319 72.9687C47.0956 73.0324 47.0956 73.0942 47.0956 73.1579C47.0956 73.347 46.7803 73.347 46.6542 73.347H40.8594L36.5129 69.7566L32.985 66.9217V70.828C33.0487 71.7725 33.4264 72.4649 34.7487 72.9063C34.8748 72.9699 34.9378 73.033 34.9378 73.1585C34.9378 73.3477 34.6226 73.3477 34.4964 73.3477H26.8743C26.6857 73.3477 26.3705 73.3477 26.3705 73.1585C26.3705 73.033 26.4966 72.9693 26.6221 72.9063C28.1341 72.4031 28.3233 71.647 28.3857 70.4502V59.5511C28.3227 58.4174 28.1335 57.5983 26.6221 57.0945C26.496 57.0945 26.3705 56.9683 26.3705 56.9053C26.3705 56.6537 26.6857 56.7161 26.8743 56.7161H39.1575C39.8283 56.7133 40.4931 56.8433 41.1134 57.0987C41.7337 57.3541 42.2973 57.7298 42.7716 58.2041C43.246 58.6784 43.6217 59.2419 43.8772 59.8622C44.1326 60.4825 44.2627 61.1472 44.26 61.818C44.2628 62.4888 44.1328 63.1536 43.8774 63.7739C43.6219 64.3942 43.2462 64.9578 42.7718 65.4321C42.2974 65.9064 41.7338 66.2821 41.1135 66.5374C40.4931 66.7928 39.8284 66.9228 39.1575 66.9198H35.1894C35.3786 67.2975 35.8194 67.4243 36.1971 67.6134C36.3232 67.614 36.3862 67.6777 36.5123 67.6777ZM36.5123 65.7249H37.0161C38.6537 65.7249 40.0397 63.9606 40.0397 61.6925C40.0397 59.4881 38.6537 57.7244 37.0161 57.7244H32.9844V65.7249H36.5123ZM15.4101 57.725H11.8197V65.7255H15.9776C17.6782 65.7255 19.0011 63.9612 19.0011 61.6931C19.0011 59.4887 17.6782 57.725 15.9776 57.725H15.4101Z" fill="#181818"></path></svg>