<svg width="108" height="19" viewBox="0 0 108 19" fill="none" xmlns="http://www.w3.org/2000/svg">
<path fill-rule="evenodd" clip-rule="evenodd" d="M2.15864 17.8467H0.647188C0.52108 17.8467 0.205811 17.8467 0.205811 17.6575C0.205811 17.532 0.268865 17.4684 0.458026 17.4053C1.84399 16.9639 2.15864 16.2085 2.15864 15.1384V3.8628C2.15864 2.85455 1.84337 2.09852 0.458026 1.5947C0.268865 1.5947 0.205811 1.46859 0.205811 1.40554C0.205811 1.15393 0.52108 1.21638 0.647188 1.21638H13.119C15.9533 1.21638 18.2845 3.48387 18.2845 6.31823C18.2845 9.1532 15.9533 11.4201 13.119 11.4201H6.81973V15.2627C6.88339 16.2703 7.19805 16.9627 8.52096 17.4041C8.71012 17.4677 8.77256 17.5308 8.77256 17.6563C8.77256 17.8454 8.4579 17.8455 8.33179 17.8455H2.15864V17.8467ZM95.133 11.7366H98.0935L95.133 6.69717L94.8171 6.19273L92.1725 11.7366H95.133ZM95.133 1.15455H97.1489L105.589 16.0212C105.841 16.3977 106.156 16.7766 106.535 16.9645C106.849 17.2167 107.227 17.2804 107.542 17.4059C107.668 17.4696 107.794 17.5326 107.794 17.6581C107.794 17.8473 107.479 17.8473 107.353 17.8473H99.8572C99.7317 17.8473 99.3527 17.8473 99.3527 17.6581C99.3527 17.5326 99.4794 17.469 99.6062 17.4059C99.9839 17.2804 100.235 17.0913 100.36 16.7135C100.487 16.2722 100.36 16.0212 100.046 15.4531C99.6179 14.5441 99.1771 13.6412 98.7234 12.7448H91.6681L91.6057 12.8703C91.542 13.1225 91.0388 14.0041 90.6599 14.9493C90.1567 15.9569 89.9675 16.2085 90.093 16.7129C90.1567 17.0906 90.4707 17.2798 90.8484 17.4053C90.9751 17.469 91.0388 17.532 91.0388 17.6575C91.0388 17.8467 90.7229 17.8467 90.5974 17.8467H87.1325C87.007 17.8467 86.6911 17.8467 86.6911 17.6575C86.6911 17.532 86.7548 17.4684 86.9434 17.4053C87.2592 17.2798 87.6357 17.2161 87.951 16.9639C88.3287 16.776 88.6446 16.397 88.8956 16.0206L89.337 15.0748L94.1242 5.0596L93.4306 3.8628C92.8019 2.85455 92.1713 2.22463 91.4783 1.84691C91.1637 1.65775 90.8484 1.65775 90.5338 1.53165C90.3446 1.46859 90.2815 1.40554 90.3446 1.27943C90.3446 1.15332 90.4701 1.21637 90.5338 1.15332H95.133V1.15455ZM76.2983 17.783H76.5505C88.1414 17.783 88.0159 1.21699 76.5505 1.21699H67.0392C66.85 1.21699 66.536 1.15393 66.536 1.40615C66.536 1.4692 66.6615 1.59531 66.787 1.59531C68.1729 2.03607 68.4882 2.79211 68.5506 3.7373V15.2645C68.4882 16.2722 68.1729 16.9645 66.787 17.4059C66.6615 17.4696 66.536 17.5326 66.536 17.6581C66.536 17.8473 66.8506 17.8473 67.0392 17.8473H73.1493V17.7836H76.2983V17.783ZM76.2983 2.41379C78.0632 2.41379 79.5122 3.8628 79.5122 5.62586V13.3111C79.5122 15.0748 78.0632 16.5238 76.2983 16.5238H73.1487V2.41379H76.2983ZM52.2993 11.7366H55.2597L52.2993 6.69717L51.9846 6.19273L49.3394 11.7366H52.2993ZM52.2993 1.15455H54.3782L62.8189 16.0212C63.008 16.3977 63.3233 16.7766 63.701 16.9645C64.0157 17.2167 64.3946 17.2804 64.7723 17.4059C64.8978 17.4696 65.0233 17.5326 65.0233 17.6581C65.0233 17.8473 64.6456 17.8473 64.5201 17.8473H57.0253C56.8985 17.8473 56.5839 17.8473 56.5839 17.6581C56.5839 17.5326 56.6463 17.469 56.8349 17.4059C57.1507 17.2804 57.4648 17.0913 57.5285 16.7135C57.654 16.2722 57.5285 16.0212 57.2762 15.4531C56.8349 14.5085 56.3317 13.6264 55.8915 12.7448H48.8344L48.7719 12.8703C48.7089 13.1225 48.2675 14.0041 47.8267 14.9493C47.386 15.9569 47.1344 16.2085 47.2605 16.7129C47.3866 17.0906 47.6382 17.2798 48.0165 17.4053C48.142 17.469 48.2681 17.532 48.2681 17.6575C48.2681 17.8467 47.9535 17.8467 47.7649 17.8467H44.3625C44.2364 17.8467 43.858 17.8467 43.858 17.6575C43.858 17.532 43.9841 17.4684 44.1102 17.4053C44.4886 17.2798 44.8032 17.2161 45.1815 16.9639C45.4962 16.776 45.8745 16.397 46.0631 16.0206L46.5038 15.0748L51.3547 5.0596L50.6617 3.8628C50.0318 2.85455 49.3388 2.22463 48.7089 1.84691C48.3306 1.65775 48.079 1.65775 47.7006 1.53165C47.5745 1.46859 47.4484 1.40554 47.5121 1.27943C47.5745 1.15332 47.7006 1.21637 47.7643 1.15332H52.2993V1.15455ZM31.5123 12.178C32.9613 12.6812 34.725 12.8067 36.1104 12.3671L41.5911 17.0913L42.0319 17.469C42.0956 17.5326 42.0956 17.5945 42.0956 17.6581C42.0956 17.8473 41.7803 17.8473 41.6542 17.8473H35.8594L31.5129 14.2569L27.985 11.4219V15.3282C28.0487 16.2728 28.4264 16.9651 29.7487 17.4065C29.8748 17.4702 29.9378 17.5332 29.9378 17.6587C29.9378 17.8479 29.6226 17.8479 29.4964 17.8479H21.8743C21.6857 17.8479 21.3705 17.8479 21.3705 17.6587C21.3705 17.5332 21.4966 17.4696 21.6221 17.4065C23.1341 16.9033 23.3233 16.1473 23.3857 14.9505V4.05135C23.3227 2.9176 23.1335 2.09852 21.6221 1.5947C21.496 1.5947 21.3705 1.46859 21.3705 1.40554C21.3705 1.15393 21.6857 1.21638 21.8743 1.21638H34.1575C34.8283 1.21354 35.4931 1.34357 36.1134 1.59895C36.7337 1.85433 37.2973 2.23001 37.7716 2.70432C38.246 3.17863 38.6217 3.74217 38.8772 4.36244C39.1326 4.98271 39.2627 5.64742 39.26 6.31823C39.2628 6.98906 39.1328 7.65381 38.8774 8.27411C38.6219 8.89442 38.2462 9.458 37.7718 9.93232C37.2974 10.4066 36.7338 10.7823 36.1135 11.0377C35.4931 11.293 34.8284 11.423 34.1575 11.4201H30.1894C30.3786 11.7978 30.8194 11.9245 31.1971 12.1137C31.3232 12.1143 31.3862 12.178 31.5123 12.178ZM31.5123 10.2251H32.0161C33.6537 10.2251 35.0397 8.46083 35.0397 6.19273C35.0397 3.9883 33.6537 2.22462 32.0161 2.22462H27.9844V10.2251H31.5123ZM10.4101 2.22524H6.81973V10.2257H10.9776C12.6782 10.2257 14.0011 8.46145 14.0011 6.19334C14.0011 3.98891 12.6782 2.22524 10.9776 2.22524H10.4101Z" fill="#181818"/>
</svg>
