<svg xmlns="http://www.w3.org/2000/svg" width="130" height="130" viewBox="0 0 130 130" fill="none"><path fill-rule="evenodd" clip-rule="evenodd" d="M32.5032 60.7979L32.9854 63.6352H32.7177C32.3427 61.8682 30.7369 61.1189 29.0239 61.1189C28.7561 61.1189 28.4884 61.1189 28.1134 61.2261V66.0982H28.7561C30.1475 66.0982 31.004 65.562 31.004 64.4384H31.2717V68.4H31.0573C30.95 67.5435 30.629 66.4732 28.8094 66.4732H28.1134V70.9703C28.1134 71.7196 28.4344 72.1478 29.5587 72.1478V72.4162H24.7939V72.1478C25.8648 72.1478 26.2398 71.7196 26.2398 70.9703V62.2432C26.2398 61.5472 25.8116 61.0649 24.7406 61.0649V60.7979H32.5032ZM42.1401 60.7979L42.6217 63.6352H42.3539C41.9789 61.8682 40.3725 61.1189 38.6594 61.1189C38.3923 61.1189 38.1239 61.1189 37.7496 61.2261V66.0982H38.3923C39.7837 66.0982 40.6409 65.562 40.6409 64.4384H40.908V68.4H40.6942C40.5869 67.5435 40.2659 66.4732 38.4456 66.4732H37.7496V70.9703C37.7496 71.7196 38.0706 72.1478 39.1949 72.1478V72.4162H34.4301V72.1478C35.5004 72.1478 35.8754 71.7196 35.8754 70.9703V62.2432C35.8754 61.5472 35.4471 61.0649 34.3761 61.0649V60.7979H42.1401ZM22.4387 60.7979V61.0649C21.6362 61.0649 21.154 61.4932 21.154 62.2432V70.9689C21.154 71.7722 21.6895 72.1465 22.4387 72.1465V72.4149H17.9417V72.1465C18.7449 72.0939 19.2264 71.7722 19.2264 70.9689V62.2432C19.2264 61.4939 18.7449 61.0649 17.9417 61.0649V60.7979H22.4387ZM16.6029 57.6388L17.0845 61.1189H16.8707C16.1747 59.2986 14.9432 58.0671 12.5341 58.0671V70.3801C12.5341 71.7182 13.2834 72.1465 14.0866 72.1465V72.4149H8.73303V72.1465C9.48299 72.1465 10.3928 71.7182 10.3928 70.3801V58.0671C7.92979 58.0671 6.80619 59.1914 5.94967 61.1189H5.7352L6.11018 57.6388H16.6029ZM82.4527 68.6138C82.4527 70.4341 83.7382 71.7728 85.6117 71.7728C86.415 71.7728 87.378 71.3972 88.0208 70.5953L84.273 65.7765C83.3625 66.0982 82.4527 67.0613 82.4527 68.6138ZM87.5925 61.4399C87.5885 59.9521 86.9444 59.1914 85.6657 59.1914C84.3802 59.1914 83.6302 59.9413 83.6302 61.1722C83.6302 62.5642 85.5045 64.4917 85.5045 64.4917C87.0037 63.6352 87.5925 62.7787 87.5925 61.4399ZM85.7722 64.8127L88.9852 68.829C88.9852 68.829 89.3056 68.1862 89.3595 67.5435C89.3595 66.7942 88.9852 66.5265 88.3425 66.4199V66.2054H91.8225C91.8225 66.2054 91.8751 66.4199 91.8225 66.4199C91.1798 66.5265 90.6976 66.7403 90.2154 67.1152C89.8411 67.5975 89.6266 68.0257 89.1983 69.0967L90.6976 70.917C91.3403 71.6663 92.1968 72.0945 93.1066 72.1471V72.4156H89.3588V72.1471L88.2878 70.863C87.3774 71.7735 85.9327 72.5768 84.4874 72.5768C82.185 72.5768 80.6857 71.2913 80.6857 69.525C80.6857 67.5981 82.506 66.3659 83.9513 65.4022C83.9513 65.4022 82.3981 63.6359 82.3981 62.03C82.3981 60.2104 83.7901 58.8177 85.7176 58.8177C87.4313 58.8177 88.7694 60.0492 88.7694 61.5485C88.7701 63.2602 86.7893 64.0102 85.7722 64.8127ZM109.114 57.3711L109.274 62.0287H109.007C108.525 59.4052 106.812 57.9066 104.616 57.9066C101.994 57.9066 100.173 60.9584 100.173 65.0272C100.173 70.1131 102.207 72.2011 104.992 72.2011C107.882 72.2011 109.007 69.5243 109.275 67.5974H109.542V69.6315C109.061 70.4887 107.615 72.4689 104.564 72.4689C100.708 72.4689 97.7103 69.3098 97.7103 65.0812C97.7103 61.2268 101.084 57.6928 104.564 57.6928C106.598 57.6928 107.133 58.55 107.936 58.55C108.525 58.55 108.792 58.175 108.846 57.3718H109.114V57.3711ZM123.194 70.2736C123.782 70.2736 124.265 70.7558 124.265 71.3446C124.265 71.9334 123.782 72.3616 123.194 72.3616C122.605 72.3616 122.123 71.9334 122.123 71.3446C122.123 70.7558 122.605 70.2736 123.194 70.2736ZM112.647 66.4192C112.647 70.0058 114.038 72.2004 116.234 72.2004C118.483 72.2004 119.873 70.1664 119.873 66.4192C119.873 62.9925 118.643 61.0649 116.287 61.0117C113.878 60.9584 112.647 63.2602 112.647 66.4192ZM116.181 60.7439C119.494 60.7507 122.284 63.2649 122.284 66.6323C122.284 69.8979 119.661 72.4149 116.287 72.4149C112.968 72.4149 110.184 69.7907 110.184 66.6323C110.184 63.4747 112.915 60.7439 116.181 60.7439ZM46.6905 63.2602L48.6713 68.025H44.763L46.6905 63.2602ZM53.1144 72.1471C52.6862 72.1471 52.3651 71.7728 52.1507 71.5058C51.9901 71.2373 47.4931 60.2091 47.4931 60.2091L43.371 70.2736C42.8894 71.5577 42.2467 72.1465 41.3369 72.1465V72.4149H44.709V72.1465C44.0137 72.0939 43.5848 71.7722 43.5848 71.2899C43.5848 70.9156 44.6551 68.3461 44.6551 68.3461H48.7239C48.7239 68.3461 49.8482 70.7551 49.9014 71.2899C49.9554 71.7182 49.3127 72.1465 48.6699 72.1465V72.4149H53.1131V72.1471H53.1144ZM54.9887 70.3801C54.9887 71.4511 54.2926 71.9334 53.5434 72.1465V72.4149H56.9162V72.1465C55.9524 71.9334 55.4169 71.2899 55.4169 70.3801V62.8326L63.2868 72.6294V63.2076C63.2868 61.8689 64.0361 61.0656 64.8926 61.0656V60.7985H61.0915V61.0123C62.1625 61.334 62.9118 61.9761 62.9118 63.2076V68.9901L56.38 60.7985H53.2749V61.0123C54.613 61.0656 54.988 62.1899 54.988 62.4576V70.3801H54.9887ZM65.3209 61.0649C65.7977 61.0649 65.9117 61.0683 66.2846 61.7609C66.2846 61.7609 69.8712 67.4902 69.8712 67.5428V70.9689C69.8712 71.7182 69.2285 72.1465 68.2654 72.2004V72.4149H73.2447V72.2004C72.3343 72.1465 71.7455 71.7182 71.7455 70.9689V66.954C71.7455 66.954 74.0466 62.8319 74.2611 62.457C74.7959 61.6004 75.5452 61.0649 76.4557 60.9577V60.7972H72.3869L72.4408 60.9577C73.7249 60.9577 74.0466 62.1892 73.5644 62.9385L71.4764 66.7929L68.9075 62.2964C68.4779 61.6004 69.0141 60.9577 69.9771 60.9577V60.7972H65.3195V61.0649H65.3209Z" fill="#181818"></path></svg>