<svg width="104" height="29" viewBox="0 0 104 29" fill="none" xmlns="http://www.w3.org/2000/svg">
<path fill-rule="evenodd" clip-rule="evenodd" d="M19.6989 23.5422C16.4852 25.8141 12.0512 28.5014 8.01178 28.5014C3.89159 28.5014 0.94104 25.7188 0.94104 21.5631C0.94104 19.3058 1.82481 17.1146 2.8184 15.1275C4.74689 11.2705 7.57367 7.80805 10.8973 5.06203C13.4684 2.94354 16.5578 1.32185 19.8012 0.53337C20.6837 0.318788 21.5884 0.208601 22.4967 0.205078C23.6582 0.205078 24.8999 0.358476 25.9301 0.9279L27.4199 1.73904C27.7046 1.89999 28.048 1.92904 28.3623 1.92904C29.4727 1.92904 30.4152 1.2864 31.2693 0.657712L31.6348 1.03771C29.6261 2.3962 28.7423 3.84997 27.9167 6.09978L27.5518 5.85865C27.6976 5.36185 27.815 4.86564 27.815 4.33921C27.815 1.76809 24.6012 0.569973 22.424 0.569973C20.8023 0.569973 19.1516 1.06677 17.7054 1.77564C12.4608 4.34677 8.28255 8.97769 5.76256 14.2077C4.55747 16.6986 3.63709 19.5179 3.63709 22.3162C3.63709 25.6537 5.47029 27.8814 8.88161 27.8814C12.5776 27.8814 16.8437 25.0477 19.8459 23.039C20.3282 21.9577 20.8616 20.9432 21.5844 20.0001C23.8267 17.0565 27.4646 13.9886 31.3727 13.9886C33.4325 13.9886 34.3819 14.9747 34.4406 16.9688L35.748 14.6899H38.2093L32.468 24.7699C32.2123 25.2162 31.9567 25.7414 31.9567 26.2679C31.9567 26.8739 32.5557 27.2243 33.1036 27.2243C34.4961 27.2243 36.0359 26.0155 37.0867 25.1904L37.1576 25.1348C39.8821 23.0163 42.3585 20.5841 44.0163 17.5231L45.5572 14.6888H48.1574L47.4491 15.9601C48.7419 15.1856 50.2102 14.5429 51.7442 14.5429C52.5913 14.5429 53.446 14.9375 53.446 15.8869C53.446 16.5592 53.0806 17.1361 52.5913 17.5528C52.6866 17.6184 52.7808 17.662 52.8975 17.662C53.2928 17.662 53.6942 17.4127 54.0318 17.2031C54.0684 17.1804 54.1042 17.1581 54.1392 17.1367C56.3536 15.7707 58.3541 13.8428 59.676 11.6L61.4738 8.53203H63.906L60.8021 13.9445H64.4098L64.2134 14.4122H60.626L54.607 24.8437C54.381 25.2452 54.1392 25.713 54.1392 26.1795C54.1392 26.7786 54.8632 27.0499 55.367 27.0499C56.4994 27.0499 57.4849 26.3486 58.3687 25.7054C59.9985 24.5299 61.4883 23.1203 62.9124 21.7026C63.9415 20.6799 64.9426 19.6131 65.7904 18.4377C66.243 17.809 66.6451 17.1518 67.0466 16.4941L68.1494 14.6899H70.552L64.5998 25.1284C64.3877 25.5009 64.2488 25.9239 64.2488 26.355C64.2488 26.8146 64.6062 27.2388 65.0809 27.2388C66.4981 27.2388 68.0692 26.0482 69.1128 25.1418L73.4375 21.3807C75.8262 18.5969 79.7267 14.1635 83.693 14.1635C84.9707 14.1635 86.4326 14.8288 86.4326 16.282C86.4326 17.3773 85.7016 18.4144 84.9933 19.175C83.4297 20.8479 81.0916 21.8635 78.9232 22.455C77.8267 22.7549 76.7384 22.8205 75.606 22.8275C75.2562 23.6241 74.8977 24.4422 74.8977 25.333C74.8977 26.581 75.986 27.5903 77.2207 27.5903C80.1863 27.5903 84.518 24.5294 86.665 22.806C88.4826 21.3271 90.1623 19.6865 91.6835 17.9043C91.7393 17.8386 91.7956 17.7726 91.8523 17.7062C92.382 17.0856 92.939 16.433 93.3348 15.7201L93.9124 14.6905H96.3365L94.5695 18.0362C96.4684 16.3122 98.7844 14.5517 101.48 14.5517C102.364 14.5517 103.057 15.0996 103.057 16.0049C103.057 16.845 102.32 17.8235 101.429 17.8235C100.961 17.8235 100.486 17.3773 100.486 16.9031C100.486 16.1513 101.29 15.6028 101.984 15.6028C102.122 15.6028 102.262 15.6173 102.392 15.6318C102.166 15.1647 101.83 14.945 101.282 14.945C100.026 14.945 98.7618 15.5586 97.7101 16.1867C95.329 17.6039 93.5033 19.766 92.1233 22.1401L88.6609 28.079H86.17L91.7863 18.386C90.5598 19.8316 89.2739 21.1901 87.8282 22.4103C86.2066 23.7769 84.4826 25.0331 82.6633 26.1214C80.793 27.2394 78.682 28.2539 76.4479 28.2539C74.3073 28.2539 72.3271 27.0499 72.3271 24.7333C72.3271 24.0726 72.4825 23.4323 72.6376 22.7933L72.656 22.7177C72.4741 22.8859 72.2853 23.0624 72.0903 23.2448L72.0894 23.2456C69.8968 25.2964 66.9151 28.0854 63.9641 28.0854C62.7509 28.0854 61.7579 27.6554 61.7579 26.348C61.7579 25.6169 62.158 24.9553 62.5357 24.3307C62.6145 24.2004 62.6924 24.0717 62.7654 23.9443L64.7671 20.4307C62.8096 22.5776 60.7353 24.6456 58.3611 26.3254C57.0538 27.2539 55.5274 28.108 53.883 28.108C52.8389 28.108 51.7285 27.4939 51.7285 26.3184C51.7285 25.4697 52.2113 24.6493 52.6445 23.9132C52.7113 23.7996 52.7769 23.6881 52.8394 23.5788L57.9155 14.6673C57.0035 15.5257 56.0531 16.3423 55.0672 17.1146C54.2124 17.7799 53.2049 18.5603 52.0649 18.5603C51.3711 18.5603 50.7645 18.1292 50.7645 17.3767C50.7645 16.6248 51.4292 16.0258 52.1672 16.0258C52.3787 16.0258 52.5547 16.0914 52.7372 16.1937C52.7883 16.0548 52.8394 15.9014 52.8394 15.748C52.8394 15.2367 52.1962 14.9224 51.7657 14.9224C50.5089 14.9224 49.1725 15.5359 48.1208 16.171C47.0615 16.8142 46.3823 17.8433 45.7763 18.9037L40.5021 28.0778H37.9455L41.7002 21.5184C39.1727 24.1924 35.0821 28.165 31.2472 28.165C30.2176 28.165 29.2606 27.6542 29.2606 26.5287C29.2606 25.8286 29.5308 25.1784 29.8161 24.5497C27.9899 26.4561 25.492 28.4137 22.7308 28.4137C20.9267 28.4137 19.3706 27.1423 19.3706 25.2801C19.3706 24.6816 19.531 24.1046 19.6989 23.5422ZM33.9429 16.5435C33.9429 15.2141 32.8988 14.3669 31.5908 14.3669C30.1667 14.3669 28.9686 15.0752 27.8507 15.9009C25.5933 17.5517 23.6724 19.8671 22.4452 22.3726C21.985 23.3226 21.598 24.2494 21.598 25.3086C21.598 26.4922 22.2993 27.5886 23.5846 27.5886C26.5724 27.5886 29.7135 24.2645 31.4078 21.9926C32.4822 20.5533 33.9429 18.3767 33.9429 16.5435ZM75.9351 22.3884C76.0888 22.3953 76.2414 22.4022 76.3976 22.4022C78.566 22.4022 80.8089 21.3058 82.3498 19.8235C83.3225 18.8886 84.7025 17.1716 84.7025 15.7324C84.7025 14.9799 83.9204 14.6732 83.2632 14.6732C80.3258 14.6737 77.3948 19.584 75.9138 22.0652L75.913 22.0665C75.8478 22.1758 75.7854 22.2803 75.7259 22.3796C75.7961 22.3821 75.8658 22.3852 75.9351 22.3884Z" fill="#181818"/>
<path d="M70.5754 11.0511C70.5754 11.592 70.9775 11.8622 71.4813 11.8622C72.4087 11.8622 72.9862 10.993 72.9856 10.1237C72.9856 9.64146 72.737 9.16675 72.2117 9.16675C71.379 9.16675 70.5754 10.255 70.5754 11.0511Z" fill="#181818"/>
</svg>
