<svg width="133" height="42" viewBox="0 0 133 42" fill="none" xmlns="http://www.w3.org/2000/svg">
<path fill-rule="evenodd" clip-rule="evenodd" d="M60.2206 0C67.0843 0 70.4766 3.012 70.4766 10.1655V11.5695C70.4766 17.4015 68.0168 19.134 66.2609 19.962C68.8073 21.192 70.1045 23.0625 70.1045 28.7715C70.1045 32.721 70.0432 38.694 70.3854 40.8435H63.1944C62.6863 38.994 62.7207 31.6185 62.7207 26.3985C62.7207 21.7935 62.0587 21.009 59.0595 21.009H57.9566V40.845H50.5295V0H60.2206V0ZM62.8328 13.6035V8.079C62.8328 5.334 62.2799 3.624 59.3823 3.624H57.9775V18.6885H59.1282C61.7583 18.6885 62.8328 17.4105 62.8328 13.6035V13.6035ZM32.6552 34.512C32.6552 37.122 33.5489 38.391 35.3885 38.391C37.8064 38.391 38.0858 36.177 38.0858 34.512V0H45.7371V30.6855C45.7371 38.0055 42.4091 41.415 35.2644 41.415C28.199 41.415 25.0473 38.085 25.0473 30.621V0H32.6537V34.512H32.6552ZM99.9592 40.8405V3.9075H93.9518V0H113.549V3.9075H107.501V40.8405H99.9592ZM132.985 4.0155H123.998V17.2395H130.334V21.255H123.998V36.825H132.985V40.8405H116.435V0H132.985V4.014V4.0155ZM78.5746 0H90.0769L95.8571 40.8405H88.1611C88.1147 40.368 87.396 32.8395 87.3691 32.6205C87.0537 29.9025 84.47 28.026 82.2284 26.4645L81.9594 26.2785L80.5173 40.8405H72.6569L78.5746 0ZM82.2822 23.0145L86.6517 25.0395L86.6219 24.708C85.4891 12.729 84.7614 5.763 84.7016 4.566L84.6926 4.3845H84.0246L84.0067 4.557C83.8244 6.4245 83.1056 14.6895 82.2956 22.878L82.2822 23.013V23.0145ZM5.78027 0H17.2825L23.2003 40.8405H15.3398L13.8978 26.2785L13.6288 26.4645C11.3872 28.0245 8.8034 29.9025 8.48809 32.6205C8.46269 32.8395 7.74389 40.368 7.69756 40.8405H0L5.78027 0ZM9.20539 25.0395L13.575 23.0145L13.56 22.8795C12.7531 14.6895 12.0343 6.4245 11.8505 4.557L11.834 4.3845H11.163L11.1541 4.566C11.0943 5.7645 10.3665 12.729 9.23528 24.708L9.2039 25.038L9.20539 25.0395Z" fill="black"/>
</svg>
