<svg width="87" height="16" viewBox="0 0 87 16" fill="none" xmlns="http://www.w3.org/2000/svg">
<path fill-rule="evenodd" clip-rule="evenodd" d="M27.5002 3.79961L28.0002 6.59961H27.7002C27.3002 4.79961 25.7002 4.09961 24.0002 4.09961C23.7002 4.09961 23.5002 4.09961 23.1002 4.19961V9.09961H23.7002C25.1002 9.09961 25.9002 8.59961 25.9002 7.39961H26.2002V11.3996H26.0002C25.9002 10.4996 25.6002 9.49961 23.8002 9.49961H23.1002V13.9996C23.1002 14.6996 23.4002 15.1996 24.5002 15.1996V15.4996H19.7002V15.1996C20.8002 15.1996 21.1002 14.7996 21.1002 13.9996V5.29961C21.1002 4.59961 20.7002 4.09961 19.6002 4.09961V3.79961H27.5002ZM37.1002 3.79961L37.6002 6.59961H37.3002C36.9002 4.79961 35.3002 4.09961 33.6002 4.09961C33.3002 4.09961 33.1002 4.09961 32.7002 4.19961V9.09961H33.3002C34.7002 9.09961 35.5002 8.59961 35.5002 7.39961H35.8002V11.3996H35.6002C35.5002 10.4996 35.2002 9.49961 33.4002 9.49961H32.7002V13.9996C32.7002 14.6996 33.0002 15.1996 34.1002 15.1996V15.4996H29.3002V15.1996C30.4002 15.1996 30.7002 14.7996 30.7002 13.9996V5.29961C30.7002 4.59961 30.3002 4.09961 29.2002 4.09961V3.79961H37.1002ZM17.4002 3.79961V4.09961C16.6002 4.09961 16.1002 4.49961 16.1002 5.29961V13.9996C16.1002 14.7996 16.6002 15.1996 17.4002 15.1996V15.4996H12.9002V15.1996C13.7002 15.0996 14.2002 14.7996 14.2002 13.9996V5.29961C14.2002 4.59961 13.7002 4.09961 12.9002 4.09961V3.79961H17.4002ZM11.6002 0.599609L12.1002 4.09961H11.9002C11.2002 2.29961 10.0002 0.999609 7.6002 0.999609V13.2996C7.6002 14.5996 8.3002 15.0996 9.2002 15.0996V15.3996H3.7002V15.0996C4.4002 15.0996 5.4002 14.6996 5.4002 13.2996V1.09961C2.9002 1.09961 1.8002 2.19961 1.0002 4.19961H0.700195L1.1002 0.699609H11.6002V0.599609ZM41.7002 6.29961L43.7002 11.0996H39.8002L41.7002 6.29961ZM48.1002 15.0996C47.7002 15.0996 47.4002 14.6996 47.1002 14.4996C46.9002 14.1996 42.4002 3.19961 42.4002 3.19961L38.3002 13.2996C37.8002 14.5996 37.2002 15.1996 36.3002 15.1996V15.4996H39.7002V15.1996C39.0002 15.0996 38.6002 14.7996 38.6002 14.2996C38.6002 13.8996 39.7002 11.3996 39.7002 11.3996H43.8002C43.8002 11.3996 44.9002 13.7996 45.0002 14.2996C45.1002 14.6996 44.4002 15.1996 43.8002 15.1996V15.4996H48.2002L48.1002 15.0996ZM50.0002 13.3996C50.0002 14.4996 49.3002 14.9996 48.6002 15.1996V15.4996H52.0002V15.1996C51.0002 14.9996 50.5002 14.2996 50.5002 13.3996V5.89961L58.4002 15.6996V6.29961C58.4002 4.99961 59.1002 4.19961 60.0002 4.19961V3.89961H56.2002V3.99961C57.3002 4.29961 58.0002 4.99961 58.0002 6.19961V11.9996L51.5002 3.79961H48.4002V3.99961C49.7002 4.09961 50.1002 5.19961 50.1002 5.39961L50.0002 13.3996ZM60.3002 4.09961C60.8002 4.09961 60.9002 4.09961 61.3002 4.79961C61.3002 4.79961 64.9002 10.4996 64.9002 10.5996V13.9996C64.9002 14.6996 64.3002 15.1996 63.3002 15.1996V15.3996H68.3002V15.1996C67.4002 15.0996 66.8002 14.6996 66.8002 13.9996V9.99961C66.8002 9.99961 69.1002 5.89961 69.3002 5.49961C69.8002 4.59961 70.6002 4.09961 71.5002 3.99961V3.79961H67.4002L67.5002 3.99961C68.8002 3.99961 69.1002 5.19961 68.6002 5.99961L66.5002 9.89961L63.9002 5.39961C63.5002 4.59961 64.0002 3.99961 65.0002 3.99961V3.79961H60.3002V4.09961Z" fill="#181818"/>
<path fill-rule="evenodd" clip-rule="evenodd" d="M85.9 0.599609L86.4 4.09961H86.2C85.5 2.29961 84.3 0.999609 81.9 0.999609V13.2996C81.9 14.5996 82.6 15.0996 83.5 15.0996V15.3996H78V15.0996C78.7 15.0996 79.7 14.6996 79.7 13.2996V1.09961C77.2 1.09961 76.1 2.19961 75.3 4.19961H75L75.4 0.699609H85.9V0.599609Z" fill="#181818"/>
</svg>
