<svg xmlns="http://www.w3.org/2000/svg" width="101" height="130" viewBox="0 0 101 130" fill="none"><path fill-rule="evenodd" clip-rule="evenodd" d="M36.8644 55.6145L36.8471 55.9803L36.4274 57.0443L36.4442 57.1107C36.4442 57.1771 36.4777 57.2269 36.5285 57.2767L36.6794 57.3431L36.965 57.3935L37.3852 57.2933L37.4355 57.2435L37.7206 57.0443C37.8379 56.9945 37.9391 56.8944 38.0229 56.7782L38.812 55.3318C38.8657 55.2531 38.8948 55.1606 38.8958 55.0656L39.0473 54.9826L39.2317 54.6003L39.3323 54.5837L39.4335 54.4675V54.2511L39.5173 54.1847L39.8532 53.5694L39.8699 53.1036L39.6022 52.6382L39.6525 52.3892L39.4507 52.4063L39.3166 52.19L39.0813 52.107L38.9137 52.1734C38.8466 52.1734 38.8131 52.19 38.7622 52.2398C38.6616 52.3726 38.5946 52.5059 38.561 52.6719L38.3425 52.7051L38.2755 52.7383L37.9731 52.7549L37.8217 52.9713L37.8049 53.1207L37.7211 53.2037L37.6708 53.5362L37.6037 53.7194C37.5534 53.9523 37.436 54.1515 37.2678 54.3347L37.2343 54.9167L37.1337 55.0667C37.1332 55.3152 37.0326 55.4983 36.8644 55.6145ZM52.666 55.6311L52.13 56.0799L52.0613 56.1463L51.9272 56.3792H51.8266L51.6411 56.512L51.5573 56.4622L51.3728 56.6122L51.3891 56.7284L51.4226 56.8119L51.0191 57.078L50.885 57.1112L50.8179 57.311L50.5664 57.4101L50.6167 57.6264L50.6005 57.6928L50.3484 57.8095L49.9287 58.1089L49.8617 58.1748L49.8108 58.3076L49.6432 58.3413L49.4079 58.7734C49.2536 58.86 49.1259 58.9864 49.0385 59.1392L48.9547 59.2725C48.9095 59.3358 48.8445 59.3825 48.7697 59.4053C48.6759 59.4678 48.6005 59.5537 48.5512 59.6543L48.5344 59.6875C48.5512 59.7379 48.5344 59.7877 48.5014 59.8043L48.3332 59.7379L48.2326 59.8209L48.1991 60.0201C48.1445 60.0368 48.086 60.0368 48.0314 60.0201L47.9811 60.0367L47.8968 60.1197L47.9135 60.3858C47.8129 60.5131 47.6941 60.6251 47.5609 60.7184L47.5106 60.7848L47.477 60.9347L47.0238 61.4504L46.8561 61.4836L46.6209 61.8493L46.4364 61.8659L46.285 61.9827L46.1509 62.5316L46.033 62.6146L45.8988 62.8641L45.7809 62.8475L45.5965 63.0135C45.6971 63.0799 45.7139 63.1463 45.6468 63.1966L45.5121 63.3798L45.3942 63.3964L45.1092 64.0283L44.7901 64.2114L44.6895 64.3613L44.7062 64.5273L44.5213 64.6934L44.4877 64.8931L44.4207 64.9429L44.4877 65.1597L44.4547 65.2422L44.1692 65.6417L43.9344 65.8414L43.9004 65.9405C43.8836 66.0407 43.8165 66.0899 43.7154 66.1408C43.6819 66.1408 43.6656 66.1569 43.6483 66.1735L43.5142 66.34C43.4639 66.3063 43.4136 66.3063 43.3801 66.34L43.1783 66.5558L42.9095 66.5055L42.7419 66.5724L42.4395 66.4894L42.3892 66.4054L42.0863 66.3732L42.0193 66.3893L41.8851 66.4894L41.7002 66.2062L41.4984 66.1895L41.4314 66.1237L41.4146 66.0567C41.3978 65.9737 41.3643 65.9239 41.2967 65.857L41.2464 65.8077L41.0117 65.5914L40.9944 65.3247L40.8267 65.2251L40.844 65.042V64.9424C40.8267 64.8599 40.7937 64.8096 40.7261 64.7266L40.7596 64.3442L40.8602 64.2114L40.877 63.9121L41.062 63.6791L41.0117 63.5292L41.1961 63.3134L41.2129 63.2631L41.2799 63.1468C41.2935 63.0954 41.3187 63.0477 41.3537 63.0073C41.3886 62.967 41.4324 62.935 41.4817 62.9139L41.5147 62.7474L41.6153 62.6478C41.6656 62.598 41.6824 62.531 41.6997 62.4818C41.8037 62.3611 41.8989 62.2334 41.9847 62.0994C42.1194 61.8333 42.287 61.6003 42.4882 61.3845L43.9161 59.8219C43.9999 59.7223 44.067 59.6388 44.1346 59.5226L44.5711 58.9239L44.8058 58.7076L44.9399 58.6577L44.9735 58.4082L45.2087 58.2251V58.0923C45.3261 58.0259 45.41 57.9257 45.4603 57.8095C45.484 57.7674 45.5178 57.7317 45.5587 57.7055C45.5997 57.6794 45.6465 57.6636 45.695 57.6596L45.7458 57.6264C45.7961 57.6264 45.8297 57.5932 45.88 57.5429L46.0985 57.1771L46.2661 57.0272L46.4176 56.761L46.8708 56.2625L46.9211 56.1795C47.0049 55.9964 47.1396 55.8137 47.3073 55.6472L47.324 55.5642L47.4414 55.4646L47.5085 55.365L48.0964 54.384L48.2138 54.2506L49.1375 52.7373C49.1878 52.6211 49.2717 52.5376 49.3555 52.4546C49.3052 52.2554 49.3393 52.0722 49.4734 51.8896L49.5069 51.8569C49.574 51.79 49.6075 51.7402 49.6243 51.6733L49.5913 51.4741C49.6623 51.2282 49.7183 50.9784 49.759 50.726L49.8428 50.2606L49.9099 50.0775C49.9769 49.9115 49.9769 49.7283 49.9266 49.5286L49.9099 49.4456L49.9266 49.2126L49.7925 47.966L49.7422 47.883L49.6416 47.6168C49.5807 47.4376 49.5018 47.2649 49.4063 47.1012L49.0202 46.4366L48.8693 46.2867L48.4831 46.0205L48.2813 45.7876L48.1472 45.7549L48.0125 45.6714C47.8638 45.5723 47.6883 45.52 47.509 45.5215L47.4419 45.4882L47.1904 45.4218L47.1401 45.372L46.1828 45.2055L45.8973 45.2553L45.5781 45.1723L45.0075 45.3217C44.8131 45.2906 44.6136 45.3196 44.4364 45.4047L44.352 45.4379L43.9491 45.5375L43.7641 45.6377L43.5629 45.6543C43.5126 45.6869 43.4623 45.7035 43.4115 45.7207L43.1762 45.8369C43.1092 45.8701 43.0589 45.9038 42.9913 45.9204L41.5639 46.4522L41.5131 46.4682L41.161 46.585L41.0766 46.668L40.7581 46.7676L40.5904 46.834C40.4227 46.9336 40.2378 47 40.0528 47.0835C39.5996 47.2329 39.2129 47.4991 38.8607 47.8482L38.5919 48.0142L38.5752 48.0972L38.3237 48.2301C38.2901 48.3131 38.2398 48.38 38.156 48.463L38.1225 48.4957L37.8537 48.6622L37.6524 49.0114L37.5681 49.0446L37.5178 49.2106L37.1651 49.9587L37.0661 50.3607C37.0158 50.4271 36.999 50.5107 37.0158 50.5937L37.0493 50.6601C36.9482 50.8593 36.9482 51.0756 37.0158 51.2754V51.3252L36.999 51.3584C36.9823 51.4414 37.0158 51.5244 37.1169 51.5913V51.6245C37.1169 51.7407 37.1337 51.8735 37.184 52.0063L37.217 52.0733L37.3181 52.2564V52.3726L37.5194 52.6719L37.7379 52.6885L37.8893 52.4556L37.9899 52.439L38.0743 52.4722L38.3258 52.5054L38.3761 52.5386C38.4431 52.5718 38.4767 52.5552 38.4934 52.4888V52.4556C38.527 52.2564 38.4767 52.0733 38.3085 51.9404L38.1576 51.8574L37.9726 51.4082V51.3252C37.9726 51.2754 38.0061 51.225 38.0564 51.1752L38.1738 51.0922L38.2576 50.8593L38.5767 50.6762L38.8288 50.7426L39.0137 50.5599L39.0305 49.9773L39.2322 49.8783C39.3166 49.8279 39.3999 49.7947 39.501 49.8279H39.5513L39.7531 49.9281C39.8041 50.0199 39.8328 50.1222 39.8369 50.2269L39.8201 50.2933C39.7706 50.3911 39.7145 50.4855 39.6525 50.576C39.5199 50.6463 39.4139 50.7571 39.3501 50.892L39.3334 50.975V51.1415L39.4507 51.3578C39.4729 51.4027 39.506 51.4414 39.5471 51.4704C39.5882 51.4994 39.6359 51.5178 39.686 51.5239L39.8537 51.5903C40.0046 51.6069 40.1052 51.6899 40.1723 51.8393V52.2382C40.1723 52.3212 40.156 52.371 40.1052 52.4214L39.8196 52.5713L39.9543 52.8872V52.937C39.9873 53.0367 40.0549 53.1031 40.122 53.1031L40.2399 53.0533C40.3405 52.9702 40.4075 52.854 40.4411 52.7373L40.6093 52.5874L41.1301 52.521L41.5163 52.355L42.1377 51.8564L42.7088 51.1747L42.7759 50.8588L42.8094 50.7592C42.8933 50.6928 42.9776 50.643 43.0615 50.6263L43.2291 50.1439C43.2962 50.1107 43.347 50.0775 43.3968 50.0443L43.3298 49.8279L43.565 49.6614L43.6153 49.5452L43.7662 49.4622L43.8165 49.3128L43.9847 49.2624L44.0015 49.196L44.0853 49.0964C44.1362 49.0466 44.2195 49.0134 44.3206 48.9968L44.3709 48.8303L44.438 48.8137L44.5218 48.7473L44.4883 48.6306L44.6565 48.4645L44.7906 48.4313L44.9923 48.1984L45.1941 48.215L45.2611 48.1149L45.8323 48.0822L45.8993 48.0656C45.9472 48.0503 45.9924 48.028 46.0335 47.9992L46.4369 48.1154L46.4537 48.1818L46.4872 48.215L46.8058 48.4812L47.0076 49.03V49.2126L47.1082 49.3128L47.0746 50.0443L47.2591 49.9779L47.1752 50.1278L47.2423 50.161C47.192 50.1444 47.1585 50.161 47.1417 50.2274L47.0243 50.5267L47.0076 50.5599L46.9908 50.6762L47.0076 50.7265L47.0411 50.8261C47.0411 50.8588 47.0243 50.8759 46.9908 50.8759L46.9573 51.1083L46.8567 51.2748L46.907 51.3739L46.7393 51.5903V51.6733L46.5376 51.8398L46.5208 52.0727L46.3358 52.4219L46.2688 52.4551C46.1346 52.4717 46.0503 52.5718 46.0335 52.7046V52.8878L45.5467 53.4029L45.4959 53.6691L45.3785 53.8356L45.2947 53.8522L45.1941 53.985V54.0851L44.9756 54.3513C44.8079 54.5178 44.6732 54.7336 44.5894 54.9666C44.5223 55.1497 44.4385 55.2825 44.3206 55.3655L44.2535 55.4314L44.1189 55.5149L43.1956 56.5784L43.1118 56.595L43.0447 56.6614C43.0011 56.7563 42.9314 56.837 42.8435 56.8944C42.8456 56.9422 42.8359 56.9898 42.8154 57.0332C42.7949 57.0766 42.7641 57.1144 42.7256 57.1434C42.6921 57.16 42.6585 57.1937 42.625 57.1937C42.5417 57.2161 42.4642 57.2559 42.3976 57.3102C42.331 57.3646 42.2769 57.4324 42.2388 57.5091L42.0539 57.5761L41.8862 57.8749V57.9745L41.3313 58.4746C41.2808 58.5982 41.2066 58.7109 41.1128 58.8066L40.7769 59.1392L40.7434 59.1895C40.7099 59.2559 40.6763 59.3057 40.6255 59.3223L40.5087 59.3721L40.3572 59.5553C40.3069 59.6543 40.2566 59.7213 40.1895 59.7545C40.0889 59.8209 40.0219 59.921 39.9548 60.0206L39.9213 60.1041C39.8207 60.2369 39.7028 60.3532 39.5854 60.4533V60.6364L39.6525 60.7194L39.4345 60.7526L39.0483 61.1682C38.9975 61.218 38.9975 61.2346 39.0651 61.218L38.0072 62.5316C37.8055 62.7645 37.7048 62.9139 37.6881 63.014C37.6881 63.1136 37.6042 63.2802 37.4696 63.4965L37.0499 64.1611C36.8984 64.3774 36.714 64.7598 36.5123 65.3247C36.2938 65.8902 36.1093 66.755 35.9411 67.9026L35.9244 68.0847L35.8908 68.0188L35.8238 68.2512L35.9081 68.4172L35.8411 68.8997L35.9081 69.0325L35.8573 69.1492L35.9411 69.7479C35.9411 69.8807 35.9579 69.9964 36.025 70.1137L36.0417 70.1469C36.1256 70.1962 36.1596 70.2797 36.1596 70.3466L36.1093 70.646L36.2943 70.7279V70.8784L36.2272 70.9614L36.3111 71.2773L36.5296 71.2436C36.5961 71.2773 36.6296 71.3432 36.6134 71.4267L36.5631 71.71L36.7145 71.9424L36.8487 71.8755L36.899 72.042L36.8151 72.1748L36.8822 72.2252L38.0072 72.1748L38.0402 72.1582L38.0575 72.1748H38.2587L38.2755 72.1582L38.309 72.1748L63.1786 72.1079C67.8975 63.7621 69.9625 53.5705 69.3914 41.5159C66.268 44.8579 60.8443 49.4471 53.0868 55.283L53.103 55.2996H53.0527L52.9516 55.3826L52.7174 55.6156L52.666 55.6311ZM55.3535 74.3859C54.6812 74.3859 53.9932 74.5348 53.3047 74.8684C52.609 75.1906 51.982 75.6418 51.4577 76.1975C50.8797 76.796 50.4185 77.4952 50.0975 78.2597C49.7545 79.094 49.5778 79.9861 49.5771 80.8869C49.5771 82.7151 50.0639 84.2113 51.0207 85.4092C52.0288 86.6735 53.3891 87.3048 55.1009 87.3048C56.7813 87.3048 58.1741 86.6226 59.2823 85.2426C59.7858 84.6268 60.1552 83.9119 60.4418 83.1312C60.7101 82.3328 60.8443 81.5188 60.8443 80.6871C60.8443 79.0571 60.4246 77.6444 59.5678 76.4808C58.577 75.0842 57.167 74.3859 55.3535 74.3859ZM35.6891 76.7132C35.3532 75.7161 35.152 75.0173 35.1012 74.5685L34.1779 74.6853L32.8345 74.5685V74.8508C33.053 74.9177 33.2039 74.968 33.2542 75.0173C33.3553 75.1003 33.4056 75.2497 33.4056 75.4494C33.4056 75.6331 33.3721 75.8489 33.2877 76.0813L30.1475 85.5586C29.9798 86.0904 29.8284 86.4395 29.6943 86.5894C29.5601 86.7388 29.3416 86.8218 29.0393 86.8385V87.1212L30.6348 86.9884L32.0286 87.1212V86.8385C31.6759 86.8218 31.4407 86.7886 31.2898 86.689C31.1551 86.6221 31.1048 86.5059 31.1048 86.3565C31.1048 86.0411 31.2054 85.6074 31.3899 85.0424L32.2466 82.366H36.0417L36.7638 84.5106C37.0829 85.4258 37.2511 86.0073 37.2511 86.2569C37.2511 86.4395 37.184 86.5728 37.0661 86.6553C36.9482 86.7549 36.7475 86.8052 36.4279 86.839V87.1217L38.4934 86.9889L39.8537 87.1217V86.839C39.5513 86.7731 39.3328 86.6553 39.1987 86.4898C39.0808 86.3233 38.9131 85.9238 38.6779 85.2593L35.6891 76.7132ZM92.481 74.8508V74.5685L90.7178 74.6853L88.9557 74.5685V74.8508C89.3078 74.9177 89.5431 75.0007 89.661 75.1003C89.7951 75.1999 89.8627 75.3996 89.8627 75.6653V86.0234C89.8627 86.2901 89.7951 86.4727 89.661 86.5894C89.5609 86.673 89.3754 86.7549 89.0898 86.8052C88.9044 86.7731 88.7529 86.7062 88.6025 86.606C88.4522 86.5059 88.2834 86.3228 88.0817 86.0904L85.345 82.6321L83.161 80.2213L87.226 75.5828C87.4278 75.3664 87.5955 75.2009 87.7631 75.1008C87.9476 75.0012 88.2164 74.9177 88.5522 74.8513V74.569L86.973 74.6858L85.0253 74.569V74.8513C85.5462 74.8845 85.7982 75.0178 85.7982 75.2507C85.7982 75.4173 85.6127 75.7 85.2433 76.1488L81.499 80.5549H81.4654V75.6658C81.4654 75.4002 81.533 75.2009 81.6509 75.1008C81.7688 75.0007 82.0041 74.9177 82.3562 74.8513V74.569L80.593 74.6858L78.8298 74.569V74.8513C79.183 74.9182 79.4172 75.0012 79.5351 75.1008C79.6703 75.2004 79.7368 75.4002 79.7368 75.6658V86.0239C79.7368 86.2906 79.6703 86.4732 79.5351 86.59C79.4172 86.6896 79.183 86.7736 78.8298 86.839V87.1217L80.593 86.9889L82.3562 87.1217V86.839C82.0041 86.7731 81.7688 86.6896 81.6509 86.59C81.533 86.4732 81.4654 86.2906 81.4654 86.0239V80.8205C82.9431 82.3333 84.0177 83.514 84.6738 84.3783L86.7718 87.1217L87.881 86.9889L88.9557 87.0714V87.1217L89.1574 87.1056L89.2575 87.1217V87.089L90.7178 86.9894L92.481 87.1222V86.8395C92.1289 86.7736 91.8936 86.6901 91.7757 86.5905C91.6579 86.4737 91.5913 86.2911 91.5913 86.0245V75.6663C91.5913 75.4007 91.6579 75.2015 91.7757 75.1013C91.8936 75.0012 92.1289 74.9177 92.481 74.8508ZM76.1109 74.5348C75.556 74.4362 75.0525 74.3859 74.6155 74.3859C73.2217 74.3859 72.0967 74.7517 71.2065 75.45C70.367 76.1488 69.93 76.9799 69.93 77.977C69.93 79.0747 70.3335 79.8892 71.1389 80.421C71.7603 80.8366 72.9193 81.236 74.6155 81.6013C75.3207 81.7512 75.8243 81.967 76.0931 82.1833C76.4787 82.5159 76.6805 83.0316 76.6805 83.7299C76.6805 84.5272 76.3786 85.1591 75.774 85.625C75.2704 86.0068 74.6495 86.206 73.9269 86.206C73.0378 86.206 72.2979 85.9736 71.7105 85.4912C71.0891 85.0092 70.6699 84.2943 70.4682 83.3797H70.115C70.1826 84.3612 70.2161 85.3583 70.2161 86.3897C71.1226 86.9884 72.1973 87.3048 73.4234 87.3048C74.9849 87.3048 76.1937 86.9054 77.0341 86.1236C77.807 85.4092 78.1927 84.4946 78.1927 83.3309C78.1927 82.1507 77.8233 81.3024 77.0844 80.7702C76.5809 80.4044 75.6566 80.0713 74.3142 79.772C73.1384 79.5064 72.3828 79.2729 72.0637 79.0742C71.6602 78.8076 71.459 78.3427 71.459 77.6771C71.459 77.0452 71.6943 76.5135 72.1816 76.114C72.6851 75.6819 73.4077 75.4655 74.3309 75.4655C75.0362 75.4655 75.6409 75.6326 76.1607 75.9651C76.7653 76.3475 77.1347 76.9456 77.2526 77.7108H77.6058C77.5555 76.5965 77.522 75.699 77.5382 75.0173C77.2521 74.8342 76.7821 74.6687 76.1109 74.5348ZM14.6985 74.5348C14.1442 74.4362 13.6406 74.3859 13.2036 74.3859C11.8098 74.3859 10.6848 74.7517 9.79461 75.45C8.95519 76.1488 8.5182 76.9799 8.5182 77.977C8.5182 79.0747 8.92166 79.8892 9.72754 80.421C10.349 80.8366 11.5075 81.236 13.2036 81.6013C13.9094 81.7512 14.413 81.967 14.6812 82.1833C15.0674 82.5159 15.2691 83.0316 15.2691 83.7299C15.2691 84.5272 14.9668 85.1591 14.3627 85.625C13.8591 86.0068 13.2377 86.206 12.5156 86.206C11.6259 86.206 10.8866 85.9736 10.2992 85.4912C9.67776 85.0092 9.25805 84.2943 9.05685 83.3797H8.70316C8.77075 84.3612 8.80376 85.3583 8.80376 86.3897C9.71025 86.9884 10.7855 87.3048 12.0116 87.3048C13.573 87.3048 14.7824 86.9054 15.6218 86.1236C16.3941 85.4092 16.7803 84.4946 16.7803 83.3309C16.7803 82.1507 16.4109 81.3024 15.6721 80.7702C15.1685 80.4044 14.2448 80.0713 12.9013 79.772C11.7255 79.5064 10.9699 79.2729 10.6508 79.0742C10.2478 78.8076 10.0466 78.3427 10.0466 77.6771C10.0466 77.0452 10.2814 76.5135 10.7687 76.114C11.2722 75.6819 11.9943 75.4655 12.918 75.4655C13.6233 75.4655 14.228 75.6326 14.7483 75.9651C15.353 76.3475 15.7224 76.9456 15.8397 77.7108H16.1924C16.1421 76.5965 16.1085 75.699 16.1253 75.0173C15.8403 74.8342 15.3697 74.6687 14.6985 74.5348ZM34.1271 76.5965H34.1607L35.7221 81.4026H32.5484L34.1271 76.5965ZM29.8619 74.6853L28.2161 74.5685V74.8508C28.6694 74.9177 28.9717 75.0007 29.1226 75.1335C29.2573 75.2502 29.3076 75.4168 29.3076 75.6653C29.3076 75.8489 29.2237 76.2479 29.0723 76.8455L26.9062 84.976H26.8553L24.454 76.5965C24.2863 76.0481 24.2024 75.6819 24.2024 75.4655C24.2024 75.3 24.2863 75.1501 24.454 75.0339C24.6389 74.9172 24.9072 74.8502 25.2431 74.8502V74.568L23.5637 74.6847L21.1115 74.568V74.8502C21.515 74.9172 21.8 75.0002 21.9514 75.0837C22.2035 75.216 22.3879 75.4323 22.4885 75.7156C23.1105 77.5111 23.4291 78.5586 23.4291 78.8745C23.4291 79.0239 23.2273 79.8052 22.8076 81.2516L21.7832 84.8593H21.7497L19.2309 76.4134C19.0795 75.9485 19.0124 75.5994 19.0124 75.3493C19.0124 75.05 19.3148 74.8674 19.9357 74.8502V74.568L17.9713 74.6847L16.3925 74.568V74.8502C16.6949 74.8834 16.9301 75.0002 17.0978 75.2326C17.232 75.4162 17.3666 75.6985 17.484 76.0808L20.8427 87.1207H22.1023L23.9158 80.104H23.9494L25.931 87.1207H27.2237L30.2628 76.1804C30.3807 75.7483 30.5148 75.4323 30.649 75.2492C30.8004 75.0495 31.0189 74.9166 31.2872 74.8497V74.5675L29.8619 74.6853ZM43.5142 80.4371L43.2957 80.4879C43.2286 80.5206 43.1778 80.5709 43.1778 80.6207L47.1742 86.6226C47.3759 86.922 47.5268 87.0885 47.6107 87.1217L48.9709 86.9889L49.8947 87.1217V86.839C49.475 86.8058 48.9882 86.357 48.4003 85.5586L45.159 80.9367C46.0654 80.8532 46.8048 80.5367 47.3922 79.9723C48.0471 79.357 48.3662 78.5762 48.3662 77.645C48.3662 76.7646 48.131 76.0818 47.661 75.5662C47.1234 74.9851 46.3007 74.6858 45.1925 74.6858H40.0874V74.9685C40.44 75.0183 40.6753 75.1013 40.7932 75.217C40.9105 75.3337 40.9781 75.5169 40.9781 75.7825V86.0239C40.9781 86.2906 40.9105 86.4732 40.7932 86.59C40.6753 86.6896 40.44 86.7736 40.0874 86.839V87.1217L41.8506 86.9889L43.6138 87.1217V86.839C43.2611 86.7731 43.0264 86.6896 42.9085 86.59C42.7743 86.4732 42.7073 86.2906 42.7073 86.0239V75.7825H43.6646C44.5711 75.7825 45.2428 75.9163 45.7128 76.1488C46.3342 76.4813 46.6366 77.0624 46.6366 77.894C46.6366 78.7256 46.351 79.357 45.7631 79.8062C45.2271 80.2213 44.472 80.4371 43.5142 80.4371ZM54.8499 75.6995C55.4211 75.6995 55.9582 75.8323 56.4779 76.1145C56.9988 76.3812 57.452 76.7801 57.8717 77.2792C58.762 78.3759 59.2152 79.7393 59.2152 81.3849C59.2152 82.8318 58.8296 83.9955 58.0729 84.8437C57.3844 85.5913 56.5277 85.9741 55.5206 85.9741C54.2442 85.9741 53.169 85.3921 52.3469 84.2118C51.574 83.1317 51.2046 81.8513 51.2046 80.3883C51.2046 78.8086 51.6579 77.578 52.5481 76.7137C52.89 76.3786 53.295 76.1131 53.7402 75.9324C54.1274 75.782 54.4968 75.6995 54.8499 75.6995ZM70.5331 74.5685L69.207 74.6853L67.6114 74.5685V74.8508C68.1663 74.968 68.4341 75.1662 68.4341 75.4328C68.4341 75.6165 68.3675 75.9817 68.1988 76.5135L65.6801 84.8598H65.6465L62.8259 76.2479C62.7081 75.8816 62.6405 75.5994 62.6405 75.4162C62.6405 75.216 62.708 75.0837 62.8422 75.0002C62.9763 74.9172 63.2116 74.8502 63.5307 74.8502V74.568L62.0017 74.6847L59.8702 74.568V74.8502C60.2223 74.8834 60.4738 74.9841 60.6431 75.1657C60.7609 75.2653 60.861 75.4489 60.9611 75.7156L64.8396 87.1207H66.0154L69.4747 75.8972C69.6764 75.2653 70.0296 74.9166 70.5331 74.8497V74.5685Z" fill="#181818"></path></svg>