<svg width="85" height="47" viewBox="0 0 85 47" fill="none" xmlns="http://www.w3.org/2000/svg">
<path fill-rule="evenodd" clip-rule="evenodd" d="M28.8644 14.6143L28.8471 14.98L28.4274 16.0441L28.4442 16.1105C28.4442 16.1769 28.4777 16.2267 28.5285 16.2765L28.6794 16.3429L28.965 16.3932L29.3852 16.2931L29.4355 16.2433L29.7206 16.0441C29.8379 15.9943 29.9391 15.8941 30.0229 15.7779L30.812 14.3315C30.8657 14.2529 30.8948 14.1603 30.8958 14.0654L31.0473 13.9824L31.2317 13.6L31.3323 13.5834L31.4335 13.4672V13.2509L31.5173 13.1845L31.8532 12.5692L31.8699 12.1033L31.6022 11.638L31.6525 11.389L31.4507 11.4061L31.3166 11.1897L31.0813 11.1067L30.9137 11.1731C30.8466 11.1731 30.8131 11.1897 30.7622 11.2395C30.6616 11.3724 30.5946 11.5057 30.561 11.6717L30.3425 11.7049L30.2755 11.7381L29.9731 11.7547L29.8217 11.971L29.8049 12.1205L29.7211 12.2035L29.6708 12.536L29.6037 12.7191C29.5534 12.9521 29.436 13.1513 29.2678 13.3344L29.2343 13.9165L29.1337 14.0664C29.1332 14.3149 29.0326 14.4981 28.8644 14.6143ZM44.666 14.6309L44.13 15.0796L44.0613 15.146L43.9272 15.379H43.8266L43.6411 15.5118L43.5573 15.462L43.3728 15.6119L43.3891 15.7281L43.4226 15.8116L43.0191 16.0778L42.885 16.111L42.8179 16.3107L42.5664 16.4098L42.6167 16.6261L42.6005 16.6926L42.3484 16.8093L41.9287 17.1086L41.8617 17.1745L41.8108 17.3073L41.6432 17.341L41.4079 17.7732C41.2536 17.8598 41.1259 17.9862 41.0385 18.1389L40.9547 18.2723C40.9095 18.3355 40.8445 18.3822 40.7697 18.4051C40.6759 18.4675 40.6005 18.5534 40.5512 18.6541L40.5344 18.6873C40.5512 18.7376 40.5344 18.7874 40.5014 18.804L40.3332 18.7376L40.2326 18.8206L40.1991 19.0198C40.1445 19.0366 40.086 19.0366 40.0314 19.0198L39.9811 19.0364L39.8968 19.1195L39.9135 19.3856C39.8129 19.5128 39.6941 19.6249 39.5609 19.7181L39.5106 19.7845L39.477 19.9345L39.0238 20.4502L38.8561 20.4834L38.6209 20.8491L38.4364 20.8657L38.285 20.9824L38.1509 21.5313L38.033 21.6143L37.8988 21.8639L37.7809 21.8473L37.5965 22.0133C37.6971 22.0797 37.7139 22.1461 37.6468 22.1964L37.5121 22.3795L37.3942 22.3961L37.1092 23.028L36.7901 23.2112L36.6895 23.3611L36.7062 23.5271L36.5213 23.6931L36.4877 23.8928L36.4207 23.9426L36.4877 24.1595L36.4547 24.242L36.1692 24.6415L35.9344 24.8412L35.9004 24.9403C35.8836 25.0404 35.8165 25.0897 35.7154 25.1405C35.6819 25.1405 35.6656 25.1566 35.6483 25.1732L35.5142 25.3398C35.4639 25.306 35.4136 25.306 35.3801 25.3398L35.1783 25.5556L34.9095 25.5052L34.7419 25.5722L34.4395 25.4892L34.3892 25.4051L34.0863 25.373L34.0193 25.389L33.8851 25.4892L33.7002 25.2059L33.4984 25.1893L33.4314 25.1234L33.4146 25.0565C33.3978 24.9735 33.3643 24.9237 33.2967 24.8568L33.2464 24.8075L33.0117 24.5911L32.9944 24.3245L32.8267 24.2249L32.844 24.0417V23.9421C32.8267 23.8596 32.7937 23.8093 32.7261 23.7263L32.7596 23.344L32.8602 23.2112L32.877 22.9118L33.062 22.6789L33.0117 22.5289L33.1961 22.3131L33.2129 22.2628L33.2799 22.1466C33.2935 22.0952 33.3187 22.0474 33.3537 22.0071C33.3886 21.9667 33.4324 21.9348 33.4817 21.9137L33.5147 21.7471L33.6153 21.6475C33.6656 21.5977 33.6824 21.5308 33.6997 21.4815C33.8037 21.3609 33.8989 21.2331 33.9847 21.0992C34.1194 20.833 34.287 20.6001 34.4882 20.3843L35.9161 18.8217C35.9999 18.7221 36.067 18.6385 36.1346 18.5223L36.5711 17.9236L36.8058 17.7073L36.9399 17.6575L36.9735 17.408L37.2087 17.2248V17.092C37.3261 17.0256 37.41 16.9255 37.4603 16.8093C37.484 16.7671 37.5178 16.7314 37.5587 16.7053C37.5997 16.6791 37.6465 16.6634 37.695 16.6593L37.7458 16.6261C37.7961 16.6261 37.8297 16.5929 37.88 16.5426L38.0985 16.1769L38.2661 16.0269L38.4176 15.7608L38.8708 15.2622L38.9211 15.1792C39.0049 14.9961 39.1396 14.8135 39.3073 14.647L39.324 14.564L39.4414 14.4643L39.5085 14.3647L40.0964 13.3837L40.2138 13.2504L41.1375 11.7371C41.1878 11.6209 41.2717 11.5373 41.3555 11.4543C41.3052 11.2551 41.3393 11.072 41.4734 10.8894L41.5069 10.8567C41.574 10.7898 41.6075 10.74 41.6243 10.673L41.5913 10.4738C41.6623 10.228 41.7183 9.97818 41.759 9.72571L41.8428 9.26036L41.9099 9.07722C41.9769 8.91121 41.9769 8.72808 41.9266 8.52835L41.9099 8.44534L41.9266 8.2124L41.7925 6.96575L41.7422 6.88274L41.6416 6.6166C41.5807 6.4374 41.5018 6.26466 41.4063 6.10092L41.0202 5.43635L40.8693 5.28642L40.4831 5.02028L40.2813 4.78735L40.1472 4.75466L40.0125 4.67114C39.8638 4.57204 39.6883 4.51978 39.509 4.52121L39.4419 4.488L39.1904 4.4216L39.1401 4.37179L38.1828 4.20526L37.8973 4.25507L37.5781 4.17206L37.0075 4.32147C36.8131 4.2904 36.6136 4.31938 36.4364 4.40448L36.352 4.43768L35.9491 4.53729L35.7641 4.63742L35.5629 4.65402C35.5126 4.6867 35.4623 4.7033 35.4115 4.72042L35.1762 4.83663C35.1092 4.86983 35.0589 4.90356 34.9913 4.92016L33.5639 5.45192L33.5131 5.468L33.161 5.58473L33.0766 5.66773L32.7581 5.76734L32.5904 5.83375C32.4227 5.93335 32.2378 5.99976 32.0528 6.08328C31.5996 6.2327 31.2129 6.49884 30.8607 6.84798L30.5919 7.014L30.5752 7.097L30.3237 7.22981C30.2901 7.31282 30.2398 7.37974 30.156 7.46275L30.1225 7.49543L29.8537 7.66197L29.6524 8.01111L29.5681 8.04431L29.5178 8.21033L29.1651 8.95842L29.0661 9.36049C29.0158 9.42689 28.999 9.51042 29.0158 9.59342L29.0493 9.65983C28.9482 9.85904 28.9482 10.0754 29.0158 10.2751V10.3249L28.999 10.3581C28.9823 10.4411 29.0158 10.5241 29.1169 10.5911V10.6243C29.1169 10.7405 29.1337 10.8733 29.184 11.0061L29.217 11.073L29.3181 11.2561V11.3724L29.5194 11.6717L29.7379 11.6883L29.8893 11.4554L29.9899 11.4388L30.0743 11.472L30.3258 11.5052L30.3761 11.5384C30.4431 11.5716 30.4767 11.555 30.4934 11.4886V11.4554C30.527 11.2561 30.4767 11.073 30.3085 10.9402L30.1576 10.8572L29.9726 10.4079V10.3249C29.9726 10.2751 30.0061 10.2248 30.0564 10.175L30.1738 10.092L30.2576 9.85904L30.5767 9.67591L30.8288 9.74232L31.0137 9.5597L31.0305 8.9771L31.2322 8.87801C31.3166 8.82769 31.3999 8.79449 31.501 8.82769H31.5513L31.7531 8.92781C31.8041 9.01962 31.8328 9.12193 31.8369 9.22664L31.8201 9.29304C31.7706 9.39081 31.7145 9.48526 31.6525 9.57578C31.5199 9.64604 31.4139 9.75688 31.3501 9.89173L31.3334 9.97473V10.1413L31.4507 10.3576C31.4729 10.4025 31.506 10.4412 31.5471 10.4702C31.5882 10.4992 31.6359 10.5175 31.686 10.5236L31.8537 10.59C32.0046 10.6066 32.1052 10.6896 32.1723 10.839V11.238C32.1723 11.321 32.156 11.3708 32.1052 11.4211L31.8196 11.5711L31.9543 11.887V11.9368C31.9873 12.0364 32.0549 12.1028 32.122 12.1028L32.2399 12.053C32.3405 11.97 32.4075 11.8538 32.4411 11.7371L32.6093 11.5871L33.1301 11.5207L33.5163 11.3547L34.1377 10.8562L34.7088 10.1745L34.7759 9.85853L34.8094 9.75892C34.8933 9.69251 34.9776 9.64271 35.0615 9.6261L35.2291 9.14363C35.2962 9.11043 35.347 9.07723 35.3968 9.04402L35.3298 8.82769L35.565 8.66115L35.6153 8.54494L35.7662 8.46194L35.8165 8.31253L35.9847 8.26221L36.0015 8.1958L36.0853 8.09619C36.1362 8.04639 36.2195 8.01319 36.3206 7.99658L36.3709 7.83005L36.438 7.81345L36.5218 7.74705L36.4883 7.63032L36.6565 7.4643L36.7906 7.4311L36.9923 7.19817L37.1941 7.21477L37.2611 7.11464L37.8323 7.08196L37.8993 7.06536C37.9472 7.0501 37.9924 7.02771 38.0335 6.99895L38.4369 7.11516L38.4537 7.18156L38.4872 7.21477L38.8058 7.48091L39.0076 8.02979V8.2124L39.1082 8.31253L39.0746 9.04402L39.2591 8.97762L39.1752 9.12755L39.2423 9.16075C39.192 9.14415 39.1585 9.16075 39.1417 9.22716L39.0243 9.5265L39.0076 9.5597L38.9908 9.67591L39.0076 9.72623L39.0411 9.82584C39.0411 9.85852 39.0243 9.87564 38.9908 9.87564L38.9573 10.1081L38.8567 10.2746L38.907 10.3737L38.7393 10.59V10.673L38.5376 10.8396L38.5208 11.0725L38.3358 11.4216L38.2688 11.4548C38.1346 11.4714 38.0503 11.5716 38.0335 11.7044V11.8875L37.5467 12.4027L37.4959 12.6688L37.3785 12.8353L37.2947 12.8519L37.1941 12.9848V13.0849L36.9756 13.351C36.8079 13.5176 36.6732 13.7334 36.5894 13.9663C36.5223 14.1494 36.4385 14.2823 36.3206 14.3653L36.2535 14.4311L36.1189 14.5147L35.1956 15.5782L35.1118 15.5948L35.0447 15.6612C35.0011 15.756 34.9314 15.8368 34.8435 15.8941C34.8456 15.942 34.8359 15.9896 34.8154 16.033C34.7949 16.0763 34.7641 16.1141 34.7256 16.1432C34.6921 16.1598 34.6585 16.1935 34.625 16.1935C34.5417 16.2159 34.4642 16.2556 34.3976 16.31C34.331 16.3644 34.2769 16.4322 34.2388 16.5089L34.0539 16.5758L33.8862 16.8746V16.9743L33.3313 17.4744C33.2808 17.598 33.2066 17.7107 33.1128 17.8064L32.7769 18.1389L32.7434 18.1893C32.7099 18.2557 32.6763 18.3055 32.6255 18.3221L32.5087 18.3719L32.3572 18.555C32.3069 18.6541 32.2566 18.721 32.1895 18.7542C32.0889 18.8206 32.0219 18.9208 31.9548 19.0204L31.9213 19.1039C31.8207 19.2367 31.7028 19.3529 31.5854 19.453V19.6362L31.6525 19.7192L31.4345 19.7524L31.0483 20.1679C30.9975 20.2177 30.9975 20.2343 31.0651 20.2177L30.0072 21.5313C29.8055 21.7642 29.7048 21.9137 29.6881 22.0138C29.6881 22.1134 29.6042 22.2799 29.4696 22.4963L29.0499 23.1608C28.8984 23.3772 28.714 23.7595 28.5123 24.3245C28.2938 24.89 28.1093 25.7548 27.9411 26.9023L27.9244 27.0844L27.8908 27.0186L27.8238 27.251L27.9081 27.417L27.8411 27.8995L27.9081 28.0323L27.8573 28.149L27.9411 28.7477C27.9411 28.8805 27.9579 28.9962 28.025 29.1134L28.0417 29.1466C28.1256 29.1959 28.1596 29.2794 28.1596 29.3464L28.1093 29.6457L28.2943 29.7277V29.8781L28.2272 29.9611L28.3111 30.2771L28.5296 30.2434C28.5961 30.2771 28.6296 30.343 28.6134 30.4265L28.5631 30.7098L28.7145 30.9422L28.8487 30.8752L28.899 31.0418L28.8151 31.1746L28.8822 31.2249L30.0072 31.1746L30.0402 31.158L30.0575 31.1746H30.2587L30.2755 31.158L30.309 31.1746L55.1786 31.1077C59.8975 22.7619 61.9625 12.5702 61.3914 0.515625C58.268 3.85767 52.8443 8.4469 45.0868 14.2828L45.103 14.2994H45.0527L44.9516 14.3824L44.7174 14.6153L44.666 14.6309ZM47.3535 33.3857C46.6812 33.3857 45.9932 33.5346 45.3047 33.8682C44.609 34.1903 43.982 34.6415 43.4577 35.1973C42.8797 35.7957 42.4185 36.4949 42.0975 37.2595C41.7545 38.0938 41.5778 38.9859 41.5771 39.8866C41.5771 41.7149 42.0639 43.2111 43.0207 44.4089C44.0288 45.6732 45.3891 46.3046 47.1009 46.3046C48.7813 46.3046 50.1741 45.6224 51.2823 44.2424C51.7858 43.6266 52.1552 42.9117 52.4418 42.1309C52.7101 41.3325 52.8443 40.5185 52.8443 39.6869C52.8443 38.0569 52.4246 36.6442 51.5678 35.4806C50.577 34.084 49.167 33.3857 47.3535 33.3857ZM27.6891 35.713C27.3532 34.7159 27.152 34.017 27.1012 33.5683L26.1779 33.685L24.8345 33.5683V33.8505C25.053 33.9174 25.2039 33.9678 25.2542 34.017C25.3553 34.1 25.4056 34.2495 25.4056 34.4492C25.4056 34.6328 25.3721 34.8487 25.2877 35.0811L22.1475 44.5583C21.9798 45.0901 21.8284 45.4393 21.6943 45.5892C21.5601 45.7386 21.3416 45.8216 21.0393 45.8382V46.1209L22.6348 45.9881L24.0286 46.1209V45.8382C23.6759 45.8216 23.4407 45.7884 23.2898 45.6888C23.1551 45.6219 23.1048 45.5057 23.1048 45.3563C23.1048 45.0408 23.2054 44.6071 23.3899 44.0422L24.2466 41.3657H28.0417L28.7638 43.5104C29.0829 44.4255 29.2511 45.0071 29.2511 45.2566C29.2511 45.4393 29.184 45.5726 29.0661 45.6551C28.9482 45.7547 28.7475 45.805 28.4279 45.8387V46.1215L30.4934 45.9887L31.8537 46.1215V45.8387C31.5513 45.7728 31.3328 45.6551 31.1987 45.4896C31.0808 45.323 30.9131 44.9236 30.6779 44.259L27.6891 35.713ZM84.481 33.8505V33.5683L82.7178 33.685L80.9557 33.5683V33.8505C81.3078 33.9174 81.5431 34.0004 81.661 34.1C81.7951 34.1997 81.8627 34.3994 81.8627 34.665V45.0232C81.8627 45.2898 81.7951 45.4725 81.661 45.5892C81.5609 45.6727 81.3754 45.7547 81.0898 45.805C80.9044 45.7728 80.7529 45.7059 80.6025 45.6058C80.4522 45.5057 80.2834 45.3225 80.0817 45.0901L77.345 41.6319L75.161 39.221L79.226 34.5825C79.4278 34.3662 79.5955 34.2007 79.7631 34.1006C79.9476 34.001 80.2164 33.9174 80.5522 33.851V33.5688L78.973 33.6855L77.0253 33.5688V33.851C77.5462 33.8842 77.7982 34.0176 77.7982 34.2505C77.7982 34.417 77.6127 34.6998 77.2433 35.1485L73.499 39.5546H73.4654V34.6655C73.4654 34.3999 73.533 34.2007 73.6509 34.1006C73.7688 34.0004 74.0041 33.9174 74.3562 33.851V33.5688L72.593 33.6855L70.8298 33.5688V33.851C71.183 33.918 71.4172 34.001 71.5351 34.1006C71.6703 34.2002 71.7368 34.3999 71.7368 34.6655V45.0237C71.7368 45.2904 71.6703 45.473 71.5351 45.5897C71.4172 45.6893 71.183 45.7734 70.8298 45.8387V46.1215L72.593 45.9887L74.3562 46.1215V45.8387C74.0041 45.7728 73.7688 45.6893 73.6509 45.5897C73.533 45.473 73.4654 45.2904 73.4654 45.0237V39.8202C74.9431 41.333 76.0177 42.5138 76.6738 43.3781L78.7718 46.1215L79.881 45.9887L80.9557 46.0711V46.1215L81.1574 46.1054L81.2575 46.1215V46.0888L82.7178 45.9892L84.481 46.122V45.8392C84.1289 45.7734 83.8936 45.6898 83.7757 45.5902C83.6579 45.4735 83.5913 45.2909 83.5913 45.0242V34.6661C83.5913 34.4004 83.6579 34.2012 83.7757 34.1011C83.8936 34.001 84.1289 33.9174 84.481 33.8505ZM68.1109 33.5346C67.556 33.436 67.0525 33.3857 66.6155 33.3857C65.2217 33.3857 64.0967 33.7514 63.2065 34.4497C62.367 35.1485 61.93 35.9796 61.93 36.9767C61.93 38.0745 62.3335 38.889 63.1389 39.4208C63.7603 39.8363 64.9193 40.2358 66.6155 40.601C67.3207 40.7509 67.8243 40.9668 68.0931 41.1831C68.4787 41.5156 68.6805 42.0313 68.6805 42.7296C68.6805 43.527 68.3786 44.1589 67.774 44.6248C67.2704 45.0066 66.6495 45.2058 65.9269 45.2058C65.0378 45.2058 64.2979 44.9734 63.7105 44.4909C63.0891 44.009 62.6699 43.2941 62.4682 42.3794H62.115C62.1826 43.361 62.2161 44.3581 62.2161 45.3895C63.1226 45.9881 64.1973 46.3046 65.4234 46.3046C66.9849 46.3046 68.1937 45.9051 69.0341 45.1233C69.807 44.4089 70.1927 43.4943 70.1927 42.3307C70.1927 41.1504 69.8233 40.3022 69.0844 39.7699C68.5809 39.4042 67.6566 39.0711 66.3142 38.7718C65.1384 38.5061 64.3828 38.2727 64.0637 38.074C63.6602 37.8073 63.459 37.3425 63.459 36.6769C63.459 36.045 63.6943 35.5132 64.1816 35.1138C64.6851 34.6816 65.4077 34.4653 66.3309 34.4653C67.0362 34.4653 67.6409 34.6323 68.1607 34.9649C68.7653 35.3472 69.1347 35.9454 69.2526 36.7106H69.6058C69.5555 35.5962 69.522 34.6987 69.5382 34.017C69.2521 33.8339 68.7821 33.6684 68.1109 33.5346ZM6.69852 33.5346C6.14415 33.436 5.64061 33.3857 5.20361 33.3857C3.80983 33.3857 2.68485 33.7514 1.79461 34.4497C0.955195 35.1485 0.518196 35.9796 0.518196 36.9767C0.518196 38.0745 0.92166 38.889 1.72754 39.4208C2.34898 39.8363 3.50749 40.2358 5.20361 40.601C5.90941 40.7509 6.41295 40.9668 6.68123 41.1831C7.0674 41.5156 7.26913 42.0313 7.26913 42.7296C7.26913 43.527 6.9668 44.1589 6.36265 44.6248C5.85911 45.0066 5.23767 45.2058 4.51563 45.2058C3.62591 45.2058 2.88658 44.9734 2.2992 44.4909C1.67776 44.009 1.25805 43.2941 1.05685 42.3794H0.703161C0.770754 43.361 0.803764 44.3581 0.803764 45.3895C1.71025 45.9881 2.78545 46.3046 4.01156 46.3046C5.57302 46.3046 6.78236 45.9051 7.62177 45.1233C8.39412 44.4089 8.78029 43.4943 8.78029 42.3307C8.78029 41.1504 8.41088 40.3022 7.67207 39.7699C7.16853 39.4042 6.24476 39.0711 4.90128 38.7718C3.72547 38.5061 2.96989 38.2727 2.65079 38.074C2.24785 37.8073 2.04664 37.3425 2.04664 36.6769C2.04664 36.045 2.28138 35.5132 2.76868 35.1138C3.27223 34.6816 3.99427 34.4653 4.91804 34.4653C5.62332 34.4653 6.22799 34.6323 6.7483 34.9649C7.35297 35.3472 7.72238 35.9454 7.83975 36.7106H8.19238C8.14208 35.5962 8.10855 34.6987 8.12532 34.017C7.84027 33.8339 7.36974 33.6684 6.69852 33.5346ZM26.1271 35.5962H26.1607L27.7221 40.4023H24.5484L26.1271 35.5962ZM21.8619 33.685L20.2161 33.5683V33.8505C20.6694 33.9174 20.9717 34.0004 21.1226 34.1333C21.2573 34.25 21.3076 34.4165 21.3076 34.665C21.3076 34.8487 21.2237 35.2476 21.0723 35.8453L18.9062 43.9757H18.8553L16.454 35.5962C16.2863 35.0479 16.2024 34.6816 16.2024 34.4653C16.2024 34.2998 16.2863 34.1499 16.454 34.0336C16.6389 33.9169 16.9072 33.85 17.2431 33.85V33.5678L15.5637 33.6845L13.1115 33.5678V33.85C13.515 33.9169 13.8 33.9999 13.9514 34.0835C14.2035 34.2157 14.3879 34.4321 14.4885 34.7153C15.1105 36.5109 15.4291 37.5583 15.4291 37.8743C15.4291 38.0237 15.2273 38.805 14.8076 40.2514L13.7832 43.859H13.7497L11.2309 35.4131C11.0795 34.9483 11.0124 34.5991 11.0124 34.3491C11.0124 34.0497 11.3148 33.8671 11.9357 33.85V33.5678L9.97129 33.6845L8.39254 33.5678V33.85C8.69488 33.8832 8.93015 33.9999 9.09782 34.2323C9.23196 34.416 9.36662 34.6982 9.48399 35.0806L12.8427 46.1204H14.1023L15.9158 39.1038H15.9494L17.931 46.1204H19.2237L22.2628 35.1802C22.3807 34.748 22.5148 34.4321 22.649 34.2489C22.8004 34.0492 23.0189 33.9164 23.2872 33.8495V33.5673L21.8619 33.685ZM35.5142 39.4368L35.2957 39.4877C35.2286 39.5204 35.1778 39.5707 35.1778 39.6205L39.1742 45.6224C39.3759 45.9217 39.5268 46.0883 39.6107 46.1215L40.9709 45.9887L41.8947 46.1215V45.8387C41.475 45.8055 40.9882 45.3568 40.4003 44.5583L37.159 39.9364C38.0654 39.8529 38.8048 39.5365 39.3922 38.972C40.0471 38.3567 40.3662 37.5759 40.3662 36.6447C40.3662 35.7643 40.131 35.0816 39.661 34.5659C39.1234 33.9849 38.3007 33.6855 37.1925 33.6855H32.0874V33.9683C32.44 34.0181 32.6753 34.1011 32.7932 34.2168C32.9105 34.3335 32.9781 34.5166 32.9781 34.7823V45.0237C32.9781 45.2904 32.9105 45.473 32.7932 45.5897C32.6753 45.6893 32.44 45.7734 32.0874 45.8387V46.1215L33.8506 45.9887L35.6138 46.1215V45.8387C35.2611 45.7728 35.0264 45.6893 34.9085 45.5897C34.7743 45.473 34.7073 45.2904 34.7073 45.0237V34.7823H35.6646C36.5711 34.7823 37.2428 34.9161 37.7128 35.1485C38.3342 35.4811 38.6366 36.0621 38.6366 36.8937C38.6366 37.7254 38.351 38.3567 37.7631 38.806C37.2271 39.221 36.472 39.4368 35.5142 39.4368ZM46.8499 34.6993C47.4211 34.6993 47.9582 34.8321 48.4779 35.1143C48.9988 35.3809 49.452 35.7799 49.8717 36.279C50.762 37.3757 51.2152 38.7391 51.2152 40.3847C51.2152 41.8316 50.8296 42.9952 50.0729 43.8435C49.3844 44.591 48.5277 44.9739 47.5206 44.9739C46.2442 44.9739 45.169 44.3918 44.3469 43.2116C43.574 42.1314 43.2046 40.8511 43.2046 39.3881C43.2046 37.8084 43.6579 36.5778 44.5481 35.7135C44.89 35.3783 45.295 35.1129 45.7402 34.9322C46.1274 34.7817 46.4968 34.6993 46.8499 34.6993ZM62.5331 33.5683L61.207 33.685L59.6114 33.5683V33.8505C60.1663 33.9678 60.4341 34.1659 60.4341 34.4326C60.4341 34.6162 60.3675 34.9815 60.1988 35.5132L57.6801 43.8595H57.6465L54.8259 35.2476C54.7081 34.8813 54.6405 34.5991 54.6405 34.416C54.6405 34.2157 54.708 34.0834 54.8422 33.9999C54.9763 33.9169 55.2116 33.85 55.5307 33.85V33.5678L54.0017 33.6845L51.8702 33.5678V33.85C52.2223 33.8832 52.4738 33.9838 52.6431 34.1654C52.7609 34.265 52.861 34.4487 52.9611 34.7153L56.8396 46.1204H58.0154L61.4747 34.8969C61.6764 34.265 62.0296 33.9164 62.5331 33.8495V33.5683Z" fill="#181818"/>
</svg>
