<svg width="120" height="16" viewBox="0 0 120 16" xmlns="http://www.w3.org/2000/svg">
    <path d="m27.5 3.8.5 2.8h-.3c-.4-1.8-2-2.5-3.7-2.5-.3 0-.5 0-.9.1v4.9h.6c1.4 0 2.2-.5 2.2-1.7h.3v4H26c-.1-.9-.4-1.9-2.2-1.9h-.7V14c0 .7.3 1.2 1.4 1.2v.3h-4.8v-.3c1.1 0 1.4-.4 1.4-1.2V5.3c0-.7-.4-1.2-1.5-1.2v-.3h7.9zm9.6 0 .5 2.8h-.3c-.4-1.8-2-2.5-3.7-2.5-.3 0-.5 0-.9.1v4.9h.6c1.4 0 2.2-.5 2.2-1.7h.3v4h-.2c-.1-.9-.4-1.9-2.2-1.9h-.7V14c0 .7.3 1.2 1.4 1.2v.3h-4.8v-.3c1.1 0 1.4-.4 1.4-1.2V5.3c0-.7-.4-1.2-1.5-1.2v-.3h7.9zm-19.7 0v.3c-.8 0-1.3.4-1.3 1.2V14c0 .8.5 1.2 1.3 1.2v.3h-4.5v-.3c.8-.1 1.3-.4 1.3-1.2V5.3c0-.7-.5-1.2-1.3-1.2v-.3h4.5zM11.6.6l.5 3.5h-.2C11.2 2.3 10 1 7.6 1v12.3c0 1.3.7 1.8 1.6 1.8v.3H3.7v-.3c.7 0 1.7-.4 1.7-1.8V1.1C2.9 1.1 1.8 2.2 1 4.2H.7L1.1.7h10.5V.6zm65.9 11c0 1.8 1.3 3.2 3.2 3.2.8 0 1.8-.4 2.4-1.2l-3.7-4.8c-1 .3-1.9 1.3-1.9 2.8zm5.1-7.2c0-1.5-.6-2.2-1.9-2.2-1.3 0-2 .7-2 2 0 1.4 1.9 3.3 1.9 3.3 1.4-.9 2-1.7 2-3.1zm-1.8 3.4 3.2 4s.3-.6.4-1.3c0-.7-.4-1-1-1.1v-.2h3.5s.1.2 0 .2c-.6.1-1.1.3-1.6.7-.4.5-.6.9-1 2l1.5 1.8c.6.7 1.5 1.2 2.4 1.2v.3h-3.7v-.3l-1.1-1.3c-.9.9-2.4 1.7-3.8 1.7-2.3 0-3.8-1.3-3.8-3.1 0-1.9 1.8-3.2 3.3-4.1 0 0-1.6-1.8-1.6-3.4 0-1.8 1.4-3.2 3.3-3.2 1.7 0 3.1 1.2 3.1 2.7-.1 1.9-2.1 2.6-3.1 3.4zM104.1.4l.2 4.7h-.3c-.5-2.6-2.2-4.1-4.4-4.1-2.6 0-4.4 3.1-4.4 7.1 0 5.1 2 7.2 4.8 7.2 2.9 0 4-2.7 4.3-4.6h.3v2c-.5.9-1.9 2.8-5 2.8-3.9 0-6.9-3.2-6.9-7.4 0-3.9 3.4-7.4 6.9-7.4 2 0 2.6.9 3.4.9.6 0 .9-.4.9-1.2h.2zm14.1 12.9c.6 0 1.1.5 1.1 1.1 0 .6-.5 1-1.1 1-.6 0-1.1-.4-1.1-1s.5-1.1 1.1-1.1zm-10.6-3.9c0 3.6 1.4 5.8 3.6 5.8s3.6-2 3.6-5.8c0-3.4-1.2-5.4-3.6-5.4-2.3 0-3.6 2.3-3.6 5.4zm3.6-5.7c3.3 0 6.1 2.5 6.1 5.9 0 3.3-2.6 5.8-6 5.8-3.3 0-6.1-2.6-6.1-5.8 0-3.1 2.7-5.9 6-5.9zM41.7 6.3l2 4.8h-3.9l1.9-4.8zm6.4 8.8c-.4 0-.7-.4-1-.6-.2-.3-4.7-11.3-4.7-11.3l-4.1 10.1c-.5 1.3-1.1 1.9-2 1.9v.3h3.4v-.3c-.7-.1-1.1-.4-1.1-.9 0-.4 1.1-2.9 1.1-2.9h4.1s1.1 2.4 1.2 2.9c.1.4-.6.9-1.2.9v.3h4.4l-.1-.4zm1.9-1.7c0 1.1-.7 1.6-1.4 1.8v.3H52v-.3c-1-.2-1.5-.9-1.5-1.8V5.9l7.9 9.8V6.3c0-1.3.7-2.1 1.6-2.1v-.3h-3.8V4c1.1.3 1.8 1 1.8 2.2V12l-6.5-8.2h-3.1V4c1.3.1 1.7 1.2 1.7 1.4l-.1 8zm10.3-9.3c.5 0 .6 0 1 .7 0 0 3.6 5.7 3.6 5.8V14c0 .7-.6 1.2-1.6 1.2v.2h5v-.2c-.9-.1-1.5-.5-1.5-1.2v-4s2.3-4.1 2.5-4.5c.5-.9 1.3-1.4 2.2-1.5v-.2h-4.1l.1.2c1.3 0 1.6 1.2 1.1 2l-2.1 3.9-2.6-4.5C63.5 4.6 64 4 65 4v-.2h-4.7v.3z" fill="#181818" fill-rule="evenodd"/>
</svg>
