<svg width="324" height="35" viewBox="0 0 324 35" fill="none" xmlns="http://www.w3.org/2000/svg">
<path d="M0.226562 33.6499H24.6467V28.3139H6.66811V19.3246H20.801V14.2291H6.66811V5.91276H24.2141V0.576857H0.226562V33.6499Z" fill="#181818"/>
<path d="M30.9752 33.6499H53.2322V28.2178H37.4168V0.576857H30.9752V33.6499Z" fill="#181818"/>
<path d="M57.3232 24.2279C57.3232 30.381 62.0341 34.2267 70.735 34.2267C79.6282 34.2267 84.6276 29.9964 84.6276 23.7953C84.6276 10.5276 64.2935 16.873 64.2935 9.32582C64.2935 6.3454 67.1297 4.80713 70.8312 4.80713C74.5326 4.80713 77.2727 6.48962 77.2727 9.5181H83.57C83.57 3.70149 78.5706 0 70.8312 0C62.8994 0 57.8519 4.27834 57.8519 9.95074C57.8519 23.1223 78.0418 16.8249 78.0418 24.4202C78.0418 27.5929 75.3499 29.4196 70.735 29.4196C66.4567 29.4196 63.6205 27.4006 63.6205 24.2279H57.3232Z" fill="#181818"/>
<path d="M87.1326 33.6499H93.6702L96.2661 26.2469H109.966L112.514 33.6499H119.34L107.034 0.576857H99.4388L87.1326 33.6499ZM103.284 6.6819L108.188 21.0552H98.0447L103.092 6.6819H103.284Z" fill="#181818"/>
<path d="M134.159 33.6499H140.601V22.8338H148.388C156.272 22.8338 160.647 18.0267 160.647 11.489C160.647 5.04748 156.272 0.576857 148.388 0.576857H134.159V33.6499ZM147.812 5.76855C151.994 5.76855 154.109 8.12404 154.109 11.5852C154.109 15.0944 151.994 17.6421 147.812 17.6421H140.601V5.76855H147.812Z" fill="#181818"/>
<path d="M166.598 33.6499H191.018V28.3139H173.04V19.3246H187.173V14.2291H173.04V5.91276H190.586V0.576857H166.598V33.6499Z" fill="#181818"/>
<path d="M197.347 33.6499H203.788V21.6321H210.374L217.969 33.6499H224.988L216.767 20.8629C221.334 19.2766 223.738 15.5751 223.738 10.8641C223.738 4.42255 219.459 0.576857 211.528 0.576857H197.347V33.6499ZM211.239 5.76855C215.085 5.76855 217.2 7.73947 217.2 10.9122C217.2 14.181 215.181 16.5846 211.239 16.5846H203.788V5.76855H211.239Z" fill="#181818"/>
<path d="M230.724 33.6499H255.144V28.3139H237.166V19.3246H251.299V14.2291H237.166V5.91276H254.712V0.576857H230.724V33.6499Z" fill="#181818"/>
<path d="M258.152 5.96083H269.352V33.6499H275.794V5.96083H286.994V0.576857H258.152V5.96083Z" fill="#181818"/>
<path d="M284.206 5.96083H295.406V33.6499H301.848V5.96083H313.049V0.576857H284.206V5.96083Z" fill="#181818"/>
<path d="M317.337 33.6499H323.779V0.576857H317.337V33.6499Z" fill="#181818"/>
</svg>
