<svg xmlns="http://www.w3.org/2000/svg" width="112" height="130" viewBox="0 0 112 130" fill="none"><path fill-rule="evenodd" clip-rule="evenodd" d="M23.6989 71.5419C20.4852 73.8138 16.0512 76.5011 12.0118 76.5011C7.89159 76.5011 4.94104 73.7185 4.94104 69.5629C4.94104 67.3055 5.82481 65.1144 6.8184 63.1272C8.74689 59.2703 11.5737 55.8078 14.8973 53.0618C17.4684 50.9433 20.5578 49.3216 23.8012 48.5331C24.6837 48.3185 25.5884 48.2084 26.4967 48.2048C27.6582 48.2048 28.8999 48.3582 29.9301 48.9277L31.4199 49.7388C31.7046 49.8997 32.048 49.9288 32.3623 49.9288C33.4727 49.9288 34.4152 49.2862 35.2693 48.6575L35.6348 49.0375C33.6261 50.396 32.7423 51.8497 31.9167 54.0995L31.5518 53.8584C31.6976 53.3616 31.815 52.8654 31.815 52.339C31.815 49.7678 28.6012 48.5697 26.424 48.5697C24.8023 48.5697 23.1516 49.0665 21.7054 49.7754C16.4608 52.3465 12.2825 56.9775 9.76256 62.2074C8.55747 64.6984 7.63709 67.5176 7.63709 70.3159C7.63709 73.6534 9.47029 75.8812 12.8816 75.8812C16.5776 75.8812 20.8437 73.0474 23.8459 71.0387C24.3282 69.9574 24.8616 68.9429 25.5844 67.9999C27.8267 65.0563 31.4646 61.9884 35.3727 61.9884C37.4325 61.9884 38.3819 62.9744 38.4406 64.9686L39.748 62.6897H42.2093L36.468 72.7697C36.2123 73.2159 35.9567 73.7412 35.9567 74.2676C35.9567 74.8736 36.5557 75.224 37.1036 75.224C38.4961 75.224 40.0359 74.0152 41.0867 73.1902L41.1576 73.1346C43.8821 71.0161 46.3585 68.5838 48.0163 65.5229L49.5572 62.6885H52.1574L51.4491 63.9599C52.7419 63.1853 54.2102 62.5427 55.7442 62.5427C56.5913 62.5427 57.446 62.9372 57.446 63.8867C57.446 64.5589 57.0806 65.1359 56.5913 65.5525C56.6866 65.6182 56.7808 65.6617 56.8975 65.6617C57.2928 65.6617 57.6942 65.4125 58.0318 65.2029C58.0684 65.1802 58.1042 65.1579 58.1392 65.1365C60.3536 63.7704 62.3541 61.8425 63.676 59.5997L65.4738 56.5318H67.906L64.8021 61.9442H68.4098L68.2134 62.412H64.626L58.607 72.8435C58.381 73.245 58.1392 73.7127 58.1392 74.1793C58.1392 74.7783 58.8632 75.0497 59.367 75.0497C60.4994 75.0497 61.4849 74.3484 62.3687 73.7052C63.9985 72.5297 65.4883 71.1201 66.9124 69.7023C67.9415 68.6797 68.9426 67.6129 69.7904 66.4374C70.243 65.8088 70.6451 65.1516 71.0466 64.4939L72.1494 62.6897H74.552L68.5998 73.1282C68.3877 73.5006 68.2488 73.9236 68.2488 74.3548C68.2488 74.8144 68.6062 75.2385 69.0809 75.2385C70.4981 75.2385 72.0692 74.048 73.1128 73.1415L77.4375 69.3804C79.8262 66.5967 83.7267 62.1633 87.693 62.1633C88.9707 62.1633 90.4326 62.8286 90.4326 64.2818C90.4326 65.377 89.7016 66.4142 88.9933 67.1748C87.4297 68.8476 85.0916 69.8633 82.9232 70.4548C81.8267 70.7546 80.7384 70.8203 79.606 70.8272C79.2562 71.6238 78.8977 72.442 78.8977 73.3327C78.8977 74.5808 79.986 75.5901 81.2207 75.5901C84.1863 75.5901 88.518 72.5291 90.665 70.8057C92.4826 69.3269 94.1623 67.6863 95.6835 65.904C95.7393 65.8384 95.7956 65.7724 95.8523 65.706C96.382 65.0853 96.939 64.4327 97.3348 63.7199L97.9124 62.6903H100.337L98.5695 66.0359C100.468 64.312 102.784 62.5514 105.48 62.5514C106.364 62.5514 107.057 63.0993 107.057 64.0046C107.057 64.8448 106.32 65.8233 105.429 65.8233C104.961 65.8233 104.486 65.377 104.486 64.9029C104.486 64.151 105.29 63.6025 105.984 63.6025C106.122 63.6025 106.262 63.6171 106.392 63.6316C106.166 63.1644 105.83 62.9448 105.282 62.9448C104.026 62.9448 102.762 63.5584 101.71 64.1865C99.329 65.6036 97.5033 67.7657 96.1233 70.1399L92.6609 76.0787H90.17L95.7863 66.3857C94.5598 67.8314 93.2739 69.1899 91.8282 70.4101C90.2066 71.7767 88.4826 73.0329 86.6633 74.1212C84.793 75.2391 82.682 76.2536 80.4479 76.2536C78.3073 76.2536 76.3271 75.0497 76.3271 72.7331C76.3271 72.0723 76.4825 71.432 76.6376 70.793L76.656 70.7174C76.4741 70.8856 76.2853 71.0622 76.0903 71.2445L76.0894 71.2454C73.8968 73.2962 70.9151 76.0851 67.9641 76.0851C66.7509 76.0851 65.7579 75.6551 65.7579 74.3478C65.7579 73.6166 66.158 72.955 66.5357 72.3305C66.6145 72.2002 66.6924 72.0714 66.7654 71.944L68.7671 68.4304C66.8096 70.5774 64.7353 72.6453 62.3611 74.3251C61.0538 75.2536 59.5274 76.1078 57.883 76.1078C56.8389 76.1078 55.7285 75.4936 55.7285 74.3182C55.7285 73.4694 56.2113 72.649 56.6445 71.9129C56.7113 71.7994 56.7769 71.6879 56.8394 71.5785L61.9155 62.667C61.0035 63.5254 60.0531 64.3421 59.0672 65.1144C58.2124 65.7797 57.2049 66.56 56.0649 66.56C55.3711 66.56 54.7645 66.1289 54.7645 65.3765C54.7645 64.6246 55.4292 64.0255 56.1672 64.0255C56.3787 64.0255 56.5547 64.0912 56.7372 64.1934C56.7883 64.0546 56.8394 63.9012 56.8394 63.7478C56.8394 63.2365 56.1962 62.9221 55.7657 62.9221C54.5089 62.9221 53.1725 63.5357 52.1208 64.1708C51.0615 64.814 50.3823 65.843 49.7763 66.9034L44.5021 76.0776H41.9455L45.7002 69.5181C43.1727 72.1921 39.0821 76.1647 35.2472 76.1647C34.2176 76.1647 33.2606 75.654 33.2606 74.5285C33.2606 73.8283 33.5308 73.1781 33.8161 72.5495C31.9899 74.4559 29.492 76.4134 26.7308 76.4134C24.9267 76.4134 23.3706 75.1421 23.3706 73.2798C23.3706 72.6814 23.531 72.1044 23.6989 71.5419ZM37.9429 64.5433C37.9429 63.2139 36.8988 62.3667 35.5908 62.3667C34.1667 62.3667 32.9686 63.075 31.8507 63.9007C29.5933 65.5514 27.6724 67.8669 26.4452 70.3723C25.985 71.3223 25.598 72.2491 25.598 73.3084C25.598 74.492 26.2993 75.5884 27.5846 75.5884C30.5724 75.5884 33.7135 72.2642 35.4078 69.9923C36.4822 68.5531 37.9429 66.3765 37.9429 64.5433ZM79.9351 70.3881C80.0888 70.3951 80.2414 70.402 80.3976 70.402C82.566 70.402 84.8089 69.3055 86.3498 67.8233C87.3225 66.8884 88.7025 65.1714 88.7025 63.7322C88.7025 62.9797 87.9204 62.6729 87.2632 62.6729C84.3258 62.6735 81.3948 67.5838 79.9138 70.0649L79.913 70.0663C79.8478 70.1755 79.7854 70.2801 79.7259 70.3793C79.7961 70.3818 79.8658 70.385 79.9351 70.3881Z" fill="#181818"></path><path d="M74.5754 59.0508C74.5754 59.5918 74.9775 59.862 75.4813 59.862C76.4087 59.862 76.9862 58.9927 76.9856 58.1235C76.9856 57.6412 76.737 57.1665 76.2117 57.1665C75.379 57.1665 74.5754 58.2548 74.5754 59.0508Z" fill="#181818"></path></svg>