<svg width="43" height="60" viewBox="0 0 43 60" fill="none" xmlns="http://www.w3.org/2000/svg">
<path d="M36.0275 10.2363C28.0197 -0.744568 14.9872 -0.746313 6.97755 10.2363C-3.33297 24.3726 0.215218 48.2349 13.6226 55.858C13.6226 55.858 13.6226 55.858 13.6244 55.858C18.6438 58.7114 24.3542 58.7166 29.3825 55.858C42.8236 48.2157 46.3043 24.3202 36.0275 10.2363ZM6.95801 48.7864C5.34294 46.4216 4.06012 43.72 3.13798 40.7392L7.37555 38.3325C7.32935 39.535 7.05573 46.3256 6.95801 48.7864ZM2.97807 40.2069C2.10213 37.2016 1.62596 34.0358 1.56022 30.781L7.25652 37.7775C4.666 39.247 4.37993 39.4111 2.97807 40.2069ZM36.0453 11.2119C37.6604 13.5749 38.9432 16.2783 39.8653 19.2591L35.6402 21.6587C35.7131 20.0758 35.5585 23.3272 36.0453 11.2119ZM29.5104 39.9242L32.2573 30.8351L34.9793 37.7042C31.5004 39.1161 33.0462 38.4879 29.5104 39.9242ZM31.9339 29.9991C31.0224 33.0183 30.2513 35.5699 28.8494 40.2104L21.5025 44.3814L14.1557 40.2104C13.4023 37.713 12.4855 34.6815 11.0712 29.9991C11.9649 27.041 13.5818 21.6884 14.1557 19.7879C16.7018 18.3428 18.8907 17.0985 21.5025 15.6151C24.0788 17.0776 26.2731 18.3254 28.8494 19.7879C29.4358 21.7303 31.0437 27.0532 31.9339 29.9991ZM10.7478 29.1649L8.02762 22.2992C10.2575 21.4109 3.99083 23.9345 13.4947 20.0758L10.7478 29.1649ZM21.9983 15.273L27.0478 11.5121C27.6892 14.5557 25.8698 6.04955 28.6824 19.0688L21.9983 15.273ZM21.0051 15.273L14.3191 19.0688L15.952 11.5103L21.0051 15.273ZM7.58877 22.6814L10.4884 29.9991L7.58877 37.3168L1.6313 29.9991L7.58877 22.6814ZM15.952 48.4862L14.3191 40.9277L21.0051 44.7235L15.952 48.4862ZM21.9983 44.7252L28.6824 40.9294L27.0496 48.4879L21.9983 44.7252ZM32.2573 29.1649C31.6496 27.1527 32.092 28.6187 29.5104 20.0741C36.454 22.8926 34.2685 22.0165 34.9775 22.2975C33.5667 25.856 33.6556 25.6326 32.2573 29.1649ZM35.0734 21.7478L29.3221 19.4127C29.3114 19.3638 27.5773 11.3393 27.5666 11.2852L35.5176 10.6866L35.0734 21.7478ZM21.5025 14.9641L16.1421 10.9745L21.5025 2.77378L26.8577 10.9676C25.065 12.2555 30.3597 8.36894 21.5025 14.9641ZM8.02585 37.7042C9.96784 32.8002 9.33531 34.3988 10.7478 30.8333C11.1298 32.0969 13.1251 38.7008 13.4947 39.9242C10.6501 38.7688 10.8846 38.8648 8.02585 37.7042ZM21.5025 45.0341L26.8613 49.0255L21.5025 57.2262L16.1421 49.0255L21.5025 45.0341ZM35.4163 22.6814L41.3738 29.9991L35.4146 37.3168L32.5167 29.9991C34.679 24.5418 34.0927 26.0218 35.4163 22.6814ZM27.1384 10.3951L22.0125 2.5504C24.3969 2.63242 26.7173 3.28862 28.9187 4.50329C28.4799 5.95182 27.5986 8.87156 27.1384 10.3951ZM15.8667 10.3951L14.0864 4.50329C16.2878 3.28688 18.6064 2.63242 20.9926 2.5504L15.8667 10.3951ZM15.4385 11.2852C15.3567 11.6657 13.7577 19.0688 13.683 19.4127L7.93167 21.7478L7.48926 10.6866C12.3558 11.0531 10.5986 10.9204 15.4385 11.2852ZM7.3649 21.6587L3.13798 19.2591C4.06012 16.2783 5.34294 13.5767 6.95801 11.2119C7.47149 24.0916 7.30449 20.369 7.3649 21.6587ZM2.97807 19.7931C4.38349 20.5924 4.66778 20.753 7.25652 22.2225L1.56022 29.2173C1.62596 25.9624 2.10213 22.7966 2.97807 19.7931ZM7.48748 49.3134C7.64028 45.5001 7.83572 40.6083 7.92989 38.2522C11.8352 39.8386 10.858 39.4407 13.6813 40.5873C13.7559 40.9311 15.355 48.3326 15.4367 48.7148C10.595 49.0778 12.3558 48.9469 7.48748 49.3134ZM15.8667 49.6031L20.9926 57.4461C18.6064 57.3641 16.2878 56.7079 14.0864 55.4932L15.8667 49.6031ZM27.1384 49.6031L28.9187 55.4932C26.7173 56.7096 24.3987 57.3641 22.0125 57.4461L27.1384 49.6031ZM27.5648 48.7148C27.7212 47.9923 29.1231 41.5018 29.3203 40.5873L35.0716 38.2522L35.5141 49.3134C30.6546 48.9469 32.4154 49.0796 27.5648 48.7148ZM35.6278 38.3325L39.8671 40.7392C38.945 43.72 37.6622 46.4216 36.0471 48.7864C35.9618 46.6747 35.7735 41.9835 35.6278 38.3325ZM35.7486 22.2225C38.3391 20.7512 38.6252 20.5889 40.027 19.7931C40.903 22.7966 41.3791 25.9624 41.4449 29.219C40.7768 28.3988 36.9142 23.6553 35.7486 22.2225ZM35.2884 10.1613C33.3358 10.3079 29.5548 10.5923 27.6075 10.7389L29.4073 4.78602C31.5892 6.08271 33.565 7.88901 35.2884 10.1613ZM13.596 4.78602L15.3941 10.7389C11.4639 10.4423 11.606 10.4545 7.71313 10.1613C9.43837 7.88901 11.4141 6.08271 13.596 4.78602ZM7.71491 49.8387C11.6025 49.5455 11.4568 49.5577 15.3958 49.2611L13.5978 55.214C11.4141 53.9155 9.43837 52.1093 7.71491 49.8387ZM29.4073 55.2122L27.6075 49.2593C31.575 49.5577 31.3014 49.5368 35.2884 49.837C33.565 52.1092 31.5892 53.9155 29.4073 55.2122ZM40.027 40.2069C38.6287 39.4128 39.5722 39.9486 35.7486 37.7775C41.7825 30.3674 40.8195 31.5506 41.4449 30.781C41.3791 34.0358 40.903 37.2016 40.027 40.2069Z" fill="#181818" stroke="#181818" stroke-width="0.25"/>
</svg>
