<svg width="120" height="15" viewBox="0 0 120 15" fill="none" xmlns="http://www.w3.org/2000/svg">
<g clip-path="url(#clip0)">
<path fill-rule="evenodd" clip-rule="evenodd" d="M2.14408 12.4103H5.6221V13.7302H0.735199V1.05024H2.14408V12.4103ZM13.0199 2.1509C15.926 2.1509 18.1712 4.52826 18.1712 7.39054C18.1712 10.2528 15.8815 12.6308 13.0199 12.6308C10.1138 12.6308 7.82411 10.2535 7.82411 7.39054C7.82411 4.52826 10.1138 2.1509 13.0199 2.1509ZM13.0199 0.829699C9.40901 0.829699 6.41523 3.77965 6.41523 7.39054C6.41523 11.0446 9.40901 13.9507 13.0199 13.9507C16.6301 13.9507 19.6239 11.0446 19.6239 7.39054C19.6239 3.77965 16.6301 0.829699 13.0199 0.829699ZM22.8821 8.57888C22.8821 9.54871 22.8821 10.6049 23.4546 11.4412C24.0272 12.1891 25.0841 12.6308 26.0087 12.6308C26.9333 12.6308 27.9018 12.2343 28.4744 11.5295C29.1785 10.6932 29.1347 9.59187 29.1347 8.57888V1.05024H30.5436V8.97477C30.5436 10.3843 30.4114 11.4405 29.3984 12.4973C28.5621 13.422 27.2854 13.95 26.0087 13.95C24.8197 13.95 23.5868 13.5103 22.7505 12.6733C21.6054 11.6172 21.4732 10.4275 21.4732 8.97477V1.05024H22.8821V8.57888ZM33.0531 1.05024H34.462V13.7302H33.0531V1.05024ZM42.7844 3.51527C42.3002 2.63515 41.6838 2.1509 40.6269 2.1509C39.4817 2.1509 38.5133 2.94336 38.5133 4.13238C38.5133 5.18921 39.6139 5.71728 40.4947 6.11384L41.3317 6.4659C42.9611 7.21451 44.3693 8.00696 44.3693 10.0316C44.3693 12.2343 42.6084 13.9507 40.4071 13.9507C38.3372 13.9507 36.8407 12.6308 36.4448 10.6494L37.8092 10.2967C37.9852 11.5733 38.9982 12.6308 40.3632 12.6308C41.7283 12.6308 42.9611 11.6179 42.9611 10.1651C42.9611 8.66723 41.8159 8.18367 40.6276 7.65492L39.8345 7.30286C38.3818 6.6426 37.1051 5.89398 37.1051 4.08854C37.1051 2.10707 38.7783 0.830373 40.6276 0.830373C42.0365 0.830373 43.2255 1.57899 43.9296 2.81185L42.7844 3.51527ZM55.5972 10.7364L59.2074 1.05024H60.704L55.5972 14.4801L50.4452 1.05024H51.9425L55.5972 10.7364ZM63.4779 8.57888C63.4779 9.54871 63.4347 10.6049 64.006 11.4412C64.5792 12.1891 65.6354 12.6308 66.56 12.6308C67.4847 12.6308 68.4976 12.2343 69.0696 11.5295C69.7305 10.6932 69.686 9.59187 69.686 8.57888V1.05024H71.0955V8.97477C71.0955 10.3843 71.0072 11.4405 69.9942 12.4973C69.1141 13.422 67.8367 13.95 66.56 13.95C65.3717 13.95 64.1827 13.5103 63.3012 12.6733C62.2012 11.6172 62.0697 10.4275 62.0697 8.97477V1.05024H63.4779V8.57888ZM73.6496 1.05024H75.0578V13.7302H73.6496V1.05024ZM80.9577 13.7302H79.5495V2.37077H76.5105V1.05024H84.085V2.37077H80.9577V13.7302ZM88.8836 13.7302H87.474V2.37077H84.3932V1.05024H91.9657V2.37077H88.8836V13.7302ZM99.3635 2.1509C102.27 2.1509 104.559 4.52826 104.559 7.39054C104.559 10.2528 102.269 12.6308 99.3635 12.6308C96.5012 12.6308 94.167 10.2535 94.167 7.39054C94.167 4.52826 96.4567 2.1509 99.3635 2.1509ZM99.3635 0.829699C95.7526 0.829699 92.7588 3.77965 92.7588 7.39054C92.7588 11.0446 95.7526 13.9507 99.3635 13.9507C102.973 13.9507 105.967 11.0446 105.967 7.39054C105.967 3.77965 102.973 0.829699 99.3635 0.829699ZM107.993 0.521484L117.855 10.8692V1.05024H119.265V14.3034L109.402 3.95635V13.7302H107.993V0.521484Z" fill="#181818"/>
</g>
<defs>
<clipPath id="clip0">
<rect width="120" height="14" fill="white" transform="translate(0 0.5)"/>
</clipPath>
</defs>
</svg>
