<svg xmlns="http://www.w3.org/2000/svg" width="130" height="130" viewBox="0 0 130 130" fill="none"><path fill-rule="evenodd" clip-rule="evenodd" d="M7.14408 69.9098H10.6221V71.2297H5.7352V58.5498H7.14408V69.9098ZM18.0199 59.6504C20.926 59.6504 23.1712 62.0278 23.1712 64.89C23.1712 67.7523 20.8815 70.1304 18.0199 70.1304C15.1138 70.1304 12.8241 67.753 12.8241 64.89C12.8241 62.0278 15.1138 59.6504 18.0199 59.6504ZM18.0199 58.3292C14.409 58.3292 11.4152 61.2792 11.4152 64.89C11.4152 68.5441 14.409 71.4502 18.0199 71.4502C21.6301 71.4502 24.6239 68.5441 24.6239 64.89C24.6239 61.2792 21.6301 58.3292 18.0199 58.3292ZM27.8821 66.0784C27.8821 67.0482 27.8821 68.1044 28.4546 68.9407C29.0272 69.6886 30.0841 70.1304 31.0087 70.1304C31.9333 70.1304 32.9018 69.7338 33.4744 69.029C34.1785 68.1927 34.1347 67.0914 34.1347 66.0784V58.5498H35.5436V66.4743C35.5436 67.8838 35.4114 68.94 34.3984 69.9968C33.5621 70.9215 32.2854 71.4495 31.0087 71.4495C29.8197 71.4495 28.5868 71.0098 27.7505 70.1728C26.6054 69.1167 26.4732 67.927 26.4732 66.4743V58.5498H27.8821V66.0784ZM38.0531 58.5498H39.462V71.2297H38.0531V58.5498ZM47.7844 61.0148C47.3002 60.1347 46.6838 59.6504 45.6269 59.6504C44.4817 59.6504 43.5133 60.4429 43.5133 61.6319C43.5133 62.6887 44.6139 63.2168 45.4947 63.6134L46.3317 63.9654C47.9611 64.714 49.3693 65.5065 49.3693 67.5311C49.3693 69.7338 47.6084 71.4502 45.4071 71.4502C43.3372 71.4502 41.8407 70.1304 41.4448 68.1489L42.8092 67.7962C42.9852 69.0729 43.9982 70.1304 45.3632 70.1304C46.7283 70.1304 47.9611 69.1174 47.9611 67.6647C47.9611 66.1667 46.8159 65.6832 45.6276 65.1544L44.8345 64.8024C43.3818 64.1421 42.1051 63.3935 42.1051 61.588C42.1051 59.6066 43.7783 58.3299 45.6276 58.3299C47.0365 58.3299 48.2255 59.0785 48.9296 60.3114L47.7844 61.0148ZM60.5972 68.2359L64.2074 58.5498H65.704L60.5972 71.9796L55.4452 58.5498H56.9425L60.5972 68.2359ZM68.4779 66.0784C68.4779 67.0482 68.4347 68.1044 69.006 68.9407C69.5792 69.6886 70.6354 70.1304 71.56 70.1304C72.4847 70.1304 73.4976 69.7338 74.0696 69.029C74.7305 68.1927 74.686 67.0914 74.686 66.0784V58.5498H76.0955V66.4743C76.0955 67.8838 76.0072 68.94 74.9942 69.9968C74.1141 70.9215 72.8367 71.4495 71.56 71.4495C70.3717 71.4495 69.1827 71.0098 68.3012 70.1728C67.2012 69.1167 67.0697 67.927 67.0697 66.4743V58.5498H68.4779V66.0784ZM78.6496 58.5498H80.0578V71.2297H78.6496V58.5498ZM85.9577 71.2297H84.5495V59.8703H81.5105V58.5498H89.085V59.8703H85.9577V71.2297ZM93.8836 71.2297H92.474V59.8703H89.3932V58.5498H96.9657V59.8703H93.8836V71.2297ZM104.364 59.6504C107.27 59.6504 109.559 62.0278 109.559 64.89C109.559 67.7523 107.269 70.1304 104.364 70.1304C101.501 70.1304 99.167 67.753 99.167 64.89C99.167 62.0278 101.457 59.6504 104.364 59.6504ZM104.364 58.3292C100.753 58.3292 97.7588 61.2792 97.7588 64.89C97.7588 68.5441 100.753 71.4502 104.364 71.4502C107.973 71.4502 110.967 68.5441 110.967 64.89C110.967 61.2792 107.973 58.3292 104.364 58.3292ZM112.993 58.021L122.855 68.3688V58.5498H124.265V71.8029L114.402 61.4559V71.2297H112.993V58.021Z" fill="#181818"></path></svg>