<svg width="109" height="19" viewBox="0 0 109 19" fill="none" xmlns="http://www.w3.org/2000/svg">
<path fill-rule="evenodd" clip-rule="evenodd" d="M105.116 1.64153H108.951C108.526 1.96863 108.271 2.36924 108.271 2.91755V16.0224C108.271 16.57 108.537 16.9605 108.951 17.2869H105.116C105.529 16.9605 105.784 16.5599 105.784 16.0224V2.91687C105.785 2.36856 105.54 1.96796 105.116 1.64153ZM16.2286 7.27098C15.602 5.93224 14.9115 4.61441 13.7535 3.65537C12.5213 2.62215 10.9589 2.00033 9.34412 2.00033C5.05235 2.00033 3.12904 5.84794 3.12904 9.63283C3.12904 13.2916 4.9674 16.9915 9.11033 16.9915C10.7992 16.9915 12.4466 16.2645 13.4871 14.946V11.994C13.4871 11.1928 13.2213 10.6768 12.5947 10.2027H16.9823C16.5147 10.7295 16.2286 11.267 16.2286 11.994V14.946C14.2204 16.802 11.7241 17.9398 8.9513 17.9398C4.05399 17.9398 0.0483398 14.366 0.0483398 9.39004C0.0483398 4.4458 4.0003 1.06152 8.83441 1.06152C11.841 1.06152 14.2734 2.15815 16.2286 4.3615V7.27098ZM26.9795 1.64153H31.1122C30.5488 2.05226 30.3578 2.51627 30.3578 3.20149V12.7642C30.3578 15.3884 33.4596 16.6752 35.7336 16.6752C37.9648 16.6752 40.8756 15.379 40.8756 12.8168V3.20149C40.8756 2.55808 40.7159 2.11565 40.2809 1.64153H42.5331C42.0764 2.10554 41.9065 2.56887 41.9065 3.20149V12.8168C41.9065 16.2746 37.7956 17.6025 34.948 17.6025C32.0161 17.6025 27.7345 16.3171 27.7345 12.7642V3.20149C27.7338 2.54797 27.4681 2.06305 26.9795 1.64153ZM68.3687 7.32359C67.8169 5.94236 67.1685 4.73041 66.0315 3.72889C64.8103 2.65317 63.3226 1.97875 61.6766 1.97875C57.4276 1.97875 55.2494 5.66854 55.2494 9.49592C55.2494 13.3435 57.5126 16.9807 61.7085 16.9807C64.832 16.9807 67.0632 14.7983 68.3694 12.1727V15.0195C66.4264 16.9281 63.9186 17.8979 61.1777 17.8979C56.099 17.8979 52.2958 14.6405 52.2958 9.44332C52.2958 4.39387 55.9501 1.07299 60.9331 1.07299C63.695 1.07299 66.3713 2.02191 68.3687 3.90896V7.32359ZM95.0131 7.32359C94.4612 5.94236 93.8115 4.73041 92.6759 3.72889C91.4546 2.65317 89.9669 1.97875 88.3209 1.97875C84.0706 1.97875 81.9033 5.66854 81.9033 9.49592C81.9033 13.3435 84.1555 16.9807 88.3528 16.9807C91.4763 16.9807 93.717 14.7983 95.0137 12.1727V15.0195C93.0694 16.9281 90.5725 17.8979 87.8221 17.8979C82.7433 17.8979 78.9408 14.6405 78.9408 9.44332C78.9408 4.39387 82.5951 1.07299 87.5767 1.07299C90.3387 1.07299 93.0164 2.02191 95.0137 3.90896V7.32359H95.0131Z" fill="#181818"/>
</svg>
