<svg xmlns="http://www.w3.org/2000/svg" xmlns:xlink="http://www.w3.org/1999/xlink" id="Layer_1" x="0px" y="0px" viewBox="0 0 66 50" style="enable-background:new 0 0 66 50;" xml:space="preserve">
<style type="text/css">
	.st0{fill:#181818;}
	.st1{fill:none;stroke:#C6AD8A;}
	.st2{fill:none;stroke:#181818;}
</style>
<path class="st0" d="M65.6,49.5H0.4V0.9V0.4h0.5h64.3h0.5v0.5V49.5z M1.4,48.5h63.3V2.2L47.2,21.8c-1.6,1.8-2.5,2.7-5.2,2.7H24.5  c-2.7,0-4.1-1-5.7-2.7L1.4,2.2V48.5z M2,1.4l17.6,19.8c1.6,1.8,2.8,2.4,4.9,2.4H42c2.2,0,2.8-0.6,4.4-2.4L64,1.4H2z"></path>
<path class="st1" d="M29.5,11.3l3.5,3.5l3.5-3.5"></path>
<path class="st1" d="M33,14.8V6.1"></path>
<path class="st2" d="M17.8,20h30.4"></path>
</svg>