<svg xmlns="http://www.w3.org/2000/svg" xmlns:xlink="http://www.w3.org/1999/xlink" x="0px" y="0px" viewBox="0 0 500 500" style="enable-background:new 0 0 500 500;" xml:space="preserve"><g id="BACKGROUND">	<rect style="fill:#FFFFFF;" width="500" height="500"></rect></g><g id="OBJECTS">	<circle style="fill:#FFFFFF;stroke:#222221;stroke-miterlimit:10;" cx="250" cy="250" r="192.128"></circle>	<g>		<g>			<path style="fill:#FFFFFF;stroke:#222221;stroke-miterlimit:10;" d="M140.734,204.913c1.376,0.986,2.737,1.986,4.081,3.004    c5.375,4.072,10.239,8.685,14.758,13.431c4.511,4.736,8.608,9.764,12.157,15.049c7.195,10.714,11.588,22.823,12.629,35.094    c1.188,14.009-0.758,28.105,2.05,42.028c1.267,6.284,3.536,12.493,7.324,18.041c3.962,5.804,9.617,10.597,15.261,15.245    c12.609,10.384,25.237,20.752,37.941,31.052c1.035,0.839,3.16,0.569,3.448-0.766c0.789-3.65,0.907-7.335,0.297-11.009    c-0.288-1.735-0.739-3.448-1.369-5.119c-0.239-0.634-0.531-1.21-0.883-1.776c-1.862-11.502-4.763-22.888-8.357-34.09    c-4.002-12.473-8.691-24.813-14.19-36.879c-5.334-11.704-11.609-23.143-20.022-33.528c-8.313-10.262-18.259-19.575-28.807-28.239    c-5.299-4.352-10.799-8.531-16.484-12.525c-5.67-3.983-11.484-7.962-17.639-11.406    C141.219,201.562,139.176,203.796,140.734,204.913z"></path>			<path style="fill:none;stroke:#222221;stroke-miterlimit:10;" d="M141.672,202.318c16.628,18.64,41.828,32.056,54.062,52.964    c15.514,26.512,17.589,57.758,35.195,83.33c4.347,6.315,9.592,12.196,13.432,18.738c3.841,6.543,6.237,14.028,4.368,21.153"></path>			<path style="fill:none;stroke:#222221;stroke-miterlimit:10;" d="M243.905,339.734c-0.853,4.378-1.706,8.757-2.56,13.135    c-11.492,0.487-19.805-2.33-30.906-4.876"></path>			<path style="fill:none;stroke:#222221;stroke-miterlimit:10;" d="M239.162,323.183c-0.646,7.372-1.624,14.724-2.93,22.034    c-9.464-4.59-19.69-8.066-30.289-10.296c-4.406-0.927-8.978-1.674-12.829-3.698"></path>			<path style="fill:none;stroke:#222221;stroke-miterlimit:10;" d="M227.867,292.167c-0.412,10.607-2.137,21.178-5.136,31.486    c-12.537-5.198-25.075-10.395-37.612-15.593"></path>			<path style="fill:none;stroke:#222221;stroke-miterlimit:10;" d="M218.83,273.54c-1.198,9.108-2.911,18.167-5.13,27.138    c-9.629-5.276-19.258-10.553-28.887-15.829"></path>			<path style="fill:none;stroke:#222221;stroke-miterlimit:10;" d="M207.871,257.843c-0.301,6.226-1.149,12.433-2.533,18.554    c-7.528-4.946-15.056-9.892-22.584-14.838"></path>			<path style="fill:none;stroke:#222221;stroke-miterlimit:10;" d="M193.907,241.929c0.756,3.878,1.151,7.805,1.18,11.734    c-6.424-3.376-12.755-6.877-18.985-10.5"></path>			<path style="fill:none;stroke:#222221;stroke-miterlimit:10;" d="M180.936,230.337c0.65,2.493,1.013,5.04,1.082,7.592    c-4.405-1.445-8.699-3.129-12.847-5.039"></path>			<path style="fill:none;stroke:#222221;stroke-miterlimit:10;" d="M169.167,220.602c0.184,2.323,0.369,4.645,0.553,6.968    c-2.06-0.715-4.12-1.43-6.18-2.145"></path>			<path style="fill:none;stroke:#222221;stroke-miterlimit:10;" d="M156.823,211.308c0.481,2.042,0.846,4.104,1.092,6.176    c-1.07-0.266-2.139-0.533-3.209-0.8"></path>		</g>		<path style="fill:#FFFFFF;stroke:#222221;stroke-miterlimit:10;" d="M223.541,125.61c0.146-1.595,2.158-2.247,3.591-1.251   c17.549,12.197,25.406,30.821,27.834,49.411c0.133-2.452,0.265-4.905,0.428-7.356c0.86-12.939,2.064-25.884,3.85-38.758   c1.002-7.225,1.825-14.671,4.565-21.601c0.535-1.354,2.892-1.119,2.962,0.337c0.309,6.436-0.8,12.9-1.621,19.291   c-0.828,6.445-1.615,12.893-2.276,19.352c-0.725,7.083-1.312,14.175-1.785,21.273c0.414-1.049,0.842-2.094,1.299-3.127   c1.944-4.4,4.445-8.545,7.784-12.313c3.098-3.496,6.706-6.616,10.579-9.509c8.827-6.594,19.017-11.811,29.096-16.919   c2.028-1.027,3.845,0.947,2.997,2.52c-4.107,7.619-8.546,15.291-15.266,21.556c-3.278,3.057-7.116,5.591-11.291,7.726   c-3.841,1.964-7.873,3.647-11.741,5.571c-2.112,1.051-4.202,2.169-6.091,3.492c-0.534,0.373-1.068,0.74-1.601,1.109   c-5.94,4.112-5.057,13.963-5.949,19.679c-1.881,12.05-5.153,23.946-6.512,36.047c-0.644,5.742-1.09,11.494-1.645,17.241   c-0.284,2.942-0.544,5.884-0.897,8.82c-0.355,2.954-0.934,14.715-1.191,17.682c-0.061,0.703-2.531,1.592-2.515,0.871   c0.062-2.695,0.143,7.208,0,4.518c-0.139-2.611-2.974-16.48-2.885-19.092c0.181-5.306,4.112-21.682,4.526-26.979   c0.678-8.658,1.604-17.314,3.008-25.914c-0.042-0.351-0.078-0.703-0.103-1.056c-0.109-1.535-0.142-3.069-0.298-4.602   c-0.217-2.131-0.226-4.289-0.273-6.439c-1.688-2.63-3.111-5.373-4.726-8.069c-2.5-4.175-5.272-8.229-8.018-12.291   c-5.484-8.112-10.892-16.396-13.836-25.451C223.874,136.26,223.056,130.914,223.541,125.61z"></path>		<path style="fill:#FFFFFF;stroke:#222221;stroke-miterlimit:10;" d="M244.583,113.027c1.379,3.649,2.746,7.451,5.311,10.658   c2.29,2.863,5.537,5.1,9.515,6.062c4.067,0.984,8.199,0.095,11.35-2.203c0.988-0.228,1.937-0.556,2.812-1.048   c3.275-1.837,5.543-5.148,7.109-8.108c1.729-3.266,2.755-6.721,3.187-10.273c0.834-6.854-0.126-13.915-1.932-20.661   c-0.03-0.17-0.048-0.341-0.081-0.512c-0.668-3.496-1.728-6.922-3.343-10.197c-1.452-2.944-3.169-5.918-6.302-7.777   c-1.218-0.844-2.605-1.496-4.185-1.803c-4.637-0.9-8.995,1.333-12.089,4.047c-2.978,2.613-5.107,5.85-6.855,9.13   c-1.746,3.276-3.358,6.635-4.767,10.023c-1.467,3.529-2.535,7.241-2.477,11.002C241.9,105.347,243.16,109.259,244.583,113.027z"></path>		<path style="fill:none;stroke:#222221;stroke-miterlimit:10;" d="M270.123,67.537c8.392,16.564,9.833,35.552,4.013,52.879   c-0.969,2.885-2.22,5.844-4.799,7.915"></path>		<path style="fill:none;stroke:#222221;stroke-miterlimit:10;" d="M266.451,66.844c-3.682,11.989-3.867,24.514-4.031,36.896"></path>		<path style="fill:none;stroke:#222221;stroke-miterlimit:10;" d="M260.758,68.153c-4.698,6.406-7.126,13.973-6.9,21.497"></path>		<path style="fill:#FFFFFF;stroke:#222221;stroke-miterlimit:10;" d="M244.249,57.585c11.638,4.838,21.795,11.98,29.641,20.668   c8.376,9.274,13.876,20.359,15.775,31.896c0.543,3.3,0.776,6.593,0.67,9.924c-0.028,0.87-0.077,1.748-0.156,2.627   c0.335-0.52,0.787-0.982,1.312-1.391c0.377-0.977,0.788-1.937,1.348-2.888c0.908-1.541,1.952-3.019,3.115-4.433   c2.32-2.821,5.052-5.317,8.161-7.533c6.414-4.573,13.821-7.985,21.623-10.57c3.731-1.236,8.099-2.011,11.309-4.136   c0.405-0.35,0.838-0.683,1.298-0.999c0.035-0.032,0.074-0.06,0.109-0.093c0.003,0.003,0.006,0.007,0.009,0.01   c0.105-0.071,0.2-0.147,0.308-0.216c1.478-0.938,3.043,1.018,1.901,2.072c-0.549,0.506-1.154,0.939-1.782,1.342   c-1.658,1.508-2.828,3.406-4.095,5.133c-1.701,2.32-3.697,4.332-6.365,5.904c-5.319,3.135-11.845,4.046-18.046,5.201   c-3.149,0.586-6.37,1.401-9.029,2.971c-0.762,0.643-1.539,1.27-2.277,1.933c-1.155,1.036-2.304,2.115-3.597,3.044   c-0.373,0.469-0.755,0.932-1.151,1.388c1.228-0.881,2.543-1.683,3.874-2.45c2.812-1.623,5.881-2.86,9.094-3.814   c3.636-1.08,7.43-1.353,11.255-1.042c3.806,0.31,7.571,0.988,11.411,0.927c1.778-0.028,2.563,2.169,0.928,2.88   c-6.562,2.855-13.639,4.677-20.977,5.401c-3.684,0.363-7.441,0.12-11.104,0.573c-3.113,0.385-5.701,1.652-8.243,3.128   c-0.206,0.12-0.469,0.101-0.677,0.001c-0.275,1.717-0.698,3.413-1.347,5.033c-0.064,0.161-0.341,0.132-0.351-0.04   c-0.162-2.906-0.003-5.823-0.129-8.736c-0.126-2.927-0.388-5.842-0.815-8.751c-0.125-0.851-0.275-1.699-0.438-2.547   c-0.715-0.869-1.508-1.692-2.364-2.472c-0.712-0.649-1.296-1.412-1.993-2.079c-0.829-0.793-1.706-1.552-2.59-2.301   c-3.303-2.801-6.939-5.331-9.756-8.509c-3.29-3.71-5.637-7.95-8.17-12.037c-2.496-4.026-5.422-7.654-8.913-11.116   c-3.901-3.869-8.024-7.653-10.805-12.196C241.522,58.155,242.91,57.028,244.249,57.585z"></path>		<path style="fill:#FFFFFF;stroke:#222221;stroke-miterlimit:10;" d="M250.597,296.955c0.048-1.958,0.275-3.931,0.496-5.88   c0.249-2.191,0.695-4.336,1.347-6.436c0.117-0.901,0.279-1.8,0.423-2.684c0.593-3.642,1.277-7.275,1.937-10.909   c1.299-7.15,2.642-14.294,4.029-21.431c2.802-14.416,5.785-28.806,8.948-43.169c3.148-14.293,6.478-28.557,9.988-42.79   c3.51-14.233,7.197-28.435,11.061-42.603c1.941-7.116,3.877-14.238,6.137-21.288c2.237-6.978,4.356-13.993,6.821-20.917   c0.314-0.881,0.594-1.777,0.943-2.649c0.329-0.822,1.009-1.556,1.549-2.296c0.541-0.742,1.842-0.407,1.894,0.431   c0.05,0.806,0.218,1.667,0.096,2.464c-0.139,0.906-0.449,1.818-0.667,2.713c-0.44,1.809-0.875,3.619-1.366,5.419   c-0.964,3.529-1.845,7.071-2.781,10.604c-1.873,7.064-3.692,14.135-5.636,21.186c-3.865,14.023-7.557,28.079-11.074,42.166   c-3.535,14.157-6.893,28.344-10.08,42.559c-3.188,14.214-6.198,28.457-9.032,42.724c-1.417,7.134-2.789,14.273-4.117,21.419   c-0.664,3.573-1.317,7.147-1.959,10.723c-0.623,3.469-1.359,6.937-1.595,10.443c-0.058,0.857-0.087,1.733-0.205,2.584   c-0.087,0.624-0.372,1.179-0.66,1.742c-0.11,1.503-0.198,3.006-0.294,4.509c-0.113,1.781,0.421,4.623-1.359,5.909   c-0.74,0.535-1.757,0.584-2.496,0c-0.02-0.016-0.035-0.034-0.054-0.05c-0.075,0.057-0.139,0.125-0.222,0.174   c-0.127,0.076-0.357,0.077-0.485,0C250.664,300.704,250.562,298.39,250.597,296.955z"></path>		<g>			<path style="fill:#FFFFFF;stroke:#222221;stroke-miterlimit:10;" d="M149.687,293.973c0.611-2.7,1.264-5.394,1.926-8.086    c0.612-2.488,1.137-5.019,2.134-7.424c1.937-4.673,5.746-7.926,10.42-10.78c2.122-1.295,4.332-2.485,6.451-3.783    c2.257-1.382,4.386-2.915,6.463-4.482c4.289-3.236,8.308-6.715,12.586-9.96c8.132-6.168,17.645-11.4,28.863-12.084    c5.87-0.358,11.889,0.843,16.593,3.888c2.403,1.556,4.536,3.486,6.178,5.633c0.731,0.956,1.331,1.955,1.855,2.981    c0.736,0.743,1.435,1.518,2.101,2.305c0.208,0.246,0.14,0.514-0.051,0.711c0.754,0.52,1.495,1.066,2.083,1.714    c0.75,0.827,1.623,1.677,1.874,2.727c0.077,0.322-0.163,0.582-0.549,0.607c-0.335,0.022-0.676,0.005-1.017-0.028    c0.26,0.662,0.266,1.226,0.044,2.014c-0.044,0.157-0.249,0.239-0.426,0.203c-1.035-0.21-1.654-0.427-2.503-1.019    c-0.872-0.608-1.701-1.248-2.557-1.87c-1.612-1.171-3.353-2.21-5.237-3.049c-3.685-1.642-7.833-2.507-12.003-2.422    c-0.547,0.656-1.032,1.361-1.467,2.065c-2.091,3.381-3.697,6.961-5.787,10.348c-2.214,3.587-4.736,7.019-7.711,10.196    c-3.105,3.316-6.751,6.123-10.844,8.559c-4.145,2.468-8.573,4.577-12.72,7.043c-7.364,4.378-13.996,9.643-19.732,15.49    c-6.429,6.552-11.722,13.945-15.441,21.846c-0.934,1.985-4.202,1.698-4.425-0.504c-0.277-2.731-0.615-5.446-0.606-8.191    c0.009-2.727,0.259-5.465,0.572-8.178C147.392,304.917,148.453,299.427,149.687,293.973z"></path>		</g>		<path style="fill:#FFFFFF;stroke:#222221;stroke-miterlimit:10;" d="M243.155,394.565c0.846-31.271,9.788-61.712,19.463-91.748   c0.034-0.105,0.066-0.212,0.1-0.317c4.563-14.144,9.891-28.111,15.828-41.888c0.733-1.701,1.476-3.4,2.227-5.096   c0.534-1.207,1.92-2.029,3.49-1.666c1.379,0.319,2.518,1.721,1.981,2.934c-0.14,0.317-0.275,0.636-0.414,0.954   c1.252-0.094,2.629,1.081,1.924,2.372c-6.976,12.775-13.088,26.086-17.587,39.633c-2.25,6.776-4.192,13.639-5.814,20.541   c-8.893,37.853-15.846,75.301-10.973,114.194c1.549,12.359,3.979,24.665,4.347,37.088c0.064,2.157,0.049,4.388-0.975,6.366   c-1.023,1.978-3.315,3.65-5.878,3.547c-2.415-0.097-4.432-1.737-5.365-3.613c-0.933-1.876-0.995-3.965-1.044-5.998   C243.843,446.138,242.46,420.238,243.155,394.565z"></path>		<path style="fill:#FFFFFF;stroke:#222221;stroke-miterlimit:10;" d="M155.816,113.984c1.719,1.448,4.321,2.002,6.369,3.047   c4.325,2.207,7.732,5.485,10.354,9.087c3.042,4.179,5.047,8.787,6.824,13.433c1.75,4.574,3.024,9.492,5.629,13.792   c1.274,2.102,3.101,3.796,5.475,5.052c2.372,1.255,4.864,2.238,7.051,3.74c4.454,3.058,8.134,6.823,12.796,9.68   c4.287,2.628,9.478,4.355,14.828,3.511c2.286-0.361,4.461-1.207,6.263-2.44c0.829-0.567,1.471-1.2,1.955-1.9   c2.009,1.548,4.783,2.423,7.481,2.437c3.926,0.02,7.528-1.553,10.485-3.609c5.603-3.895,8.953-9.804,10.686-15.635   c2.048-6.892,2.052-14.047,2.73-21.087c0.63-6.537,2.098-12.951,4.683-19.147c1.254-3.006,2.67-5.951,4.357-8.805   c1.63-2.756,2.866-6.159,4.934-8.668c0.097-0.118,0.199-0.238,0.236-0.377c0.439-1.665-3.375-1.326-4.222-1.027   c-1.638,0.579-2.988,1.843-4.159,2.925c-2.169,2.003-3.964,4.326-5.288,6.794c-0.083,0.155-0.163,0.314-0.245,0.471   c-0.281-3.108-0.853-6.218-1.973-9.17c-3.072-8.099-10.894-14.152-17.493-20.297c-0.985-0.917-2.625-0.539-3.363,0.364   c-2.552,3.123-4.935,6.336-7.073,9.672c-1.034,1.614-2.042,3.243-2.936,4.916c-0.324,0.607-0.661,1.232-0.932,1.871   c-1.272-0.895-2.735-1.743-4.27-1.97c-2.331-0.344-3.41,0.991-4.188,2.483c-0.48-2.072-1.265-4.07-2.595-5.85   c-1.74-3.964-5.46-7.425-10.73-7.797c-0.599-0.042-1.224,0.001-1.808-0.059c-0.022-0.009-0.039-0.022-0.059-0.037   c-0.027-0.036-0.06-0.081-0.109-0.149c-0.611-0.852-0.98-1.765-1.804-2.51c-2.368-2.14-5.792-1.364-8.041,0.444   c-2.122,1.705-3.846,3.976-5.435,6.038c-1.567,2.034-3.004,4.141-4.26,6.323c-2.084,3.619-3.712,7.407-4.842,11.308   c-4.235-1.998-9.189-2.738-14.048-1.882c-5.572,0.981-10.576,4.209-13.325,8.38C154.336,109.487,153.497,112.032,155.816,113.984z   "></path>		<path style="fill:#FFFFFF;stroke:#222221;stroke-miterlimit:10;" d="M226.442,161.745c2.226-4.558,6.599,2.469,7.743,6.177   c2.066,6.7,2.193,13.702,2.992,20.554c0.969,8.311,2.468,16.569,3.962,24.822c3.173,17.529,6.346,35.058,9.52,52.587l9.472,52.327   c3.11,17.178,6.607,34.347,8.997,51.609c2.304,16.64,3.098,33.614-0.949,50.117c-0.497,2.026-1.073,4.037-1.716,6.034   c-0.809,2.515-5.928,2.117-5.585-0.636c4.297-34.411-1.585-68.88-7.703-102.866c-6.195-34.411-12.404-68.821-18.605-103.232   c-1.755-9.735-3.509-19.47-5.264-29.205c-1.518-8.422-5.287-17.087-3.649-25.696C225.867,163.226,226.134,162.375,226.442,161.745   z"></path>		<path style="fill:#FFFFFF;stroke:#222221;stroke-miterlimit:10;" d="M293.47,57.556c0.028,3.829-0.009,7.801,1.309,11.504   c1.177,3.305,3.487,6.252,6.946,8.164c3.537,1.955,7.796,2.138,11.616,0.73c1.023,0.029,2.046-0.048,3.056-0.298   c3.776-0.937,7.11-3.533,9.651-5.968c2.804-2.687,5.004-5.731,6.67-9.014c3.216-6.337,4.792-13.319,5.449-20.212   c0.031-0.17,0.075-0.338,0.104-0.509c0.597-3.505,0.793-7.041,0.407-10.572c-0.347-3.173-0.937-6.442-3.272-8.999   c-0.865-1.11-1.959-2.079-3.36-2.767c-4.111-2.017-9.06-0.973-12.973,0.846c-3.766,1.751-6.941,4.311-9.77,7.007   c-2.824,2.692-5.549,5.497-8.09,8.382c-2.647,3.003-4.977,6.281-6.249,9.887C293.619,49.552,293.441,53.603,293.47,57.556z"></path>		<path style="fill:#FFFFFF;stroke:#222221;stroke-miterlimit:10;" d="M264.384,363.954c-0.01,0.321,0.674,9.161,2.519,5.314   c4.449-9.275,5.398-18.469,12.707-26.915c6.534-7.55,16.027-12.752,22.941-20.025c6.942-7.302,11.45-15.873,17.2-23.813   c5.012-6.922,11.4-13.676,20.312-17.195c10.24-4.045,22.113-1.712,32.658-4.847c1.957-0.582,1.848-2.65,0-3.261   c-13.092-4.331-28.143-4.482-41.334-0.341c-10.417,3.27-19.481,9.068-26.186,16.509c-3.482,3.864-5.839,8.076-8.165,12.481   c-1.201,2.274-2.574,4.438-4.625,6.254c-2.027,1.795-4.383,3.292-6.601,4.909c-8.29,6.043-14.012,14.146-17.437,22.852   c-1.73,4.398-2.875,8.938-3.478,13.541c-0.556,4.244-0.415,8.604-0.475,12.893C264.411,362.859,264.4,363.407,264.384,363.954z"></path>		<path style="fill:#FFFFFF;stroke:#222221;stroke-miterlimit:10;" d="M107.49,162.626c7.739-1.066,15.612-1.271,23.422-0.673   c0.382,0.029,0.763,0.069,1.145,0.102c0.789-0.132,1.583-0.225,2.393-0.178c0.132,0.008,0.262,0.025,0.393,0.036   c0.193-0.004,0.386-0.008,0.581-0.01c2.444-0.029,4.878,0.056,7.314,0.219c4.85,0.325,9.681,0.921,14.435,1.794   c43.938,8.066,69.032,37.511,83.544,71.256c0.195,0.453-0.647,0.741-0.919,0.326c-4.213-6.44-7.927-8.419-15.731-10.714   c-16.219-4.769-32.102-11.707-45.928-20.661c-14.216-9.207-24.07-22.869-38.617-31.353c-9.284-5.415-20.512-5.896-31.428-6.397   c-1.121-0.051-2.09-0.685-2.227-1.654C105.744,163.863,106.362,162.782,107.49,162.626z"></path>		<path style="fill:#FFFFFF;stroke:#222221;stroke-miterlimit:10;" d="M261.156,203.769c0.615-5.061,1.439-10.176,3.526-14.977   c2.047-4.71,5.199-8.938,8.548-13.058c3.485-4.289,7.004-8.559,10.507-12.838c1.633-1.995,3.235-4.557,5.707-5.9   c1.264-0.687,2.802-0.92,4.245-0.53c1.455,0.393,2.415,1.414,3.161,2.478c1.172,1.671,2.267,3.386,3.302,5.129   c2.798-0.981,5.99-1.322,9.01-1.202c3.203,0.127,6.821,0.464,9.764,1.6c2.76,1.066,4.706,3.309,5.923,5.583   c0.514,0.961,0.925,1.963,1.228,2.986c2.865-1.061,5.833-1.925,8.73-2.647c2.928-0.73,6.693-2.161,9.614-0.761   c2.605,1.249,3.677,4.088,4.592,6.329c1.855,4.547,2.525,9.507,2.003,14.291c-0.379,3.476-1.328,6.884-2.852,10.108   c4.31-1.79,8.139-4.327,11.25-7.48c1.73-1.753,5.423,0.124,4.552,2.229c-7.942,19.203-16.399,39.26-34.084,53.805   c-8.188,6.734-18.326,12.172-29.64,14.181c-11.178,1.985-25.45,0.721-32.711-7.602c-3.938-4.514-5.488-10.588-6.622-15.999   c-0.646-3.083-1.084-6.203-1.28-9.328c-0.029-0.459-0.036-0.914-0.035-1.369C259.122,220.457,260.151,212.041,261.156,203.769z"></path>		<path style="fill:none;stroke:#222221;stroke-miterlimit:10;" d="M183.128,100.837c4.199,2.835,6.006,8.197,7.156,12.621   c1.15,4.424,1.235,8.986,1.736,13.494c1.482,13.343,7.431,27.229,20.473,34.93c3.999,2.361,9.751,3.962,13.522,1.349"></path>		<path style="fill:none;stroke:#222221;stroke-miterlimit:10;" d="M222.523,92.941c0.645,6.455,4.811,12.265,6.659,18.553   c1.186,4.034,1.403,8.217,1.615,12.369c0.444,8.691,0.888,17.383,1.332,26.074c0.183,3.582,0.739,8.644-1.517,11.685"></path>		<path style="fill:none;stroke:#222221;stroke-miterlimit:10;" d="M207.478,79.397c-5.609,11.931-7.208,25.174-4.565,37.809   c1.615,7.721,4.759,15.151,8.01,22.498c1.024,2.313,2.061,4.626,3.309,6.859c3.019,5.403,7.275,10.314,12.466,14.387"></path>		<path style="fill:none;stroke:#222221;stroke-miterlimit:10;" d="M196.094,78.534c-3.612,19.673,0.326,39.985,8.698,58.605   c2.859,6.358,6.303,12.653,11.625,17.769c2.912,2.8,6.33,5.191,9.731,7.568"></path>		<path style="fill:none;stroke:#222221;stroke-miterlimit:10;" d="M154.532,111.648c1.829,0.74,3.913,1.028,5.928,0.82   c1.25-0.129,2.493-0.454,3.511-1.078c3.134-1.921,3.376-6.064,6.533-7.958c0.777-0.466,1.678-0.758,2.569-1.045   c1.527-0.493,3.054-0.986,4.581-1.478c1.792-0.578,4.052-1.088,5.436,0.031"></path>		<path style="fill:none;stroke:#222221;stroke-miterlimit:10;" d="M165.946,109.08c8.273,3.12,15.843,9.212,18.791,16.422   c1.925,4.708,2.328,9.771,4.1,14.522c3.611,9.683,12.643,17.322,22.617,23.036c2.018,1.156,4.115,2.261,6.439,2.89   s4.924,0.744,7.169-0.063"></path>		<path style="fill:none;stroke:#222221;stroke-miterlimit:10;" d="M170.137,122.725c3.416,2.717,6.338,5.873,8.632,9.324   c4.895,7.362,6.987,16.083,13.43,22.548c1.867,1.874,4.053,3.503,6.229,5.124c2.501,1.863,5.002,3.726,7.503,5.589   c1.479,1.102,2.973,2.213,4.701,3.019c4.381,2.044,10.125,1.815,14.256-0.568"></path>		<path style="fill:none;stroke:#222221;stroke-miterlimit:10;" d="M231.622,92.068c8.627,14.132,12.869,30.137,12.193,46.012   c-0.094,2.196-0.28,4.394-0.73,6.559c-1.429,6.867-5.589,13.312-11.658,18.061"></path>		<path style="fill:none;stroke:#222221;stroke-miterlimit:10;" d="M251.766,81.23c4.797,11.527,4.798,24.017,4.747,36.229   c-0.02,4.674-0.04,9.362-0.72,14.002c-0.798,5.443-2.495,10.761-4.294,16.032c-0.999,2.928-2.053,5.888-3.956,8.48   c-3.278,4.464-9.086,7.545-15.288,8.11"></path>		<path style="fill:none;stroke:#222221;stroke-miterlimit:10;" d="M264.628,104.734c0.738,14.014-2.121,28.05-7.011,41.462   c-1.906,5.227-4.173,10.459-8.039,14.855c-3.866,4.396-8.604,7.909-15.064,8.533"></path>		<path style="fill:none;stroke:#222221;stroke-miterlimit:10;" d="M130.632,161.759c21.775,4.097,42.996,11.307,60.54,22.9   c16.758,11.074,29.594,25.707,42.213,40.151c2.784,3.186,5.653,6.54,6.369,10.448"></path>		<path style="fill:none;stroke:#222221;stroke-miterlimit:10;" d="M157.356,164.159c1.182,1.802,2.363,3.605,3.545,5.407   c-10.424-0.299-20.848-0.599-31.272-0.898"></path>		<path style="fill:none;stroke:#222221;stroke-miterlimit:10;" d="M139.945,163.958c-9.247-1.098-18.801-0.322-27.627,2.244"></path>		<path style="fill:none;stroke:#222221;stroke-miterlimit:10;" d="M170.408,167.259c2.572,2.848,4.719,5.967,6.375,9.262   c-1.978-0.605-4.152-0.454-6.251-0.33c-8.695,0.514-17.441,0.415-26.117-0.297"></path>		<path style="fill:none;stroke:#222221;stroke-miterlimit:10;" d="M183.137,171.732c1.884,3.911,4.062,7.723,6.517,11.403   c-12.05,0.506-24.124,0.602-36.183,0.288"></path>		<path style="fill:none;stroke:#222221;stroke-miterlimit:10;" d="M195.323,177.975c2.57,4.787,4.966,9.639,7.185,14.548   c-12.489-0.896-25.099-0.6-37.51,0.88"></path>		<path style="fill:none;stroke:#222221;stroke-miterlimit:10;" d="M209.051,189.158c1.711,4.756,3.423,9.512,5.134,14.268   c-13.372-1.18-24.027-1.209-37.406-0.084"></path>		<path style="fill:none;stroke:#222221;stroke-miterlimit:10;" d="M221.297,202.404c0.662,3.432,1.325,6.863,1.987,10.294   c-11.879-0.874-23.745-1.882-35.592-3.021"></path>		<path style="fill:none;stroke:#222221;stroke-miterlimit:10;" d="M228.63,212.962c0.334,1.911,0.668,3.822,1.001,5.733   c0.03,0.174,0.058,0.362-0.044,0.516c-0.18,0.27-0.631,0.276-0.998,0.248c-7.388-0.572-14.819-0.756-22.234-0.552   c-0.406,0.011-0.935,0.115-0.966,0.456"></path>		<path style="fill:none;stroke:#222221;stroke-miterlimit:10;" d="M223.449,253.835c0.823-1.288,2.178-4.522,3.347-5.605   c3.098-2.868,8.079-4.196,12.576-3.352"></path>		<path style="fill:none;stroke:#222221;stroke-miterlimit:10;" d="M148.578,327.96c1.607-12.006,5.967-23.747,12.77-34.389   c8.391-13.127,20.303-24.385,32.167-35.456c4.991-4.657,10.061-9.355,16.25-12.851c7.183-4.057,16.344-6.358,24.594-4.162"></path>		<path style="fill:none;stroke:#222221;stroke-miterlimit:10;" d="M160.814,311.852c-0.64-4.802-1.28-9.604-1.92-14.406   c-3.561,1.57-7.123,3.14-10.684,4.711"></path>		<path style="fill:none;stroke:#222221;stroke-miterlimit:10;" d="M150.426,291.323c0.275-1.05,1.533-1.67,2.673-2.155   c5.4-2.298,10.904-4.424,16.495-6.374c-0.35,0.497-0.344,1.109-0.329,1.687c0.161,5.872,0.321,11.743,0.482,17.615"></path>		<path style="fill:none;stroke:#222221;stroke-miterlimit:10;" d="M163.981,289.28c0.252,4.206,0.503,8.412,0.755,12.618"></path>		<path style="fill:none;stroke:#222221;stroke-miterlimit:10;" d="M176.433,296.517c0.088-4.326-0.141-8.657-0.684-12.959   c-0.3-2.373-0.696-4.75-0.587-7.134c-1.341,0.718-3.034-0.225-4.614-0.075c-6.071,0.574-12.019,2.055-17.482,4.353"></path>		<path style="fill:none;stroke:#222221;stroke-miterlimit:10;" d="M158.217,271.734c1.788-1.504,4.458-1.909,6.942-2.303   c7.305-1.161,14.49-2.859,21.445-5.068c1.254,8.259,1.275,16.649,0.062,24.912"></path>		<path style="fill:none;stroke:#222221;stroke-miterlimit:10;" d="M196.129,284.116c-0.936-8.561-1.871-17.122-2.807-25.682   c-5.555,0.619-11.129,1.113-16.714,1.482"></path>		<path style="fill:none;stroke:#222221;stroke-miterlimit:10;" d="M202.863,279.091c2.477-10.117,3.788-20.437,3.909-30.766   c0.005-0.389-0.03-0.843-0.41-1.064c-0.355-0.207-0.836-0.107-1.25-0.004c-4.859,1.217-9.899,1.924-14.966,2.098"></path>		<path style="fill:none;stroke:#222221;stroke-miterlimit:10;" d="M215.664,266.757c1.353-8.274,1.829-16.65,1.422-24.995   c-3.506-0.395-9.929-0.311-13.435-0.706"></path>		<path style="fill:none;stroke:#222221;stroke-miterlimit:10;" d="M223.155,253.286c0.324-4.432,0.802-8.857,1.436-13.265   c-2.74-0.892-5.19-1.477-7.93-2.369"></path>		<path style="fill:none;stroke:#222221;stroke-miterlimit:10;" d="M300.152,164.072c2.449,12.16,10.273,21.28,13.624,33.287   c2.651,9.5,1.316,19.472-1.059,29.023c-2.254,9.063-5.529,18.133-11.811,25.736c-3.908,4.729-8.644,9.519-15.056,11.54"></path>		<path style="fill:none;stroke:#222221;stroke-miterlimit:10;" d="M348.389,200.17c-8.017,3.803-15.976,7.833-22.721,13.1   c-6.746,5.267-13.311,13.943-15.396,21.482"></path>		<path style="fill:none;stroke:#222221;stroke-miterlimit:10;" d="M326.089,172.832c-8.004,2.476-14.227,8.652-15.817,15.698"></path>		<path style="fill:none;stroke:#222221;stroke-miterlimit:10;" d="M299.671,164.021c-1.285,10.431,2.045,20.822,3.431,31.244   c2.643,19.88-1.979,40.401-13.085,58.091c-2.032,3.237-4.317,7.228-7.485,9.738"></path>		<path style="fill:none;stroke:#222221;stroke-miterlimit:10;" d="M278.987,262.342c-5.847-19.389-5.132-40.746,1.82-59.876   c2.221-6.113,5.07-12.049,7.597-18.078c2.443-5.828,4.586-11.745,6.422-17.729c0.986-3.214,1.393-5.797,0.35-8.998"></path>		<path style="fill:none;stroke:#222221;stroke-miterlimit:10;" d="M291.589,156.818c-2.034,8.202-9.357,13.891-13.382,21.555   c-2.098,3.995-3.281,8.278-4.453,12.533c-6.027,21.882-12.024,44.982-4.262,66.474"></path>		<path style="fill:none;stroke:#222221;stroke-miterlimit:10;" d="M344.473,169.36c2.237,5.76,1.078,12.819-0.143,18.792   c-1.291,6.31-5.751,14.024-10.036,19.317"></path>		<path style="fill:none;stroke:#222221;stroke-miterlimit:10;" d="M341.119,169.383c-13.562,8.339-22.284,21.032-25.63,34.877"></path>		<path style="fill:none;stroke:#222221;stroke-miterlimit:10;" d="M363.519,193.178c-4.326,2.803-8.424,7.019-10.968,11.082   c-10.751,17.177-22.334,34.151-37.399,48.858c-3.836,3.745-11.138,8.599-16.676,10.256"></path>		<path style="fill:none;stroke:#222221;stroke-miterlimit:10;" d="M348.39,199.814c-17.051,17.294-24.181,40.983-44.161,55.895   c-3.542,2.643-10.319,6.197-15.032,6.583"></path>		<path style="fill:none;stroke:#222221;stroke-miterlimit:10;" d="M320.358,165.464c-2.311,4.145-3.829,8.601-4.479,13.146"></path>		<path style="fill:none;stroke:#222221;stroke-miterlimit:10;" d="M313.933,162.766c-2.605,7.794-4.216,14.219-4.796,22.301"></path>		<path style="fill:none;stroke:#222221;stroke-miterlimit:10;" d="M307.304,162.759c-1.753,2.715-3.476,10.073-2.456,14.424"></path>		<path style="fill:none;stroke:#222221;stroke-miterlimit:10;" d="M341.094,174.9c-1.784,11.601-7.751,22.723-16.913,31.525"></path>		<path style="fill:none;stroke:#222221;stroke-miterlimit:10;" d="M296.4,178.586c-0.24,8.44-0.48,16.88-0.721,25.32   c-0.312,10.973-0.661,22.132-4.728,32.561"></path>		<path style="fill:none;stroke:#222221;stroke-miterlimit:10;" d="M285.249,222.053c-2.538,10.42-4.081,21.011-4.608,31.639"></path>		<path style="fill:none;stroke:#222221;stroke-miterlimit:10;" d="M288.739,168.918c-5.113,8.608-8.624,17.887-10.367,27.396"></path>		<path style="fill:none;stroke:#222221;stroke-miterlimit:10;" d="M297.543,302.516c-5.87,8.509-3.719,19.815-10.117,28.05   c-1.955,2.517-4.606,4.591-6.844,6.936c-3.447,3.612-5.906,9.49-7.132,14.005"></path>		<path style="fill:none;stroke:#222221;stroke-miterlimit:10;" d="M359.028,270.479c-5.095,2.192-9.478,5.539-12.565,9.591"></path>		<path style="fill:none;stroke:#222221;stroke-miterlimit:10;" d="M343.884,270.16c-0.681-0.235-1.367,0.303-1.821,0.791   c-3.949,4.245-7.3,8.882-9.96,13.785"></path>		<path style="fill:none;stroke:#222221;stroke-miterlimit:10;" d="M326.004,275.21c-11.706,12.124-10.861,29.914-20.577,43.223"></path>		<path style="fill:none;stroke:#222221;stroke-miterlimit:10;" d="M305.656,288.401c-0.486,3.736-0.973,7.471-1.459,11.207   c-1.265,9.715-2.631,19.712-8.176,28.301"></path>		<path style="fill:none;stroke:#222221;stroke-miterlimit:10;" d="M279.691,318.619c0.685,2.22,1.371,4.44,2.056,6.661   c0.988,3.199,1.977,6.572,0.97,9.766"></path>		<path style="fill:none;stroke:#222221;stroke-miterlimit:10;" d="M273.306,350.184c1.248-5.922,0.356-12.953-2.529-18.457"></path>		<path style="fill:none;stroke:#222221;stroke-miterlimit:10;" d="M244.318,59.591c12.291,8.122,22.639,18.179,31.53,28.991   c5.427,6.599,10.464,13.805,11.383,21.791"></path>		<path style="fill:none;stroke:#222221;stroke-miterlimit:10;" d="M340.177,90.591c-12.022,11.089-32.783,13.565-43.682,25.447"></path>		<path style="fill:none;stroke:#222221;stroke-miterlimit:10;" d="M294.569,121.603c5.523-3.925,13.135-4.844,20.309-5.608   c5.497-0.585,10.994-1.17,16.491-1.755"></path>		<path style="fill:none;stroke:#222221;stroke-miterlimit:10;" d="M311.697,124.084c-6.998,8.671-15.058,16.736-24.013,24.023"></path>		<path style="fill:none;stroke:#222221;stroke-miterlimit:10;" d="M281.133,151.472c-6.028,4.76-13.894,8.208-17.77,14.35   c-4.793,7.596-2.045,16.9-3.658,25.392"></path>		<path style="fill:none;stroke:#222221;stroke-miterlimit:10;" d="M254.748,172.988c0.446,4.489-0.442,8.985-1.009,13.465   c-0.583,4.606-0.828,9.242-0.733,13.873"></path>		<path style="fill:none;stroke:#222221;stroke-miterlimit:10;" d="M260.9,167.64c-0.081,2.482-0.161,4.965-0.241,7.447"></path>		<path style="fill:none;stroke:#222221;stroke-miterlimit:10;" d="M247.855,171.831c2.77,3.407,4.459,7.43,4.846,11.544"></path>		<path style="fill:none;stroke:#222221;stroke-miterlimit:10;" d="M324.472,18.893c2.928,4.213,4.261,9.196,3.76,14.057   c-0.328,3.19-1.419,6.303-1.673,9.498c-0.228,2.869,0.224,5.741,0.449,8.611c0.388,4.947,0.079,10.012-1.894,14.684   c-1.973,4.672-12.547,10.863-17.811,13.096"></path>		<path style="fill:none;stroke:#222221;stroke-miterlimit:10;" d="M318.883,21.017c1.663,2.574,1.251,5.79-0.079,8.497   c-1.33,2.707-3.479,5.061-5.333,7.541c-8.89,11.889-10.889,26.586-9.887,40.605"></path>		<path style="fill:none;stroke:#222221;stroke-miterlimit:10;" d="M328.298,34.795c3.561-3.578,7.297-7.517,7.556-12.178"></path>		<path style="fill:none;stroke:#222221;stroke-miterlimit:10;" d="M309.016,29.804c-8.701,13.731-12.202,29.751-9.873,45.187"></path>		<path style="fill:none;stroke:#222221;stroke-miterlimit:10;" d="M322.426,31.524c-2.877,16.33-5.941,33.117-15.881,47.353"></path>		<path style="fill:none;stroke:#222221;stroke-miterlimit:10;" d="M333.665,40.207c-0.598,7.175-1.623,19.748-3.546,26.756"></path>	</g></g></svg>